<svg xmlns="http://www.w3.org/2000/svg" xmlns:xlink="http://www.w3.org/1999/xlink" viewBox="0 0 177.36 160.18"><defs><linearGradient id="Dégradé_sans_nom_10" x1="19.99" y1="93.62" x2="45.8" y2="93.62" gradientUnits="userSpaceOnUse"><stop offset="0" stop-color="#439cdf"/><stop offset="0.62" stop-color="#435cd1"/><stop offset="1" stop-color="#4338ca"/></linearGradient><linearGradient id="Dégradé_sans_nom_10-2" x1="133.01" y1="97.96" x2="144.05" y2="97.96" xlink:href="#Dégradé_sans_nom_10"/><linearGradient id="Dégradé_sans_nom_10-3" x1="132.09" y1="97.96" x2="145.95" y2="97.96" xlink:href="#Dégradé_sans_nom_10"/><linearGradient id="Dégradé_sans_nom_10-4" x1="167.2" y1="86.35" x2="158.31" y2="93.61" xlink:href="#Dégradé_sans_nom_10"/><linearGradient id="Dégradé_sans_nom_10-5" x1="167.06" y1="86.17" x2="158.16" y2="93.44" xlink:href="#Dégradé_sans_nom_10"/><linearGradient id="Dégradé_sans_nom_10-6" x1="-1882.56" y1="-1763.68" x2="-1880.13" y2="-1742.13" gradientTransform="matrix(0, 1.1, -0.95, 0, -1578.17, 2169.9)" xlink:href="#Dégradé_sans_nom_10"/><linearGradient id="Dégradé_sans_nom_10-7" x1="88.14" y1="43.52" x2="88.48" y2="43.52" gradientTransform="translate(0.38 -0.49)" xlink:href="#Dégradé_sans_nom_10"/><linearGradient id="Dégradé_sans_nom_17" x1="88.69" y1="45.96" x2="88.69" y2="40.16" gradientUnits="userSpaceOnUse"><stop offset="0.02" stop-color="#4338ca"/><stop offset="1" stop-color="#4338ca"/></linearGradient><linearGradient id="Dégradé_sans_nom_10-8" x1="90.63" y1="13.59" x2="86.74" y2="16.74" xlink:href="#Dégradé_sans_nom_10"/><linearGradient id="Dégradé_sans_nom_10-9" x1="96.86" y1="23.05" x2="79.85" y2="36.85" xlink:href="#Dégradé_sans_nom_10"/></defs><g id="Calque_2" data-name="Calque 2"><g id="Calque_1-2" data-name="Calque 1"><path d="M69.74,56.69v95.83a7.3,7.3,0,0,1-.07.94,7,7,0,0,1-6.92,6H7.67a7,7,0,0,1-7-7V56.69a7,7,0,0,1,7-7H62.75A7,7,0,0,1,69.74,56.69Z" fill="#fff" stroke="#000" stroke-linecap="round" stroke-miterlimit="10" stroke-width="1.36"/><rect x="23.47" y="64.62" width="18.84" height="6.19" rx="1.8" fill="none" stroke="#191919" stroke-miterlimit="10" stroke-width="1.86"/><line x1="25.21" y1="66.72" x2="25.21" y2="70.57" fill="none" stroke="#191919" stroke-linecap="round" stroke-miterlimit="10" stroke-width="0.93"/><line x1="28.28" y1="66.72" x2="28.28" y2="70.57" fill="none" stroke="#191919" stroke-linecap="round" stroke-miterlimit="10" stroke-width="0.93"/><line x1="31.36" y1="66.72" x2="31.36" y2="70.57" fill="none" stroke="#191919" stroke-linecap="round" stroke-miterlimit="10" stroke-width="0.93"/><line x1="34.43" y1="66.72" x2="34.43" y2="70.57" fill="none" stroke="#191919" stroke-linecap="round" stroke-miterlimit="10" stroke-width="0.93"/><line x1="37.51" y1="66.72" x2="37.51" y2="70.57" fill="none" stroke="#191919" stroke-linecap="round" stroke-miterlimit="10" stroke-width="0.93"/><line x1="40.58" y1="66.72" x2="40.58" y2="70.57" fill="none" stroke="#191919" stroke-linecap="round" stroke-miterlimit="10" stroke-width="0.93"/><path d="M45.93,79.57v27.94a2.82,2.82,0,0,1-2.82,2.81H22.93a2.81,2.81,0,0,1-2.81-2.81V79.57a5.13,5.13,0,0,1,3.62-4.9,1.71,1.71,0,0,1,1.7-1.51H40.61a1.7,1.7,0,0,1,1.69,1.51A5.12,5.12,0,0,1,45.93,79.57Z" fill="#fff" stroke="#191919" stroke-miterlimit="10" stroke-width="0.77"/><rect x="19.99" y="84.46" width="25.81" height="18.32" fill="url(#Dégradé_sans_nom_10)"/><rect x="30.78" y="89.1" width="4.37" height="11.1" rx="1.36" fill="#fff"/><rect x="30.84" y="89.16" width="4.37" height="11.1" rx="1.36" transform="translate(127.73 61.69) rotate(90)" fill="#fff"/><path d="M45.93,79.57v27.94a2.82,2.82,0,0,1-2.82,2.81H40.53a2.82,2.82,0,0,0,2.82-2.81V79.57a5.12,5.12,0,0,0-3.63-4.9A1.71,1.71,0,0,0,38,73.16h2.59a1.7,1.7,0,0,1,1.69,1.51A5.12,5.12,0,0,1,45.93,79.57Z" opacity="0.31"/><path d="M45.93,80.41v27.94a2.82,2.82,0,0,1-2.82,2.82H22.93a2.81,2.81,0,0,1-2.81-2.82V80.41a5.12,5.12,0,0,1,3.62-4.89A1.72,1.72,0,0,1,25.44,74H40.61a1.71,1.71,0,0,1,1.69,1.52A5.11,5.11,0,0,1,45.93,80.41Z" fill="none" stroke="#191919" stroke-miterlimit="10" stroke-width="1.86"/><path d="M176.68,56.69v95.83a7,7,0,0,1-7,7H114.61a7,7,0,0,1-6.92-6,7.3,7.3,0,0,1-.06-.94V56.69a7,7,0,0,1,7-7h55.08A7,7,0,0,1,176.68,56.69Z" fill="#fff" stroke="#000" stroke-miterlimit="10" stroke-width="1.36"/><path d="M141.86,97.05a10.13,10.13,0,0,0,2.08,6.17,5.86,5.86,0,0,1-4.41,2h-.62a5.89,5.89,0,0,1-5.9-5.88v-8.6h11A10.22,10.22,0,0,0,141.86,97.05Z" stroke-miterlimit="10" stroke-width="1.85" fill="url(#Dégradé_sans_nom_10-2)" stroke="url(#Dégradé_sans_nom_10-3)"/><path d="M145.43,78v8.58H133V78a5.9,5.9,0,0,1,5.9-5.9h.62A5.9,5.9,0,0,1,145.43,78Z" fill="none" stroke="#191919" stroke-miterlimit="10" stroke-width="1.85"/><line x1="141.95" y1="88.57" x2="130.98" y2="88.57" fill="none"/><path d="M159.08,103.81a8.51,8.51,0,0,1-10.36,0,7.42,7.42,0,0,1-.8-.7,8.5,8.5,0,0,1-.76-11.16Z" fill="url(#Dégradé_sans_nom_10-4)"/><path d="M160.7,102.19,149.83,91.32l-1-1a7.12,7.12,0,0,1,.86-.57,8.5,8.5,0,0,1,11,12.49Z" fill="url(#Dégradé_sans_nom_10-5)"/><line x1="11.48" y1="130.79" x2="45.81" y2="130.79" fill="none" stroke="#686868" stroke-linecap="round" stroke-miterlimit="10" stroke-width="3.03"/><line x1="132.5" y1="132.42" x2="160.89" y2="132.42" fill="none" stroke="#686868" stroke-linecap="round" stroke-miterlimit="10" stroke-width="3.03"/><g opacity="0.25"><path d="M69.74,56.69v95.83a7.3,7.3,0,0,1-.07.94H55.58a6.47,6.47,0,0,1-6.33-6.61v-97h5.38v-.16h8.12A7,7,0,0,1,69.74,56.69Z"/><path d="M128.57,146.82a6.46,6.46,0,0,1-6.31,6.64H107.69a7.3,7.3,0,0,1-.06-.94V56.69a7,7,0,0,1,7-7h9.73v.16h3.73l.35,67.23.12,23Z"/></g><path d="M124.26,43.05V142.2a7,7,0,0,1-7,7H60.09a6.85,6.85,0,0,1-3.15-.76,7,7,0,0,1-3.83-6.23V43.05a7,7,0,0,1,7-7h57.17A7,7,0,0,1,124.26,43.05Z" fill="#fff" stroke="#000" stroke-miterlimit="10" stroke-width="1.4"/><line x1="63.35" y1="116.42" x2="70.49" y2="121.8" fill="none" stroke="#000" stroke-linecap="round" stroke-miterlimit="10" stroke-width="2.88"/><line x1="73.99" y1="109.74" x2="69.9" y2="115.17" fill="none" stroke="#000" stroke-linecap="round" stroke-miterlimit="10" stroke-width="2.88"/><line x1="71.61" y1="101.76" x2="82.32" y2="109.84" fill="none" stroke="#000" stroke-linecap="round" stroke-miterlimit="10" stroke-width="2.88"/><rect x="69.35" y="86.39" width="38.29" height="8.24" stroke-width="2.88" fill="none" stroke="#000" stroke-linecap="round" stroke-miterlimit="10" transform="translate(-37.06 106.65) rotate(-52.97)"/><rect x="73.01" y="93.74" width="19.88" height="8.24" fill="url(#Dégradé_sans_nom_10-6)" stroke="#000" stroke-linecap="round" stroke-miterlimit="10" stroke-width="2.07" transform="translate(-45.13 105.15) rotate(-52.97)"/><line x1="101.51" y1="70.16" x2="104.49" y2="72.41" fill="none" stroke="#000" stroke-linecap="round" stroke-miterlimit="10" stroke-width="2.88"/><line x1="103.74" y1="70.3" x2="113.42" y2="57.48" fill="none" stroke="#000" stroke-linecap="round" stroke-miterlimit="10" stroke-width="0.96"/><line x1="85.05" y1="96.42" x2="87.69" y2="98.42" fill="none" stroke="#000" stroke-miterlimit="10" stroke-width="1.44"/><line x1="89.51" y1="90.51" x2="92.16" y2="92.5" fill="none" stroke="#000" stroke-miterlimit="10" stroke-width="1.44"/><line x1="93.98" y1="84.59" x2="96.62" y2="86.58" fill="none" stroke="#000" stroke-miterlimit="10" stroke-width="1.44"/><line x1="82.06" y1="122.54" x2="93.95" y2="122.54" fill="none" stroke="#686868" stroke-linecap="round" stroke-miterlimit="10" stroke-width="3.03"/><circle cx="89.2" cy="28.74" r="26.78" fill="#fff" stroke="#191919" stroke-miterlimit="10" stroke-width="3.92"/><path d="M88.51,40.18c0,1.91.17,3.81.34,5.71" fill="url(#Dégradé_sans_nom_10-7)"/><path d="M85.91,40.18q.09,2.87.34,5.71A2.82,2.82,0,0,0,87,47.72a2.67,2.67,0,0,0,1.84.76,2.64,2.64,0,0,0,1.84-.76,2.55,2.55,0,0,0,.76-1.83c-.17-1.9-.29-3.8-.34-5.71a2.75,2.75,0,0,0-.76-1.84,2.61,2.61,0,0,0-3.68,0,2.7,2.7,0,0,0-.76,1.84Z" fill="url(#Dégradé_sans_nom_17)"/><path d="M91.28,18.07V12.26a2.72,2.72,0,0,0-.76-1.84,2.6,2.6,0,0,0-4.44,1.84v5.81a2.59,2.59,0,0,0,2.6,2.6,2.64,2.64,0,0,0,2.6-2.6Z" fill="url(#Dégradé_sans_nom_10-8)"/><path d="M93,16.1c-3.5-.87-8.28-.75-10.42,2.64a9.5,9.5,0,0,0-1.15,4.83,5.3,5.3,0,0,0,2.73,4.76c2.45,1.53,5.69,1.65,7.92,3.2a3.57,3.57,0,0,1,1.52,2.54,2.17,2.17,0,0,1-1.13,2c-1.43.66-3.66.31-5.17.1a25.29,25.29,0,0,1-5.53-1.5,2.61,2.61,0,0,0-3.19,1.82,2.66,2.66,0,0,0,1.81,3.2A27.17,27.17,0,0,0,90.9,41.59a8.65,8.65,0,0,0,5.4-1.82,7.14,7.14,0,0,0,2.4-4.25,8.6,8.6,0,0,0-4.48-8.8,23.26,23.26,0,0,0-4.41-1.67c-.65-.2-1.31-.39-1.94-.65a10.05,10.05,0,0,0-1.27-.72c-.42-.05.23,0,.08.26s0-.25,0-.37a9.1,9.1,0,0,1,.07-1,2.69,2.69,0,0,1,.43-1.24c1.1-.83,3.25-.5,4.49-.19,3.24.8,4.63-4.21,1.38-5Z" fill="url(#Dégradé_sans_nom_10-9)"/></g></g></svg>