<svg xmlns="http://www.w3.org/2000/svg" xmlns:xlink="http://www.w3.org/1999/xlink" viewBox="0 0 187.7 167.41"><defs><linearGradient id="Dégradé_sans_nom_10" x1="504.47" y1="1223.41" x2="530.28" y2="1223.41" gradientTransform="translate(-474.49 -1131.17)" gradientUnits="userSpaceOnUse"><stop offset="0" stop-color="#439cdf"/><stop offset="0.62" stop-color="#435cd1"/><stop offset="1" stop-color="#4338ca"/></linearGradient><linearGradient id="Dégradé_sans_nom_10-2" x1="-728.21" y1="-885.07" x2="-717.17" y2="-885.07" gradientTransform="translate(534.29 1169.46) rotate(18.9)" xlink:href="#Dégradé_sans_nom_10"/><linearGradient id="Dégradé_sans_nom_10-3" x1="-729.13" y1="-885.07" x2="-715.27" y2="-885.07" gradientTransform="translate(534.29 1169.46) rotate(18.9)" xlink:href="#Dégradé_sans_nom_10"/><linearGradient id="Dégradé_sans_nom_10-4" x1="-694.02" y1="-896.68" x2="-702.91" y2="-889.42" gradientTransform="translate(534.29 1169.46) rotate(18.9)" xlink:href="#Dégradé_sans_nom_10"/><linearGradient id="Dégradé_sans_nom_10-5" x1="-694.16" y1="-896.86" x2="-703.06" y2="-889.59" gradientTransform="translate(534.29 1169.46) rotate(18.9)" xlink:href="#Dégradé_sans_nom_10"/><linearGradient id="Dégradé_sans_nom_10-6" x1="91.35" y1="39.55" x2="91.69" y2="39.55" gradientTransform="translate(2.88 3.38) rotate(0.07)" xlink:href="#Dégradé_sans_nom_10"/><linearGradient id="Dégradé_sans_nom_17" x1="94.35" y1="45.96" x2="94.35" y2="40.16" gradientUnits="userSpaceOnUse"><stop offset="0.02" stop-color="#4338ca"/><stop offset="1" stop-color="#4338ca"/></linearGradient><linearGradient id="Dégradé_sans_nom_10-7" x1="96.33" y1="13.59" x2="92.44" y2="16.74" gradientTransform="matrix(1, 0, 0, 1, 0, 0)" xlink:href="#Dégradé_sans_nom_10"/><linearGradient id="Dégradé_sans_nom_10-8" x1="102.55" y1="23.05" x2="85.53" y2="36.85" gradientTransform="matrix(1, 0, 0, 1, 0, 0)" xlink:href="#Dégradé_sans_nom_10"/><linearGradient id="Dégradé_sans_nom_10-9" x1="-37.87" y1="-149.13" x2="-33.89" y2="-127.66" gradientTransform="translate(126.03 211.65) rotate(3.59)" xlink:href="#Dégradé_sans_nom_10"/><linearGradient id="Dégradé_sans_nom_10-10" x1="290.4" y1="521.83" x2="308.23" y2="521.83" gradientTransform="translate(-282.48 -380.76) rotate(-6.85)" xlink:href="#Dégradé_sans_nom_10"/></defs><g id="Calque_2" data-name="Calque 2"><g id="Calque_1-2" data-name="Calque 1"><path d="M95.35,142.57A6.94,6.94,0,0,1,91.26,146l-8.59,2.72-14.78,4.69-29.13,9.24A7,7,0,0,1,30,158.13L1,66.79A7,7,0,0,1,5.56,58L54.92,42.35l3.14-1a7,7,0,0,1,8.78,4.55L82.73,96l12.63,39.79.45,1.44a6.86,6.86,0,0,1,.22.92A7,7,0,0,1,95.35,142.57Z" fill="#fff" stroke="#000" stroke-linecap="round" stroke-miterlimit="10" stroke-width="1.36"/><rect x="25.63" y="64.46" width="18.84" height="6.19" rx="1.8" transform="translate(-18.79 13.76) rotate(-17.6)" fill="none" stroke="#191919" stroke-miterlimit="10" stroke-width="1.86"/><line x1="27.42" y1="68.93" x2="28.58" y2="72.59" fill="none" stroke="#191919" stroke-linecap="round" stroke-miterlimit="10" stroke-width="0.93"/><line x1="30.35" y1="68" x2="31.51" y2="71.66" fill="none" stroke="#191919" stroke-linecap="round" stroke-miterlimit="10" stroke-width="0.93"/><line x1="33.28" y1="67.07" x2="34.44" y2="70.74" fill="none" stroke="#191919" stroke-linecap="round" stroke-miterlimit="10" stroke-width="0.93"/><line x1="36.21" y1="66.14" x2="37.37" y2="69.81" fill="none" stroke="#191919" stroke-linecap="round" stroke-miterlimit="10" stroke-width="0.93"/><line x1="39.14" y1="65.21" x2="40.3" y2="68.88" fill="none" stroke="#191919" stroke-linecap="round" stroke-miterlimit="10" stroke-width="0.93"/><line x1="42.07" y1="64.28" x2="43.24" y2="67.95" fill="none" stroke="#191919" stroke-linecap="round" stroke-miterlimit="10" stroke-width="0.93"/><path d="M51.05,74.91l8.45,26.63a2.82,2.82,0,0,1-1.83,3.54l-19.23,6.1a2.82,2.82,0,0,1-3.54-1.83L26.45,82.71a5.13,5.13,0,0,1,2-5.76,1.69,1.69,0,0,1,1.16-2L44,70.41a1.72,1.72,0,0,1,2.08.93A5.1,5.1,0,0,1,51.05,74.91Z" fill="#fff" stroke="#191919" stroke-miterlimit="10" stroke-width="0.77"/><rect x="29.98" y="83.08" width="25.81" height="18.32" transform="translate(-25.89 17.28) rotate(-17.6)" fill="url(#Dégradé_sans_nom_10)"/><rect x="41.07" y="87.66" width="4.37" height="11.1" rx="1.36" transform="matrix(0.95, -0.3, 0.3, 0.95, -26.16, 17.44)" fill="#fff"/><rect x="41.15" y="87.7" width="4.37" height="11.1" rx="1.36" transform="translate(119.11 23.75) rotate(72.4)" fill="#fff"/><path d="M51.05,74.91l8.45,26.63a2.82,2.82,0,0,1-1.83,3.54l-2.46.78A2.82,2.82,0,0,0,57,102.32L48.59,75.69a5.1,5.1,0,0,0-4.93-3.57,1.72,1.72,0,0,0-2.08-.93L44,70.41a1.72,1.72,0,0,1,2.08.93A5.1,5.1,0,0,1,51.05,74.91Z" opacity="0.31"/><path d="M51.31,75.71l8.45,26.64a2.81,2.81,0,0,1-1.83,3.53L38.69,112a2.81,2.81,0,0,1-3.53-1.83L26.71,83.52a5.12,5.12,0,0,1,2-5.76,1.73,1.73,0,0,1,1.16-2L44.3,71.22a1.71,1.71,0,0,1,2.08.93A5.11,5.11,0,0,1,51.31,75.71Z" fill="none" stroke="#191919" stroke-miterlimit="10" stroke-width="1.86"/><line x1="33.71" y1="134.15" x2="66.43" y2="123.77" fill="none" stroke="#686868" stroke-linecap="round" stroke-miterlimit="10" stroke-width="3.03"/><path d="M186.64,71.35l-31,90.66a7,7,0,0,1-8.88,4.34l-37.62-12.87-13.77-4.71-.72-.25a7,7,0,0,1-4.59-8c.07-.31.14-.62.24-.92l5.1-14.88L121.31,49a7,7,0,0,1,8.87-4.35l3.2,1.09,48.91,16.75A7,7,0,0,1,186.64,71.35Z" fill="#fff" stroke="#000" stroke-miterlimit="10" stroke-width="1.36"/><path d="M140.63,98.25a10.11,10.11,0,0,0,0,6.52,5.89,5.89,0,0,1-4.82.45l-.59-.2a5.91,5.91,0,0,1-3.67-7.49l2.78-8.12L144.75,93A10.23,10.23,0,0,0,140.63,98.25Z" stroke-miterlimit="10" stroke-width="1.85" fill="url(#Dégradé_sans_nom_10-2)" stroke="url(#Dégradé_sans_nom_10-3)"/><path d="M150.17,81.39l-2.78,8.12-11.75-4,2.78-8.12a5.9,5.9,0,0,1,7.49-3.67l.59.2A5.9,5.9,0,0,1,150.17,81.39Z" fill="none" stroke="#191919" stroke-miterlimit="10" stroke-width="1.85"/><line x1="143.46" y1="90.26" x2="133.08" y2="86.71" fill="none"/><path d="M154.72,110.23a8.49,8.49,0,0,1-9.78-3.41,6.77,6.77,0,0,1-.53-.91,8.53,8.53,0,0,1,2.9-10.81Z" fill="url(#Dégradé_sans_nom_10-4)"/><path d="M156.79,109.22,150,95.41l-.65-1.32a7.36,7.36,0,0,1,1-.26,8.5,8.5,0,0,1,6.42,15.39Z" fill="url(#Dégradé_sans_nom_10-5)"/><line x1="120.31" y1="128.69" x2="147.17" y2="137.88" fill="none" stroke="#686868" stroke-linecap="round" stroke-miterlimit="10" stroke-width="3.03"/><g opacity="0.25"><path d="M82.73,96l-.06,52.72-14.78,4.69H63.4c-4.76,0-8.6-3.37-8.6-7.5l.12-103.58,3.14-1a7,7,0,0,1,8.78,4.55Z"/><path d="M134.12,146c0,4.14-5.2,7.52-11.71,7.51h-13.3l-13.77-4.71,0-24L121.31,49a7,7,0,0,1,8.87-4.35l3.2,1.09.31,41.19,0,4.19.1,13.22.06,8,.15,21,0,5Z"/></g><path d="M129.92,43.09l-.11,99.15a7,7,0,0,1-7,7l-57.18-.07a6.85,6.85,0,0,1-3.15-.76,7,7,0,0,1-3.82-6.24L58.77,43a7,7,0,0,1,7-7l57.17.07A7,7,0,0,1,129.92,43.09Z" fill="#fff" stroke="#000" stroke-miterlimit="10" stroke-width="1.4"/><line x1="87.64" y1="122.53" x2="99.52" y2="122.54" fill="none" stroke="#686868" stroke-linecap="round" stroke-miterlimit="10" stroke-width="3.03"/><circle cx="94.88" cy="28.74" r="26.78" fill="#fff" stroke="#191919" stroke-miterlimit="10" stroke-width="3.92"/><path d="M94.18,40.18q.07,2.87.34,5.7" fill="url(#Dégradé_sans_nom_10-6)"/><path d="M91.58,40.18c0,1.91.17,3.81.34,5.7a2.73,2.73,0,0,0,.76,1.84,2.6,2.6,0,0,0,3.67,0,2.55,2.55,0,0,0,.76-1.84q-.26-2.84-.33-5.7A2.75,2.75,0,0,0,96,38.34a2.6,2.6,0,0,0-4.44,1.84Z" fill="url(#Dégradé_sans_nom_17)"/><path d="M97,18.07V12.26a2.7,2.7,0,0,0-.76-1.84,2.6,2.6,0,0,0-4.43,1.84v5.81a2.68,2.68,0,0,0,.76,1.84A2.6,2.6,0,0,0,97,18.07Z" fill="url(#Dégradé_sans_nom_10-7)"/><path d="M98.73,16.1c-3.49-.87-8.27-.76-10.42,2.63a9.53,9.53,0,0,0-1.15,4.83,5.28,5.28,0,0,0,2.72,4.76c2.46,1.54,5.7,1.66,7.92,3.21a3.57,3.57,0,0,1,1.52,2.55,2.17,2.17,0,0,1-1.14,2c-1.43.65-3.66.3-5.17.09a24.54,24.54,0,0,1-5.52-1.51,2.63,2.63,0,0,0-3.2,1.82,2.67,2.67,0,0,0,1.81,3.2,27.18,27.18,0,0,0,10.47,1.87A8.58,8.58,0,0,0,102,39.77a7.14,7.14,0,0,0,2.4-4.24,8.58,8.58,0,0,0-4.48-8.8,23,23,0,0,0-4.41-1.68c-.65-.2-1.31-.39-1.93-.65a9.51,9.51,0,0,0-1.28-.72c-.42-.06.23,0,.09.25s0-.24,0-.37c0-.32.05-.83.08-1a2.65,2.65,0,0,1,.43-1.23c1.11-.83,3.25-.5,4.49-.19,3.25.8,4.63-4.21,1.38-5Z" fill="url(#Dégradé_sans_nom_10-8)"/><path d="M107.69,69.68l-.57,5.94a.35.35,0,0,1-.39.32l-4.86-.47-.45,4.69a.35.35,0,0,1-.38.31l-6-.57a.36.36,0,0,1-.32-.38l.45-4.68-4.68-.45a.36.36,0,0,1-.32-.39l.57-6a.35.35,0,0,1,.39-.31l4.68.45.47-4.87a.35.35,0,0,1,.38-.31l6,.57A.35.35,0,0,1,103,64l-.47,4.86,4.86.47A.35.35,0,0,1,107.69,69.68Z" fill="url(#Dégradé_sans_nom_10-9)"/><path d="M77,92.8l4-4a6.87,6.87,0,0,1,4.48-2l5.61-.28a2.66,2.66,0,0,1,1.27.26L96,87.94a.85.85,0,0,0,.22,0l6.07.17A2.54,2.54,0,0,1,105,90.56h0a2.77,2.77,0,0,1-2.62,2.9l-6.74,1.25" fill="none" stroke="#191919" stroke-linecap="round" stroke-miterlimit="10" stroke-width="1.7"/><path d="M85.9,102.23l.35-.23a5.58,5.58,0,0,1,2.61-.92l14.78-1.28a3.81,3.81,0,0,0,2.17-.92l7-6.82.41-.5,4.66-7.33a1.76,1.76,0,0,0-.14-2.12,2.92,2.92,0,0,0-.76-.6,3.58,3.58,0,0,0-4.12.82l-3.14,3.13-.56.48-2.9,2.17" fill="none" stroke="#191919" stroke-linecap="round" stroke-miterlimit="10" stroke-width="1.7"/><path d="M73.9,93.27l12.26,12.5a1.07,1.07,0,0,1,0,1.51l-2.54,2.53a1.08,1.08,0,0,1-1.38.11L68,99.63a1.06,1.06,0,0,1-.15-1.6l4.46-4.74A1.08,1.08,0,0,1,73.9,93.27Z" fill="url(#Dégradé_sans_nom_10-10)"/></g></g></svg>