<svg xmlns="http://www.w3.org/2000/svg" xmlns:xlink="http://www.w3.org/1999/xlink" viewBox="0 0 148.56 165.8"><defs><linearGradient id="Dégradé_sans_nom_10" x1="818.26" y1="2858.57" x2="822.03" y2="2878.87" gradientTransform="translate(-2432.62 -1533.48) rotate(-41.41)" gradientUnits="userSpaceOnUse"><stop offset="0" stop-color="#439cdf"/><stop offset="0.62" stop-color="#435cd1"/><stop offset="1" stop-color="#4338ca"/></linearGradient><linearGradient id="Dégradé_sans_nom_10-2" x1="586.76" y1="3684.62" x2="603.62" y2="3684.62" gradientTransform="translate(-3179.56 -1697.58) rotate(-51.85)" xlink:href="#Dégradé_sans_nom_10"/><linearGradient id="Dégradé_sans_nom_10-3" x1="67.45" y1="26.72" x2="67.69" y2="26.72" gradientTransform="translate(2.89 3.71) rotate(0.07)" xlink:href="#Dégradé_sans_nom_10"/><linearGradient id="Dégradé_sans_nom_17" x1="70.44" y1="32.59" x2="70.44" y2="28.48" gradientUnits="userSpaceOnUse"><stop offset="0.02" stop-color="#4338ca"/><stop offset="1" stop-color="#4338ca"/></linearGradient><linearGradient id="Dégradé_sans_nom_10-4" x1="71.84" y1="9.64" x2="69.08" y2="11.87" gradientTransform="matrix(1, 0, 0, 1, 0, 0)" xlink:href="#Dégradé_sans_nom_10"/><linearGradient id="Dégradé_sans_nom_10-5" x1="76.25" y1="16.34" x2="64.18" y2="26.13" gradientTransform="matrix(1, 0, 0, 1, 0, 0)" xlink:href="#Dégradé_sans_nom_10"/></defs><g id="Calque_2" data-name="Calque 2"><g id="Calque_1-2" data-name="Calque 1"><polygon points="107.86 139.03 74.93 150.71 35.6 164.66 1.01 67.1 5.28 61.58 14.44 49.74 21.27 40.9 21.27 40.9 28.9 31.04 38.88 33.39 51.91 36.45 66.47 39.88 73.27 41.48 83.84 71.29 107.86 139.03" fill="#fff" stroke="#000" stroke-miterlimit="10" stroke-width="1.8"/><polygon points="107.86 139.03 74.93 150.71 12.21 77.97 21.27 40.9 21.27 40.9 28.9 31.04 38.88 33.39 76.89 60 83.84 71.29 107.86 139.03" opacity="0.26"/><polyline points="88.45 35.24 147.29 94.08 93.08 148.29 19.89 75.1 21.37 68.28 24.54 53.66 29.55 30.55 52.66 25.54 67.28 22.37 74.1 20.89 82.86 29.65" fill="#fcfcfc" stroke="#000" stroke-linecap="round" stroke-miterlimit="10" stroke-width="1.8"/><circle cx="50.41" cy="51.41" r="8.53" fill="none" stroke="#000" stroke-miterlimit="10" stroke-width="1.66"/><path d="M84.77,68.63,88.37,73a.32.32,0,0,1-.05.47l-3.56,2.94,2.83,3.43a.33.33,0,0,1,0,.47l-4.36,3.6a.33.33,0,0,1-.47,0l-2.83-3.43-3.44,2.83a.32.32,0,0,1-.46,0l-3.6-4.36a.33.33,0,0,1,0-.47l3.44-2.83L72.93,72a.32.32,0,0,1,0-.46l4.36-3.6a.33.33,0,0,1,.47,0l2.94,3.57,3.56-2.94A.32.32,0,0,1,84.77,68.63Z" fill="url(#Dégradé_sans_nom_10)"/><path d="M79.75,104.58l0-5.33a6.49,6.49,0,0,1,1.68-4.31L85,91a2.51,2.51,0,0,1,1-.68l3.14-1.66a1.09,1.09,0,0,0,.17-.13l4.18-3.94a2.4,2.4,0,0,1,3.39-.17h0a2.61,2.61,0,0,1,.18,3.69l-3.67,5.35" fill="none" stroke="#191919" stroke-linecap="round" stroke-miterlimit="10" stroke-width="1.61"/><path d="M92,105l.08-.39a5.19,5.19,0,0,1,1.14-2.37l9-10.73a3.59,3.59,0,0,0,.84-2.07l.15-9.27-.06-.61-1.78-8a1.68,1.68,0,0,0-1.51-1.33,2.67,2.67,0,0,0-.91.11,3.39,3.39,0,0,0-2.21,3.31v4.19l0,.7-.49,3.38" fill="none" stroke="#191919" stroke-linecap="round" stroke-miterlimit="10" stroke-width="1.61"/><path d="M78,107l16.55.16a1,1,0,0,1,1,1v3.39a1,1,0,0,1-.86,1l-16.36,2.61a1,1,0,0,1-1.17-1l-.19-6.15A1,1,0,0,1,78,107Z" fill="url(#Dégradé_sans_nom_10-2)"/><path d="M46.52,90l-2.89-2.89a3.19,3.19,0,0,1,0-4.53L81,45.16a3.19,3.19,0,0,1,4.53,0l45,45a3.22,3.22,0,0,1,0,4.54L93.18,132.1a3.22,3.22,0,0,1-4.54,0l-40-40" fill="none" stroke="#191919" stroke-linecap="round" stroke-miterlimit="10" stroke-width="1.2"/><circle cx="67.82" cy="21.29" r="18.99" fill="#fff" stroke="#fff" stroke-miterlimit="10" stroke-width="2.78"/><path d="M67.32,29.4c0,1.35.11,2.7.23,4.05" fill="#fff"/><path d="M65.47,29.4q.06,2,.24,4.05a2,2,0,0,0,.54,1.3,1.85,1.85,0,0,0,2.61,0,1.82,1.82,0,0,0,.54-1.3c-.13-1.35-.2-2.7-.24-4.05a1.91,1.91,0,0,0-.54-1.3,1.87,1.87,0,0,0-1.3-.54A1.89,1.89,0,0,0,66,28.1a1.91,1.91,0,0,0-.54,1.3Z" fill="#fff"/><path d="M67.46,13.72V9.6" fill="#fff"/><path d="M69.3,13.72V9.6a1.84,1.84,0,0,0-3.68,0v4.12A2,2,0,0,0,66.15,15a1.85,1.85,0,0,0,3.15-1.31Z" fill="#fff"/><path d="M70.05,14.1A7.58,7.58,0,0,0,66.8,14a3.2,3.2,0,0,0-1.72.75,3.83,3.83,0,0,0-.88,2.58,2.42,2.42,0,0,0,.14,1.28,2,2,0,0,0,.77.77c1.85,1.21,4.33,1.23,6.06,2.6a4.17,4.17,0,0,1,1.63,3.14,3.37,3.37,0,0,1-1.7,3,5.21,5.21,0,0,1-2.47.46,18.12,18.12,0,0,1-6.55-1.26" fill="#fff"/><path d="M70.54,12.33c-2.47-.62-5.86-.54-7.38,1.86a6.69,6.69,0,0,0-.82,3.43A3.75,3.75,0,0,0,64.27,21c1.74,1.09,4,1.18,5.62,2.28A2.53,2.53,0,0,1,71,25.08a1.53,1.53,0,0,1-.81,1.44,7.31,7.31,0,0,1-3.66.06,17.76,17.76,0,0,1-3.92-1.06,1.86,1.86,0,0,0-2.27,1.29,1.89,1.89,0,0,0,1.29,2.26A19.23,19.23,0,0,0,69,30.4a6.07,6.07,0,0,0,3.83-1.29,5.08,5.08,0,0,0,1.71-3,6.09,6.09,0,0,0-3.18-6.24,16.58,16.58,0,0,0-3.12-1.19c-.46-.14-.93-.28-1.37-.46A6.8,6.8,0,0,0,66,17.7c-.3,0,.17,0,.06.18s0-.17,0-.26,0-.59,0-.73a2,2,0,0,1,.31-.88c.79-.58,2.31-.35,3.18-.13,2.31.57,3.29-3,1-3.55Z" fill="#fff"/><circle cx="70.81" cy="20.38" r="18.99" fill="#fff" stroke="#191919" stroke-miterlimit="10" stroke-width="2.78"/><path d="M70.32,28.49c0,1.35.11,2.7.23,4.05" fill="url(#Dégradé_sans_nom_10-3)"/><path d="M68.47,28.49q.06,2,.24,4.05a1.91,1.91,0,0,0,.54,1.3,1.83,1.83,0,0,0,2.6,0,1.74,1.74,0,0,0,.54-1.3c-.12-1.35-.2-2.7-.23-4.05a2,2,0,0,0-.54-1.3,1.85,1.85,0,0,0-2.61,0,1.91,1.91,0,0,0-.54,1.3Z" fill="url(#Dégradé_sans_nom_17)"/><path d="M72.3,12.81V8.69a1.84,1.84,0,0,0-3.68,0v4.12a1.93,1.93,0,0,0,.54,1.31,1.87,1.87,0,0,0,1.3.54,1.89,1.89,0,0,0,1.85-1.85Z" fill="url(#Dégradé_sans_nom_10-4)"/><path d="M73.54,11.42c-2.48-.62-5.86-.54-7.39,1.86a6.9,6.9,0,0,0-.82,3.43,3.75,3.75,0,0,0,1.94,3.37c1.74,1.09,4,1.18,5.61,2.28A2.53,2.53,0,0,1,74,24.17a1.53,1.53,0,0,1-.81,1.44,7.35,7.35,0,0,1-3.67.06,17.68,17.68,0,0,1-3.91-1.06A1.86,1.86,0,0,0,63.3,25.9a1.88,1.88,0,0,0,1.29,2.26A19,19,0,0,0,72,29.49a6,6,0,0,0,3.83-1.29,5,5,0,0,0,1.7-3A6.08,6.08,0,0,0,74.37,19a16.42,16.42,0,0,0-3.13-1.19,13.77,13.77,0,0,1-1.37-.46,8,8,0,0,0-.9-.51c-.3,0,.16,0,.06.18s0-.17,0-.26a6.79,6.79,0,0,1,0-.73,1.89,1.89,0,0,1,.31-.88c.79-.58,2.3-.35,3.18-.13,2.3.57,3.29-3,1-3.55Z" fill="url(#Dégradé_sans_nom_10-5)"/><path d="M24.26,26a4.63,4.63,0,0,1,3.46-6.1c3.55-.83,7.09,1.37,9.86,3.33,5.5,3.91,10.2,9.9,11.13,16.74.4,2.95.07,6.8-2.6,8.44-3,1.81-.25,6.47,2.72,4.65,8.48-5.2,5.55-17.74,1.11-24.61a36.5,36.5,0,0,0-9.8-10c-4.06-2.85-9-5-14-3.72a10,10,0,0,0-7,12.68c1.08,3.29,6.28,1.88,5.2-1.43Z"/></g></g></svg>