<svg xmlns="http://www.w3.org/2000/svg" xmlns:xlink="http://www.w3.org/1999/xlink" viewBox="0 0 132.25 122.46"><defs><linearGradient id="Dégradé_sans_nom_10" x1="104.82" y1="19.36" x2="23.55" y2="85.3" gradientUnits="userSpaceOnUse"><stop offset="0" stop-color="#439cdf"/><stop offset="0.62" stop-color="#435cd1"/><stop offset="1" stop-color="#4338ca"/></linearGradient><linearGradient id="Dégradé_sans_nom_10-2" x1="68.55" y1="1.23" x2="63.44" y2="5.38" xlink:href="#Dégradé_sans_nom_10"/></defs><g id="Calque_2" data-name="Calque 2"><g id="Calque_1-2" data-name="Calque 1"><circle cx="68.37" cy="76.27" r="14.22" fill="#fff" stroke="#191919" stroke-linecap="round" stroke-miterlimit="10" stroke-width="1.5"/><path d="M49.06,115.63a30.79,30.79,0,0,1-5.29-4.76.93.93,0,0,1-.22-.81A25.48,25.48,0,0,1,53.3,94.69a.92.92,0,0,1,1.06,0,25.48,25.48,0,0,0,28.36,0,.92.92,0,0,1,1.06,0,25.45,25.45,0,0,1,9.68,15,1,1,0,0,1-.21.82,32.63,32.63,0,0,1-24.88,11.18,33.66,33.66,0,0,1-13.79-2.92" fill="#fff" stroke="#191919" stroke-linecap="round" stroke-miterlimit="10" stroke-width="1.5"/><g opacity="0.22"><ellipse cx="99.43" cy="73.64" rx="10.98" ry="11.61" transform="translate(-4.69 6.8) rotate(-3.83)" fill="#191919"/><path d="M120.1,95.6a25.81,25.81,0,0,1-3.49,4.18.39.39,0,0,0-.1.08l-3.83,3-.1.08a24.8,24.8,0,0,1-10.25,3.58l-.38-.56L90.86,89.56a19,19,0,0,0,6,.24,18.69,18.69,0,0,0,8.26-3,19.58,19.58,0,0,0,2.66-1.36,18.78,18.78,0,0,0,2.63-2,.92.92,0,0,1,1.11-.11,21,21,0,0,1,8.75,11.35A1.16,1.16,0,0,1,120.1,95.6Z" fill="#191919"/></g><g opacity="0.22"><ellipse cx="34.76" cy="82.64" rx="9.48" ry="8.64" transform="translate(-49.2 114.08) rotate(-87.71)" fill="#191919"/><path d="M18.56,101.16a20.93,20.93,0,0,0,2.9,3.26l.08.06,3.13,2.27.08,0a18.75,18.75,0,0,0,8.19,2.51l.28-.47L41.28,95a14.14,14.14,0,0,1-4.66.45A14.4,14.4,0,0,1,30,93.34a15.11,15.11,0,0,1-4.29-2.5.69.69,0,0,0-.87,0,17.13,17.13,0,0,0-6.42,9.62A1,1,0,0,0,18.56,101.16Z" fill="#191919"/></g><circle cx="37.41" cy="83.37" r="9.24" fill="#fff" stroke="#191919" stroke-linecap="round" stroke-miterlimit="10" stroke-width="1.5"/><path d="M37.77,111h-.35a22,22,0,0,1-8.92-1.88l-.1-.06-3.48-2-.1-.07a20.38,20.38,0,0,1-3.28-2.93.93.93,0,0,1-.22-.83,16.55,16.55,0,0,1,6.11-9.67.93.93,0,0,1,1.08,0,16.55,16.55,0,0,0,18,0,.93.93,0,0,1,1.06,0c.27.21.53.43.79.65" fill="#fff" stroke="#191919" stroke-linecap="round" stroke-miterlimit="10" stroke-width="1.5"/><circle cx="97.22" cy="74.72" r="10.52" fill="#fff" stroke="#191919" stroke-linecap="round" stroke-miterlimit="10" stroke-width="1.5"/><path d="M87.54,87a18.89,18.89,0,0,0,18.94-.23,19.64,19.64,0,0,0,1.71-1.15.89.89,0,0,1,1-.08l0,0A18.89,18.89,0,0,1,117,96.17a1,1,0,0,1-.17.84,23.48,23.48,0,0,1-3.55,3.64l-.09.07-3.83,2.53-.09.06a24.64,24.64,0,0,1-6.91,2.42,23.78,23.78,0,0,1-3.08.4" fill="#fff" stroke="#191919" stroke-linecap="round" stroke-miterlimit="10" stroke-width="1.5"/><path d="M15.58,34C25.72,21.76,41.91,9.32,66.1,8.47h.05C114.4,10.16,130.85,58,130.85,58h-.06c-3.95-5.84-12-9.85-21.33-9.85-9.16,0-17.12,3.88-21.14,9.57a.62.62,0,0,1-.53.28h0a.65.65,0,0,1-.53-.28c-4-5.69-12-9.57-21.14-9.57S49,52,45,57.72a.65.65,0,0,1-.53.28h0a.62.62,0,0,1-.53-.28c-4-5.69-12-9.57-21.14-9.57S5.41,52.16,1.46,58H1.4a82.42,82.42,0,0,1,9.73-18.2" stroke="#191919" stroke-linecap="round" stroke-miterlimit="10" stroke-width="2" fill="url(#Dégradé_sans_nom_10)"/><path d="M69.12,3V4A2.83,2.83,0,0,1,69,5c-.93-.08-1.87-.13-2.83-.16s-2,.09-3,.17V3a3,3,0,0,1,6,0Z" fill="url(#Dégradé_sans_nom_10-2)"/></g></g></svg>