<svg xmlns="http://www.w3.org/2000/svg" xmlns:xlink="http://www.w3.org/1999/xlink" viewBox="0 0 163.3 134.84"><defs><linearGradient id="Dégradé_sans_nom_10" x1="134.91" y1="92.26" x2="135.24" y2="92.26" gradientTransform="translate(0.38 -0.49)" gradientUnits="userSpaceOnUse"><stop offset="0" stop-color="#439cdf"/><stop offset="0.62" stop-color="#435cd1"/><stop offset="1" stop-color="#4338ca"/></linearGradient><linearGradient id="Dégradé_sans_nom_17" x1="135.45" y1="94.56" x2="135.45" y2="89.03" gradientUnits="userSpaceOnUse"><stop offset="0.02" stop-color="#4338ca"/><stop offset="1" stop-color="#4338ca"/></linearGradient><linearGradient id="Dégradé_sans_nom_10-2" x1="137.3" y1="63.75" x2="133.6" y2="66.75" gradientTransform="matrix(1, 0, 0, 1, 0, 0)" xlink:href="#Dégradé_sans_nom_10"/><linearGradient id="Dégradé_sans_nom_10-3" x1="143.23" y1="72.75" x2="127.05" y2="85.88" gradientTransform="matrix(1, 0, 0, 1, 0, 0)" xlink:href="#Dégradé_sans_nom_10"/><linearGradient id="Dégradé_sans_nom_10-4" x1="61.63" y1="20.79" x2="47.38" y2="32.35" gradientTransform="matrix(1, 0, 0, 1, 0, 0)" xlink:href="#Dégradé_sans_nom_10"/><linearGradient id="Dégradé_sans_nom_10-5" x1="64.64" y1="38.59" x2="43.8" y2="55.5" gradientTransform="matrix(1, 0, 0, 1, 0, 0)" xlink:href="#Dégradé_sans_nom_10"/></defs><g id="Calque_2" data-name="Calque 2"><g id="Calque_1-2" data-name="Calque 1"><path d="M24.77,14.74v.93l-3.86,4.1L16.78,15l-4.13,4.81L8.52,15,5.08,18.72H1.41v-4c0-7.36,5.23-13.33,11.68-13.33a11,11,0,0,1,8.26,3.91A14.29,14.29,0,0,1,24.77,14.74Z" fill="#c4c4c4"/><path d="M29.29,19.9,25,15l-4,4.51-.19.22L16.67,15l-4,4.51-.19.22L8.38,15l-4,4.51" fill="none" stroke="#191919" stroke-miterlimit="10" stroke-width="2.82"/><path d="M1.41,19.9V14.74c0-7.36,5.23-13.33,11.68-13.33" fill="none" stroke="#191919" stroke-miterlimit="10" stroke-width="2.82"/><path d="M48.12,120.1a14.26,14.26,0,0,1-3.42,9.43,10.94,10.94,0,0,1-8.26,3.91,11.46,11.46,0,0,1-10-6.37,14.82,14.82,0,0,1-1.71-7V14.74a14.29,14.29,0,0,0-3.42-9.42,11,11,0,0,0-8.26-3.91H119.41c8.28,0,15,7.66,15,17.11V133.44" fill="#fff"/><line x1="134.4" y1="110.44" x2="134.4" y2="133.44" fill="#fff" stroke="#191919" stroke-linecap="round" stroke-miterlimit="10" stroke-width="2.82"/><path d="M47.37,124.82a13.56,13.56,0,0,1-2.67,4.71,10.94,10.94,0,0,1-8.26,3.91,11.46,11.46,0,0,1-10-6.37,14.82,14.82,0,0,1-1.71-7V14.74a14.29,14.29,0,0,0-3.42-9.42,11,11,0,0,0-8.26-3.91H119.41c8.28,0,15,7.66,15,17.11V45.3" fill="#fff" stroke="#191919" stroke-linecap="round" stroke-miterlimit="10" stroke-width="2.82"/><path d="M133.11,118.75v14.77H41.27c-5.22.63-10.55-.62-13.87-3.26-4.74-3.78-2.8-8.33-2.63-8.71v-2.8Z" opacity="0.17"/><path d="M149.85,118.45c0,8.28-5.88,15-13.13,15H36.45A10.47,10.47,0,0,0,41,132.39a13.34,13.34,0,0,0,3.71-2.86c2.58-2.83,3.75-7,4.27-9.93a3.69,3.69,0,0,1,3.57-3.12l95.36-.27A2.12,2.12,0,0,1,149.85,118.45Z" fill="#fff" stroke="#191919" stroke-miterlimit="10" stroke-width="2.82"/><g opacity="0.21"><circle cx="129.78" cy="78.16" r="25.49"/><path d="M129.12,89.05q.07,2.73.33,5.43"/><path d="M129.28,68V62.48"/><path d="M132.77,68.52a10.07,10.07,0,0,0-4.37-.19,4.33,4.33,0,0,0-2.31,1,5.25,5.25,0,0,0-1.18,3.47,3.4,3.4,0,0,0,.19,1.71,2.8,2.8,0,0,0,1,1c2.49,1.61,5.81,1.63,8.14,3.47a5.62,5.62,0,0,1,2.2,4.21,4.56,4.56,0,0,1-2.29,4.07,7,7,0,0,1-3.31.62,24.27,24.27,0,0,1-8.79-1.69"/></g><circle cx="135.94" cy="78.16" r="25.49" fill="#fff" stroke="#191919" stroke-miterlimit="10" stroke-width="3.73"/><path d="M135.29,89.05c.05,1.82.16,3.63.32,5.43" fill="url(#Dégradé_sans_nom_10)"/><path d="M132.82,89.05c.05,1.82.16,3.63.32,5.43a2.7,2.7,0,0,0,.72,1.75,2.51,2.51,0,0,0,1.75.72,2.48,2.48,0,0,0,2.48-2.47q-.26-2.7-.33-5.43a2.58,2.58,0,0,0-.72-1.74,2.46,2.46,0,0,0-3.5,0,2.47,2.47,0,0,0-.72,1.74Z" fill="url(#Dégradé_sans_nom_17)"/><path d="M137.92,68V62.48a2.47,2.47,0,0,0-4.94,0V68a2.54,2.54,0,0,0,.72,1.75A2.47,2.47,0,0,0,137.92,68Z" fill="url(#Dégradé_sans_nom_10-2)"/><path d="M139.6,66.13c-3.33-.82-7.88-.71-9.92,2.51a9.2,9.2,0,0,0-1.09,4.61,5,5,0,0,0,2.59,4.52c2.34,1.46,5.42,1.58,7.54,3a3.37,3.37,0,0,1,1.45,2.42,2.07,2.07,0,0,1-1.07,1.94c-1.37.63-3.49.29-4.93.09a23.53,23.53,0,0,1-5.26-1.42,2.49,2.49,0,0,0-3,1.73,2.53,2.53,0,0,0,1.73,3,25.49,25.49,0,0,0,10,1.77,8.2,8.2,0,0,0,5.14-1.73,6.75,6.75,0,0,0,2.28-4,8.16,8.16,0,0,0-4.26-8.37,21.77,21.77,0,0,0-4.2-1.6c-.62-.19-1.24-.37-1.84-.62a10.35,10.35,0,0,0-1.21-.68c-.4,0,.21,0,.08.24s0-.23,0-.34c0-.31,0-.8.07-1a2.54,2.54,0,0,1,.41-1.17c1.05-.79,3.1-.48,4.27-.19,3.09.76,4.41-4,1.32-4.77Z" fill="url(#Dégradé_sans_nom_10-3)"/><ellipse cx="54.51" cy="26.57" rx="9" ry="9.43" fill="url(#Dégradé_sans_nom_10-4)"/><path d="M42.29,52.66a20,20,0,0,1-3.54-3.39,17,17,0,0,1,6.56-10.74,15.52,15.52,0,0,0,18.61,0A16.92,16.92,0,0,1,70.44,49a20.27,20.27,0,0,1-15.93,7.65,20.49,20.49,0,0,1-8.73-1.94" fill="url(#Dégradé_sans_nom_10-5)"/><line x1="86.42" y1="24.49" x2="112.85" y2="24.49" fill="none" stroke="#474747" stroke-miterlimit="10" stroke-width="3.52"/><line x1="86.42" y1="38.58" x2="101.39" y2="38.58" fill="none" stroke="#474747" stroke-miterlimit="10" stroke-width="3.52"/><line x1="37.97" y1="79.55" x2="52.94" y2="79.55" fill="none" stroke="#474747" stroke-miterlimit="10" stroke-width="3.52"/><line x1="62.63" y1="79.55" x2="77.61" y2="79.55" fill="none" stroke="#474747" stroke-miterlimit="10" stroke-width="3.52"/><line x1="82.89" y1="79.55" x2="97.87" y2="79.55" fill="none" stroke="#474747" stroke-miterlimit="10" stroke-width="3.52"/><line x1="54.71" y1="90.12" x2="39.73" y2="90.12" fill="none" stroke="#474747" stroke-miterlimit="10" stroke-width="1.76"/><line x1="80.25" y1="103.33" x2="53.82" y2="103.33" fill="none" stroke="#474747" stroke-miterlimit="10" stroke-width="1.76"/><line x1="84.66" y1="90.12" x2="59.11" y2="90.12" fill="none" stroke="#474747" stroke-miterlimit="10" stroke-width="1.76"/></g></g></svg>