<svg xmlns="http://www.w3.org/2000/svg" xmlns:xlink="http://www.w3.org/1999/xlink" viewBox="0 0 159.81 185.7"><defs><linearGradient id="Dégradé_sans_nom_10" x1="127.1" y1="142.84" x2="127.41" y2="142.84" gradientTransform="translate(0.38 -0.49)" gradientUnits="userSpaceOnUse"><stop offset="0" stop-color="#439cdf"/><stop offset="0.62" stop-color="#435cd1"/><stop offset="1" stop-color="#4338ca"/></linearGradient><linearGradient id="Dégradé_sans_nom_17" x1="127.63" y1="145.09" x2="127.63" y2="139.67" gradientUnits="userSpaceOnUse"><stop offset="0.02" stop-color="#4338ca"/><stop offset="1" stop-color="#4338ca"/></linearGradient><linearGradient id="Dégradé_sans_nom_10-2" x1="129.44" y1="114.87" x2="125.82" y2="117.82" gradientTransform="matrix(1, 0, 0, 1, 0, 0)" xlink:href="#Dégradé_sans_nom_10"/><linearGradient id="Dégradé_sans_nom_10-3" x1="135.26" y1="123.7" x2="119.39" y2="136.58" gradientTransform="matrix(1, 0, 0, 1, 0, 0)" xlink:href="#Dégradé_sans_nom_10"/><linearGradient id="Dégradé_sans_nom_10-4" x1="42.93" y1="31.42" x2="27.12" y2="44.25" gradientTransform="matrix(1, 0, 0, 1, 0, 0)" xlink:href="#Dégradé_sans_nom_10"/><linearGradient id="Dégradé_sans_nom_10-5" x1="46.27" y1="51.17" x2="23.14" y2="69.94" gradientTransform="matrix(1, 0, 0, 1, 0, 0)" xlink:href="#Dégradé_sans_nom_10"/></defs><g id="Calque_2" data-name="Calque 2"><g id="Calque_1-2" data-name="Calque 1"><path d="M134,100.66a25,25,0,0,0-6.21.47l4.75-93.26-.4,0a5.56,5.56,0,0,1,0,.58,8.9,8.9,0,1,1-17.77-.9,4.86,4.86,0,0,1,0-.56c-.72,0-1.45-.07-2.19-.11,0,.18,0,.36,0,.56a8.9,8.9,0,1,1-17.77-.91c0-.18,0-.36,0-.55l-2.18-.11c0,.19,0,.37,0,.55a8.9,8.9,0,1,1-17.77-.9A4.53,4.53,0,0,1,74.51,5l-2.2-.11c0,.18,0,.35,0,.53a8.9,8.9,0,1,1-17.77-.91A4.4,4.4,0,0,1,54.59,4l-2.2-.11v.51a8.9,8.9,0,1,1-17.78-.9c0-.16,0-.33,0-.5l-2.18-.11v.5a9,9,0,0,1-9.36,8.69,9,9,0,0,1-8.42-9.59c0-.16,0-.33,0-.49h0L5.77,177.52l.32,0a5.3,5.3,0,0,1,0-.69,9,9,0,0,1,9.35-8.68,9,9,0,0,1,8.42,9.58c0,.24,0,.48-.06.73l2.2.11c0-.25,0-.49,0-.73a8.9,8.9,0,1,1,17.77.91c0,.25,0,.51-.07.75l2.22.11c0-.24,0-.5,0-.75a8.9,8.9,0,1,1,17.78.9c0,.28,0,.53-.08.79l2.22.11c0-.26,0-.51,0-.79a8.9,8.9,0,1,1,17.77.9c0,.29,0,.56-.08.83l2.24.11a5.71,5.71,0,0,1,0-.83,8.9,8.9,0,1,1,17.78.91,8.08,8.08,0,0,1-.09.86l2.23.12c0-.28,0-.58,0-.87a8.9,8.9,0,1,1,17.78.9,8.57,8.57,0,0,1-.09.9h.15v-.27l1.63-31.93a23.72,23.72,0,0,0,6.12,1.09c14,.71,25.87-10.34,26.6-24.69S147.91,101.37,134,100.66Zm-2.54,37.05,0,5.55C131.37,141.41,131.36,139.56,131.41,137.71Zm5.12-1.53a6.7,6.7,0,0,1-3.32.47,23.15,23.15,0,0,1-7.2-1.56c-.48-.18-1-.39-1.43-.61l1.59-2.41,4.75-7.25c2.08.94,4.42,1.4,6.12,2.93a5.8,5.8,0,0,1,2,4.41A4.67,4.67,0,0,1,136.53,136.18Z" stroke="#000" stroke-miterlimit="10" stroke-width="3.76" opacity="0.2"/><path d="M126.43,131.89v2.91c-.49-.15-1-.33-1.45-.52Z" stroke="#000" stroke-miterlimit="10" stroke-width="3.66"/><path d="M131.88,137.05l.32,5.32C132,140.6,131.92,138.83,131.88,137.05Z" stroke="#000" stroke-miterlimit="10" stroke-width="3.66"/><path d="M139.09,131.35a4.45,4.45,0,0,1-2.24,4,6.67,6.67,0,0,1-3.25.61,23.23,23.23,0,0,1-7.17-1.14c-.49-.15-1-.33-1.45-.52l1.45-2.39,4.32-7.19c2.1.8,4.43,1.13,6.19,2.52A5.52,5.52,0,0,1,139.09,131.35Z" stroke="#000" stroke-miterlimit="10" stroke-width="3.66"/><path d="M132.2,142.37c-.17-1.77-.28-3.54-.32-5.32Z"/><path d="M134.62,142.37c-.16-1.77-.27-3.54-.32-5.32h-4.85l.28,4.65,0,.67a2.61,2.61,0,0,0,.71,1.72,2.43,2.43,0,0,0,3.43,0,2.43,2.43,0,0,0,.71-1.72l-.28-4.65,0-.67a2.49,2.49,0,0,0-.71-1.71,2.43,2.43,0,0,0-4.14,1.71c.05,1.78.15,3.55.32,5.32a2.61,2.61,0,0,0,.71,1.72,2.43,2.43,0,0,0,3.43,0A2.39,2.39,0,0,0,134.62,142.37Z"/><path d="M132,116.41V111" fill="none" stroke="#000" stroke-miterlimit="10" stroke-width="1.62"/><path d="M139.09,131.35a4.45,4.45,0,0,1-2.24,4,6.67,6.67,0,0,1-3.25.61,23.23,23.23,0,0,1-7.17-1.14c-.49-.15-1-.33-1.45-.52l1.45-2.39,4.32-7.19c2.1.8,4.43,1.13,6.19,2.52A5.52,5.52,0,0,1,139.09,131.35Z"/><path d="M136.67,131.35c0,.14,0,.28,0,.42,0-.3,0-.31,0,0,0,.1-.32.9-.09.41a5.2,5.2,0,0,1-.42.72c.31-.43-.23.2-.32.27.4-.34-.3.15-.41.2.39-.17-.46.09-.55.11h-.06a3.87,3.87,0,0,1-.48,0c-.33,0-.66,0-1,0-.7,0-1.39,0-2.08-.11l-.52-.06c.21,0,.17,0-.13,0l-1-.18a25.44,25.44,0,0,1-4-1.18l1.45,3.56,5.77-9.59L130.11,127c.84.31,1.7.56,2.55.82.41.13.81.26,1.21.41,0,0,.69.31.28.1l.61.31c.2.11.39.24.58.36.36.23,0-.06.13.1l.4.38c.09.1.39.54.17.2.12.18.23.37.34.56.32.54-.08-.38.1.22.07.21.12.42.18.63.13.51,0-.35,0,.22a2.43,2.43,0,1,0,4.85,0,8.25,8.25,0,0,0-3.73-6.5c-1.91-1.3-4.27-1.69-6.39-2.49a2.44,2.44,0,0,0-2.74,1.12q-2.89,4.78-5.77,9.58a2.46,2.46,0,0,0,1.45,3.56,24.32,24.32,0,0,0,10.22,1.72,7.39,7.39,0,0,0,5-2,7.19,7.19,0,0,0,2-5,2.43,2.43,0,0,0-4.85,0Z"/><path d="M117.62,12.4V181.59h-.15a8,8,0,0,0,0-.86,8.78,8.78,0,0,0-5.77-8.25,8.55,8.55,0,0,0-3-.54,8.79,8.79,0,0,0-8.79,8.79,7.56,7.56,0,0,0,0,.83H97.77a7.56,7.56,0,0,0,0-.83,8.79,8.79,0,1,0-17.57,0,6.85,6.85,0,0,0,0,.79H78.07a6.85,6.85,0,0,0,0-.79,8.79,8.79,0,0,0-17.58,0c0,.26,0,.51,0,.75h-2.2a6.06,6.06,0,0,0,0-.75,8.79,8.79,0,1,0-17.57,0c0,.24,0,.49,0,.72h-2.2c0-.23,0-.48,0-.72a8.78,8.78,0,1,0-17.56,0c0,.23,0,.46,0,.69H19q0-.34,0-.69a8.79,8.79,0,1,0-17.57,0,4.86,4.86,0,0,0,0,.66H1.15V12.49h0c0,.15,0,.31,0,.46a8.79,8.79,0,1,0,17.57,0c0-.15,0-.31,0-.48h2.15c0,.17,0,.33,0,.48a8.79,8.79,0,1,0,17.58,0c0-.16,0-.33,0-.49h2.17a4,4,0,0,0,0,.49,8.79,8.79,0,1,0,17.57,0,4.52,4.52,0,0,0,0-.51h2.17a4.43,4.43,0,0,0,0,.51,8.79,8.79,0,1,0,17.57,0c0-.17,0-.35,0-.52H80c0,.17,0,.35,0,.52a8.79,8.79,0,1,0,17.57,0,4.61,4.61,0,0,0,0-.53h2.17a4.61,4.61,0,0,0,0,.53,8.79,8.79,0,0,0,8.79,8.8,8.89,8.89,0,0,0,3.61-.78h0a8.78,8.78,0,0,0,5.13-7.19,7.38,7.38,0,0,0,0-.82,5.06,5.06,0,0,0,0-.55Z" fill="#fff"/><path d="M117.62,13.8V181.59h-.11a8,8,0,0,0,0-.86c0-3.79-1.7-7-4.07-8.25L113.7,21h0c2-1.27,3.41-4,3.62-7.19Z" opacity="0.18"/><path d="M117.62,158.78v22.81h-.16a6.11,6.11,0,0,0,.05-.86,8.79,8.79,0,1,0-17.57,0,7.56,7.56,0,0,0,0,.83H97.77a7.56,7.56,0,0,0,0-.83,8.79,8.79,0,1,0-17.57,0,6.85,6.85,0,0,0,0,.79H78.07a6.85,6.85,0,0,0,0-.79,8.79,8.79,0,1,0-17.57,0c0,.26,0,.51,0,.76H58.38c0-.25,0-.5,0-.76a8.79,8.79,0,1,0-17.57,0c0,.24,0,.49,0,.72h-2.2a5.69,5.69,0,0,0,0-.72,8.79,8.79,0,1,0-17.58,0c0,.23,0,.46,0,.69H19q0-.34,0-.69a8.79,8.79,0,1,0-17.57,0,4.64,4.64,0,0,0,0,.65H1.15V12.49h0c0,.15,0,.31,0,.47a8.79,8.79,0,0,0,17.57,0c0-.16,0-.33,0-.49h2.15c0,.16,0,.33,0,.49a8.79,8.79,0,0,0,17.58,0c0-.17,0-.34,0-.5h2.17a4.1,4.1,0,0,0,0,.5,8.79,8.79,0,0,0,17.57,0c0-.18,0-.34,0-.51h2.16c0,.17,0,.34,0,.52a8.79,8.79,0,0,0,17.57,0c0-.18,0-.35,0-.53H80c0,.18,0,.35,0,.53a8.79,8.79,0,0,0,17.57,0c0-.19,0-.37,0-.54h2.16a4.7,4.7,0,0,0,0,.54,8.79,8.79,0,0,0,17.57,0c0-.19,0-.38,0-.56h.4v88.07" fill="none" stroke="#191919" stroke-linecap="round" stroke-miterlimit="10" stroke-width="2.3"/><line x1="15.8" y1="86.2" x2="80.73" y2="86.2" fill="none" stroke="#474747" stroke-miterlimit="10" stroke-width="3.45" opacity="0.81"/><line x1="61.2" y1="35.06" x2="89.35" y2="35.06" fill="none" stroke="#474747" stroke-miterlimit="10" stroke-width="2.3"/><line x1="61.2" y1="44.26" x2="74.99" y2="44.26" fill="none" stroke="#474747" stroke-miterlimit="10" stroke-width="2.3"/><line x1="61.2" y1="51.73" x2="74.99" y2="51.73" fill="none" stroke="#474747" stroke-miterlimit="10" stroke-width="2.3"/><line x1="89.93" y1="86.2" x2="104.87" y2="86.2" fill="none" stroke="#474747" stroke-miterlimit="10" stroke-width="3.45"/><line x1="15.8" y1="98.85" x2="54.3" y2="98.85" fill="none" stroke="#474747" stroke-miterlimit="10" stroke-width="3.45" opacity="0.81"/><line x1="89.93" y1="98.85" x2="104.87" y2="98.85" fill="none" stroke="#474747" stroke-miterlimit="10" stroke-width="3.45"/><line x1="15.8" y1="111.49" x2="70.39" y2="111.49" fill="none" stroke="#474747" stroke-miterlimit="10" stroke-width="3.45" opacity="0.81"/><line x1="89.93" y1="111.49" x2="104.87" y2="111.49" fill="none" stroke="#474747" stroke-miterlimit="10" stroke-width="3.45"/><path d="M17,128.05a1.73,1.73,0,0,0,0-3.45,1.73,1.73,0,0,0,0,3.45Z" fill="#262626"/><path d="M26.21,128.05a1.73,1.73,0,0,0,0-3.45,1.73,1.73,0,0,0,0,3.45Z" fill="#262626"/><path d="M35.41,128.05a1.73,1.73,0,0,0,0-3.45,1.73,1.73,0,0,0,0,3.45Z" fill="#262626"/><path d="M44.6,128.05a1.73,1.73,0,0,0,0-3.45,1.73,1.73,0,0,0,0,3.45Z" fill="#262626"/><path d="M53.79,128.05a1.73,1.73,0,0,0,0-3.45,1.73,1.73,0,0,0,0,3.45Z" fill="#262626"/><path d="M63,128.05a1.73,1.73,0,0,0,0-3.45,1.73,1.73,0,0,0,0,3.45Z" fill="#262626"/><path d="M72.18,128.05a1.73,1.73,0,0,0,0-3.45,1.73,1.73,0,0,0,0,3.45Z" fill="#262626"/><path d="M81.38,128.05a1.73,1.73,0,0,0,0-3.45,1.73,1.73,0,0,0,0,3.45Z" fill="#262626"/><path d="M90.57,128.05a1.73,1.73,0,0,0,0-3.45,1.73,1.73,0,0,0,0,3.45Z" fill="#262626"/><path d="M99.76,128.05a1.73,1.73,0,0,0,0-3.45,1.73,1.73,0,0,0,0,3.45Z" fill="#262626"/><line x1="16.95" y1="134.47" x2="16.95" y2="154.01" fill="none" stroke="#262626" stroke-miterlimit="10" stroke-width="1.15"/><line x1="28.44" y1="134.47" x2="28.44" y2="154.01" fill="none" stroke="#262626" stroke-miterlimit="10" stroke-width="1.15"/><line x1="39.94" y1="134.47" x2="39.94" y2="154.01" fill="none" stroke="#262626" stroke-miterlimit="10" stroke-width="1.15"/><line x1="51.43" y1="134.47" x2="51.43" y2="154.01" fill="none" stroke="#262626" stroke-miterlimit="10" stroke-width="1.15"/><line x1="38.21" y1="134.47" x2="38.21" y2="154.01" fill="none" stroke="#262626" stroke-miterlimit="10" stroke-width="1.15"/><line x1="76.14" y1="134.47" x2="76.14" y2="154.01" fill="none" stroke="#262626" stroke-miterlimit="10" stroke-width="1.15"/><line x1="100.27" y1="134.47" x2="100.27" y2="154.01" fill="none" stroke="#262626" stroke-miterlimit="10" stroke-width="3.19"/><line x1="62.92" y1="134.47" x2="62.92" y2="154.01" fill="none" stroke="#262626" stroke-miterlimit="10" stroke-width="1.15"/><line x1="74.41" y1="134.47" x2="74.41" y2="154.01" fill="none" stroke="#262626" stroke-miterlimit="10" stroke-width="1.15"/><line x1="85.91" y1="134.47" x2="85.91" y2="154.01" fill="none" stroke="#262626" stroke-miterlimit="10" stroke-width="1.15"/><line x1="97.4" y1="134.47" x2="97.4" y2="154.01" fill="none" stroke="#262626" stroke-miterlimit="10" stroke-width="1.15"/><line x1="22.7" y1="134.47" x2="22.7" y2="154.01" fill="none" stroke="#262626" stroke-miterlimit="10" stroke-width="4.4"/><line x1="32.75" y1="134.47" x2="32.75" y2="154.01" fill="none" stroke="#262626" stroke-miterlimit="10" stroke-width="6.13"/><line x1="43.67" y1="134.47" x2="43.67" y2="154.01" fill="none" stroke="#262626" stroke-miterlimit="10" stroke-width="4.15"/><line x1="55.74" y1="134.47" x2="55.74" y2="154.01" fill="none" stroke="#262626" stroke-miterlimit="10" stroke-width="5.05"/><line x1="68.95" y1="134.47" x2="68.95" y2="154.01" fill="none" stroke="#262626" stroke-miterlimit="10" stroke-width="6.13"/><line x1="81.6" y1="134.47" x2="81.6" y2="154.01" fill="none" stroke="#262626" stroke-miterlimit="10" stroke-width="5.05"/><line x1="90.79" y1="134.47" x2="90.79" y2="154.01" fill="none" stroke="#262626" stroke-miterlimit="10" stroke-width="3.54"/><g opacity="0.22"><path d="M121.72,139.69c0,1.78.16,3.56.32,5.33"/><path d="M119.3,139.69c0,1.78.15,3.56.32,5.33a2.61,2.61,0,0,0,.71,1.71,2.43,2.43,0,0,0,3.43,0,2.37,2.37,0,0,0,.71-1.71c-.16-1.77-.27-3.55-.32-5.33a2.54,2.54,0,0,0-.71-1.71,2.43,2.43,0,0,0-4.14,1.71Z"/><path d="M121.88,119.05v-5.42"/><path d="M124.31,119.05v-5.42a2.49,2.49,0,0,0-.71-1.71,2.43,2.43,0,0,0-4.14,1.71v5.42a2.5,2.5,0,0,0,.71,1.72,2.43,2.43,0,0,0,4.14-1.72Z"/><path d="M125.3,119.55a10.13,10.13,0,0,0-4.28-.19,4.31,4.31,0,0,0-2.27,1,5.11,5.11,0,0,0-1.15,3.4,3.28,3.28,0,0,0,.18,1.68,2.85,2.85,0,0,0,1,1c2.44,1.58,5.7,1.6,8,3.4a5.52,5.52,0,0,1,2.15,4.13,4.48,4.48,0,0,1-2.24,4,6.94,6.94,0,0,1-3.25.61,23.72,23.72,0,0,1-8.62-1.66"/><path d="M126,117.21c-3.26-.8-7.72-.7-9.72,2.47a8.93,8.93,0,0,0-1.08,4.51,4.94,4.94,0,0,0,2.55,4.44c2.29,1.43,5.31,1.54,7.39,3a3.27,3.27,0,0,1,1.42,2.37,2,2,0,0,1-1.05,1.91c-1.34.61-3.42.28-4.83.08a23,23,0,0,1-5.16-1.39,2.44,2.44,0,0,0-3,1.69,2.49,2.49,0,0,0,1.69,3A25.14,25.14,0,0,0,124,141a8,8,0,0,0,5-1.69,6.66,6.66,0,0,0,2.23-4,8,8,0,0,0-4.18-8.21,21.56,21.56,0,0,0-4.12-1.56c-.6-.19-1.22-.36-1.8-.61a10.88,10.88,0,0,0-1.19-.67c-.39-.05.21,0,.08.24s0-.23,0-.34c0-.3,0-.78.07-1a2.39,2.39,0,0,1,.4-1.16c1-.77,3-.47,4.19-.18,3,.75,4.32-3.93,1.29-4.68Z"/></g><circle cx="128.11" cy="129.01" r="25" fill="#fff" stroke="#191919" stroke-miterlimit="10" stroke-width="3.66"/><path d="M127.47,139.69c0,1.78.16,3.56.32,5.33" fill="url(#Dégradé_sans_nom_10)"/><path d="M125.05,139.69c0,1.78.15,3.56.31,5.33a2.61,2.61,0,0,0,.71,1.71,2.45,2.45,0,0,0,1.72.71,2.41,2.41,0,0,0,1.71-.71,2.33,2.33,0,0,0,.71-1.71c-.16-1.77-.26-3.55-.31-5.33a2.54,2.54,0,0,0-.71-1.71,2.49,2.49,0,0,0-1.72-.71,2.41,2.41,0,0,0-1.71.71,2.45,2.45,0,0,0-.71,1.71Z" fill="url(#Dégradé_sans_nom_17)"/><path d="M130.05,119.05v-5.42a2.49,2.49,0,0,0-.71-1.71,2.43,2.43,0,0,0-4.14,1.71v5.42a2.42,2.42,0,0,0,2.43,2.43,2.47,2.47,0,0,0,2.42-2.43Z" fill="url(#Dégradé_sans_nom_10-2)"/><path d="M131.69,117.21c-3.26-.8-7.72-.7-9.72,2.47a8.92,8.92,0,0,0-1.07,4.51,5,5,0,0,0,2.54,4.44c2.29,1.43,5.32,1.54,7.4,3a3.3,3.3,0,0,1,1.42,2.37,2.06,2.06,0,0,1-1.06,1.91c-1.34.61-3.41.28-4.82.08a23,23,0,0,1-5.16-1.39,2.46,2.46,0,0,0-3,1.69,2.49,2.49,0,0,0,1.7,3A25.07,25.07,0,0,0,129.7,141a8,8,0,0,0,5-1.69,6.67,6.67,0,0,0,2.24-4,8,8,0,0,0-4.19-8.21,21.47,21.47,0,0,0-4.11-1.56c-.61-.19-1.22-.36-1.81-.61a9.29,9.29,0,0,0-1.19-.67c-.39-.05.22,0,.08.24s0-.23,0-.34c0-.3,0-.78.06-1a2.62,2.62,0,0,1,.4-1.16c1-.77,3-.47,4.2-.18,3,.75,4.32-3.93,1.28-4.68Z" fill="url(#Dégradé_sans_nom_10-3)"/><ellipse cx="35.02" cy="37.83" rx="9.99" ry="10.46" fill="url(#Dégradé_sans_nom_10-4)"/><path d="M21.46,66.79A23,23,0,0,1,17.53,63,18.89,18.89,0,0,1,24.81,51.1a17.25,17.25,0,0,0,20.67,0,18.82,18.82,0,0,1,7.23,11.67,22.74,22.74,0,0,1-27.37,6.34" fill="url(#Dégradé_sans_nom_10-5)"/><path d="M49.16,60.2v3.07a.36.36,0,0,1-.37.37H46.17v2.52a.36.36,0,0,1-.37.36H42.73a.36.36,0,0,1-.37-.36V63.64H39.84a.36.36,0,0,1-.36-.37V60.2a.36.36,0,0,1,.36-.37h2.52V57.21a.37.37,0,0,1,.37-.37H45.8a.37.37,0,0,1,.37.37v2.62h2.62A.36.36,0,0,1,49.16,60.2Z" fill="#fff"/></g></g></svg>