<svg xmlns="http://www.w3.org/2000/svg" xmlns:xlink="http://www.w3.org/1999/xlink" viewBox="0 0 176.67 186.44"><defs><linearGradient id="Dégradé_sans_nom_10" x1="310.05" y1="265.38" x2="294.17" y2="278.27" gradientTransform="translate(-269.15 -228.78) rotate(-1.1)" gradientUnits="userSpaceOnUse"><stop offset="0" stop-color="#439cdf"/><stop offset="0.62" stop-color="#435cd1"/><stop offset="1" stop-color="#4338ca"/></linearGradient><linearGradient id="Dégradé_sans_nom_10-2" x1="313.37" y1="285.31" x2="290.18" y2="304.13" gradientTransform="translate(-295.82 -194.42) rotate(-7.23)" xlink:href="#Dégradé_sans_nom_10"/><linearGradient id="Dégradé_sans_nom_10-3" x1="148.83" y1="144.5" x2="149.14" y2="144.5" gradientTransform="translate(0.38 -0.49)" xlink:href="#Dégradé_sans_nom_10"/><linearGradient id="Dégradé_sans_nom_17" x1="149.36" y1="146.75" x2="149.36" y2="141.33" gradientUnits="userSpaceOnUse"><stop offset="0.02" stop-color="#4338ca"/><stop offset="1" stop-color="#4338ca"/></linearGradient><linearGradient id="Dégradé_sans_nom_10-4" x1="151.17" y1="116.53" x2="147.55" y2="119.47" gradientTransform="matrix(1, 0, 0, 1, 0, 0)" xlink:href="#Dégradé_sans_nom_10"/><linearGradient id="Dégradé_sans_nom_10-5" x1="156.99" y1="125.36" x2="141.12" y2="138.24" gradientTransform="matrix(1, 0, 0, 1, 0, 0)" xlink:href="#Dégradé_sans_nom_10"/></defs><g id="Calque_2" data-name="Calque 2"><g id="Calque_1-2" data-name="Calque 1"><path d="M153.61,138.71l.32,5.32C153.76,142.26,153.65,140.49,153.61,138.71Z" stroke="#000" stroke-miterlimit="10" stroke-width="3.66"/><path d="M160.82,133a4.45,4.45,0,0,1-2.24,4,6.67,6.67,0,0,1-3.25.61,23,23,0,0,1-7.17-1.15c-.49-.15-1-.32-1.45-.51l1.45-2.39,4.32-7.19c2.1.8,4.43,1.13,6.19,2.52A5.51,5.51,0,0,1,160.82,133Z" stroke="#000" stroke-miterlimit="10" stroke-width="3.66"/><path d="M153.93,144c-.17-1.77-.28-3.54-.32-5.32Z"/><path d="M156.35,144c-.16-1.77-.27-3.54-.31-5.32h-4.86l.28,4.65,0,.67a2.59,2.59,0,0,0,.71,1.71,2.45,2.45,0,0,0,1.72.71,2.42,2.42,0,0,0,2.42-2.42l-.27-4.65,0-.67a2.61,2.61,0,0,0-.71-1.72,2.54,2.54,0,0,0-1.72-.71,2.47,2.47,0,0,0-2.43,2.43c0,1.78.16,3.55.32,5.32a2.59,2.59,0,0,0,.71,1.71,2.45,2.45,0,0,0,1.72.71,2.41,2.41,0,0,0,1.71-.71A2.35,2.35,0,0,0,156.35,144Z"/><path d="M153.76,118.07v-5.42" fill="none" stroke="#000" stroke-miterlimit="10" stroke-width="1.62"/><path d="M160.82,133a4.45,4.45,0,0,1-2.24,4,6.67,6.67,0,0,1-3.25.61,23,23,0,0,1-7.17-1.15c-.49-.15-1-.32-1.45-.51l1.45-2.39,4.32-7.19c2.1.8,4.43,1.13,6.19,2.52A5.51,5.51,0,0,1,160.82,133Z"/><path d="M158.4,133c0,.14,0,.28,0,.42.05-.3,0-.31,0,0,0,.11-.32.91-.09.42a5.2,5.2,0,0,1-.42.72c.31-.43-.23.19-.32.27.4-.34-.3.15-.41.19.39-.16-.46.1-.55.12h-.06l-.48,0c-.33,0-.66,0-1,0-.7,0-1.39,0-2.08-.12a4.35,4.35,0,0,1-.52-.06l-.13,0-1-.19a23.44,23.44,0,0,1-4-1.18l1.45,3.57,5.77-9.59-2.74,1.12c.84.31,1.7.56,2.55.82.41.13.82.26,1.22.41,0,0,.68.31.27.1l.61.31c.2.11.39.24.58.36.36.23,0-.06.13.1l.4.38c.09.1.39.53.17.19.12.19.23.37.34.57.32.54-.08-.38.1.22.07.21.12.42.18.63.13.51,0-.35,0,.22a2.43,2.43,0,0,0,4.85,0,8.24,8.24,0,0,0-3.73-6.5c-1.9-1.31-4.26-1.7-6.39-2.49a2.44,2.44,0,0,0-2.74,1.11l-5.77,9.59a2.46,2.46,0,0,0,1.45,3.56A24.47,24.47,0,0,0,156.29,140a7.44,7.44,0,0,0,5-2,7.19,7.19,0,0,0,2-5,2.43,2.43,0,1,0-4.85,0Z"/><path d="M138.42,170.48l-.1,0h0a6.44,6.44,0,0,0-.06-.86,8.75,8.75,0,0,0-.42-1.8,8.92,8.92,0,0,0-.72-1.57,0,0,0,0,0,0,0,8.76,8.76,0,0,0-8.67-4.29,5.54,5.54,0,0,0-.71.12l-.18,0a8.88,8.88,0,0,0-6.73,9.75,7,7,0,0,0,.15.82l-.3,0-1.89.24a5.93,5.93,0,0,0-.07-.83,8.79,8.79,0,0,0-9.81-7.67,5.11,5.11,0,0,0-.7.12l-.19,0a8.85,8.85,0,0,0-6.73,9.74c0,.27.08.54.14.78l-.29,0-1.9.24a7.37,7.37,0,0,0-.06-.79A8.8,8.8,0,0,0,89.3,167c-.24,0-.47.07-.7.12l-.19,0a8.86,8.86,0,0,0-6.73,9.74c0,.26.08.51.13.75l-.3,0-1.87.25c0-.25,0-.5-.06-.77a8.81,8.81,0,0,0-9.83-7.66c-.23,0-.47.07-.7.12l-.21,0a8.85,8.85,0,0,0-6.7,9.73c0,.25.08.49.13.72l-.3,0-1.89.25a6,6,0,0,0,0-.73A8.82,8.82,0,0,0,50.21,172a7.93,7.93,0,0,0-1.1.22l-.12,0a8.9,8.9,0,0,0-6.39,9.67c0,.22.07.45.11.69l-.29,0-1.88.23a5.36,5.36,0,0,0-.06-.69,8.78,8.78,0,0,0-9.81-7.67,6.8,6.8,0,0,0-1,.19,8.85,8.85,0,0,0-6.59,9.71,5,5,0,0,0,.11.66l-.3,0h0l0-.3a2.34,2.34,0,0,1-.05-.3,2.29,2.29,0,0,0,0-.25.15.15,0,0,1,0-.06c-.56-4.45-3.09-24.57-6.23-49.45C11.32,93.43,4.49,39.07,2.28,21.53L1.58,16v0l14.93-1.9L114.25,1.6l2.87-.37.8,6.4,1.48,11.72,8.81,70,2.69,21.37h0l.48,3.83.78,6.16.77,6.12,2.62,20.84,2.84,22.57S138.41,170.36,138.42,170.48Z" fill="#fff"/><path d="M140.61,119.71l.37,2.91q-.75-.14-1.5-.33Z" stroke="#000" stroke-miterlimit="10" stroke-width="3.67"/><path d="M116.83,1.3l21.27,169,0,.25H138c0-.3,0-.59-.08-.91-.5-4-2.62-7.14-5.14-8.13L113.06,2.67h0a6.29,6.29,0,0,0,.9-1Z" opacity="0.18"/><line x1="25.12" y1="88.05" x2="89.54" y2="79.81" fill="none" stroke="#474747" stroke-miterlimit="10" stroke-width="3.46" opacity="0.81"/><line x1="63.72" y1="31.13" x2="91.65" y2="27.55" fill="none" stroke="#474747" stroke-miterlimit="10" stroke-width="2.31"/><line x1="64.87" y1="40.33" x2="78.56" y2="38.58" fill="none" stroke="#474747" stroke-miterlimit="10" stroke-width="2.31"/><line x1="65.81" y1="47.8" x2="79.5" y2="46.05" fill="none" stroke="#474747" stroke-miterlimit="10" stroke-width="2.31"/><line x1="98.66" y1="78.64" x2="113.48" y2="76.75" fill="none" stroke="#474747" stroke-miterlimit="10" stroke-width="3.46"/><line x1="26.71" y1="100.7" x2="64.9" y2="95.81" fill="none" stroke="#474747" stroke-miterlimit="10" stroke-width="3.46" opacity="0.81"/><line x1="100.25" y1="91.29" x2="115.07" y2="89.39" fill="none" stroke="#474747" stroke-miterlimit="10" stroke-width="3.46"/><line x1="28.3" y1="113.34" x2="82.46" y2="106.42" fill="none" stroke="#474747" stroke-miterlimit="10" stroke-width="3.46" opacity="0.81"/><line x1="101.84" y1="103.94" x2="116.66" y2="102.04" fill="none" stroke="#474747" stroke-miterlimit="10" stroke-width="3.46"/><path d="M31.38,129.77a1.74,1.74,0,0,0,0-3.47,1.74,1.74,0,0,0,0,3.47Z" fill="#262626"/><path d="M40.5,128.6a1.73,1.73,0,0,0,0-3.46,1.73,1.73,0,0,0,0,3.46Z" fill="#262626"/><path d="M49.62,127.43a1.73,1.73,0,0,0,0-3.46,1.73,1.73,0,0,0,0,3.46Z" fill="#262626"/><path d="M58.74,126.26a1.73,1.73,0,0,0,0-3.46,1.73,1.73,0,0,0,0,3.46Z" fill="#262626"/><path d="M67.86,125.1a1.73,1.73,0,0,0,0-3.46,1.73,1.73,0,0,0,0,3.46Z" fill="#262626"/><path d="M77,123.93a1.73,1.73,0,0,0,0-3.46,1.73,1.73,0,0,0,0,3.46Z" fill="#262626"/><path d="M86.1,122.76a1.73,1.73,0,0,0,0-3.46,1.73,1.73,0,0,0,0,3.46Z" fill="#262626"/><path d="M95.22,121.6a1.74,1.74,0,0,0,0-3.47,1.74,1.74,0,0,0,0,3.47Z" fill="#262626"/><path d="M104.34,120.43a1.73,1.73,0,0,0,0-3.46,1.73,1.73,0,0,0,0,3.46Z" fill="#262626"/><path d="M113.46,119.26a1.73,1.73,0,0,0,0-3.46,1.73,1.73,0,0,0,0,3.46Z" fill="#262626"/><line x1="32.33" y1="136.19" x2="34.79" y2="155.74" fill="none" stroke="#262626" stroke-miterlimit="10" stroke-width="1.15"/><line x1="43.74" y1="134.73" x2="46.2" y2="154.28" fill="none" stroke="#262626" stroke-miterlimit="10" stroke-width="1.15"/><line x1="55.14" y1="133.27" x2="57.6" y2="152.82" fill="none" stroke="#262626" stroke-miterlimit="10" stroke-width="1.15"/><line x1="66.54" y1="131.82" x2="69" y2="151.36" fill="none" stroke="#262626" stroke-miterlimit="10" stroke-width="1.15"/><line x1="53.43" y1="133.49" x2="55.89" y2="153.04" fill="none" stroke="#262626" stroke-miterlimit="10" stroke-width="1.15"/><line x1="91.05" y1="128.68" x2="93.51" y2="148.22" fill="none" stroke="#262626" stroke-miterlimit="10" stroke-width="1.15"/><line x1="114.99" y1="125.62" x2="117.45" y2="145.16" fill="none" stroke="#262626" stroke-miterlimit="10" stroke-width="3.2"/><line x1="77.94" y1="130.36" x2="80.4" y2="149.9" fill="none" stroke="#262626" stroke-miterlimit="10" stroke-width="1.15"/><line x1="89.34" y1="128.9" x2="91.8" y2="148.44" fill="none" stroke="#262626" stroke-miterlimit="10" stroke-width="1.15"/><line x1="100.74" y1="127.44" x2="103.2" y2="146.98" fill="none" stroke="#262626" stroke-miterlimit="10" stroke-width="1.15"/><line x1="112.14" y1="125.98" x2="114.6" y2="145.53" fill="none" stroke="#262626" stroke-miterlimit="10" stroke-width="1.15"/><line x1="38.04" y1="135.46" x2="40.49" y2="155.01" fill="none" stroke="#262626" stroke-miterlimit="10" stroke-width="4.42"/><line x1="48.01" y1="134.19" x2="50.47" y2="153.73" fill="none" stroke="#262626" stroke-miterlimit="10" stroke-width="6.16"/><line x1="58.84" y1="132.8" x2="61.3" y2="152.35" fill="none" stroke="#262626" stroke-miterlimit="10" stroke-width="4.17"/><line x1="70.81" y1="131.27" x2="73.27" y2="150.81" fill="none" stroke="#262626" stroke-miterlimit="10" stroke-width="5.07"/><line x1="83.92" y1="129.59" x2="86.38" y2="149.14" fill="none" stroke="#262626" stroke-miterlimit="10" stroke-width="6.16"/><line x1="96.47" y1="127.99" x2="98.93" y2="147.53" fill="none" stroke="#262626" stroke-miterlimit="10" stroke-width="5.07"/><line x1="105.59" y1="126.82" x2="108.05" y2="146.36" fill="none" stroke="#262626" stroke-miterlimit="10" stroke-width="3.55"/><g opacity="0.22"><path d="M136.93,128.12q.4,2.65,1,5.28"/><path d="M134.58,128.76c.28,1.78.6,3.54,1,5.29a2.44,2.44,0,0,0,4.45.58,2.66,2.66,0,0,0,.25-1.88q-.59-2.62-1-5.28a2.48,2.48,0,0,0-1.12-1.46,2.51,2.51,0,0,0-1.88-.24,2.46,2.46,0,0,0-1.45,1.12l-.25.58a2.56,2.56,0,0,0,0,1.29Z"/><path d="M134.49,107.45l-.68-5.42" fill="none" stroke="#000" stroke-miterlimit="10" stroke-width="1.62"/><path d="M138,107.51a10,10,0,0,0-4.28.36,4.22,4.22,0,0,0-2.12,1.28,5.22,5.22,0,0,0-.72,3.55,3.2,3.2,0,0,0,.4,1.65,2.76,2.76,0,0,0,1.13.9c2.62,1.27,5.86.88,8.36,2.39a5.57,5.57,0,0,1,2.65,3.86,4.5,4.5,0,0,1-1.72,4.27,6.79,6.79,0,0,1-3.15,1,23.51,23.51,0,0,1-8.76-.56"/><path d="M138,105.08c-3-.36-7.37.37-8.86,3.44a8.56,8.56,0,0,0-.68,4.47,5,5,0,0,0,2.72,4.36,15.35,15.35,0,0,0,4.34,1.27,12.23,12.23,0,0,1,3.88,1,3.19,3.19,0,0,1,1.62,2.2,2.2,2.2,0,0,1-.8,2c-1.1.72-2.86.68-4.24.7a21.15,21.15,0,0,1-5.54-.65c-3-.76-4.34,3.93-1.3,4.69a25.73,25.73,0,0,0,10.66.48,7,7,0,0,0,6.09-6.55c.24-3.29-2.1-6.27-5-7.51a19.9,19.9,0,0,0-4.37-1.12,19,19,0,0,1-2-.43,5.67,5.67,0,0,1-.88-.29c-.12-.06-.83-.36-.36-.12.29.14,0,.18,0-.11,0,.2,0-.19,0-.22a9,9,0,0,1,0-1.16,1.24,1.24,0,0,1,.41-1.07c-.16.12.58-.23.39-.16a7.74,7.74,0,0,1,1.14-.32,8.52,8.52,0,0,1,2.76,0,2.45,2.45,0,0,0,2.43-2.44,2.49,2.49,0,0,0-2.43-2.43Z"/></g><ellipse cx="38.1" cy="37.22" rx="9.99" ry="10.55" transform="translate(-3.76 4.29) rotate(-6.14)" fill="url(#Dégradé_sans_nom_10)"/><path d="M28.29,67.91a22.55,22.55,0,0,1-4.37-3.27,19.09,19.09,0,0,1,5.72-12.85,17.13,17.13,0,0,0,20.5-2.62,18.88,18.88,0,0,1,8.64,10.75,22.58,22.58,0,0,1-26.35,9.82Z" fill="url(#Dégradé_sans_nom_10-2)"/><path d="M54.94,57.8l.39,3.07a.37.37,0,0,1-.32.42l-2.6.33.32,2.52a.39.39,0,0,1-.33.42l-3,.38a.37.37,0,0,1-.42-.31l-.31-2.52-2.5.32a.38.38,0,0,1-.41-.33L45.33,59a.38.38,0,0,1,.32-.42l2.5-.32-.33-2.62a.36.36,0,0,1,.32-.41l3-.39a.37.37,0,0,1,.42.32l.33,2.62,2.6-.33A.37.37,0,0,1,54.94,57.8Z" fill="#fff"/><path d="M127.92,89.39l-8.82-70L117.63,7.64l-.8-6.35L114,1.66,16.89,14l-.38.05L1.58,16l-.29,0L2,21.6C4.23,39.45,11.29,95.5,16.51,137c3.42,27.16,6,48.1,6,48.1l.32,0a0,0,0,0,0,0,0c0-.09,0-.19-.05-.3a2.34,2.34,0,0,1-.05-.3v0a1.64,1.64,0,0,1,0-.22.15.15,0,0,1,0-.06,8.83,8.83,0,0,1,6.91-9.49c.24,0,.48-.09.73-.12a8.79,8.79,0,0,1,9.82,7.66c0,.23,0,.47,0,.7l2.18-.28v0c0-.22-.08-.44-.11-.66A8.9,8.9,0,0,1,49,172.2l.12,0a6.83,6.83,0,0,1,.81-.15,8.81,8.81,0,0,1,9.82,7.68c0,.24,0,.49,0,.72l2.19-.28a0,0,0,0,0,0,0c0-.21-.09-.45-.12-.69a8.85,8.85,0,0,1,7-9.79l.21,0,.41-.06a8.81,8.81,0,0,1,9.83,7.68q0,.39.06.75l2.17-.27v0c0-.23-.08-.46-.12-.72a8.86,8.86,0,0,1,7-9.8l.19,0L89,167a8.8,8.8,0,0,1,9.82,7.67c0,.28.06.54.07.8l2.19-.28v0a6.36,6.36,0,0,1-.14-.76,8.85,8.85,0,0,1,7-9.8l.19,0,.41-.06a8.8,8.8,0,0,1,9.81,7.67,6,6,0,0,1,.06.84l2.2-.27s0,0,0,0a7,7,0,0,1-.14-.8,8.87,8.87,0,0,1,7-9.81l.18,0a3.27,3.27,0,0,1,.42-.06,8.8,8.8,0,0,1,9.82,7.67,6.47,6.47,0,0,1,.06.87h.15c0-.12,0-.25,0-.25l-.31-2.46-2.53-20.11" fill="none" stroke="#191919" stroke-linecap="round" stroke-miterlimit="10" stroke-width="2.31"/><path d="M119.4,19.35h-.3l-4,.06-74.2,1.19.12,6.57.38,20,.12,6.52.32,17,.28,15.16.24,12.82.25,12.82h0l1.21,64.21v.36a8.85,8.85,0,0,0-1.26,5.79c0,.22.07.45.11.69l-.29,0v0l-2.18.28c0-.23,0-.47,0-.7a8.79,8.79,0,0,0-9.82-7.66c-.25,0-.49.07-.73.12a8.85,8.85,0,0,0-6.59,9.71,5,5,0,0,0,.11.66l-.3,0a0,0,0,0,1,0,0l-.32,0s-2.63-20.94-6-48.1v-123l.38,0,96.82-6.14,3.92-.25h.29Z" opacity="0.29"/><path d="M139.64,160.41v22.81h-.15a6,6,0,0,0,0-.86,8.79,8.79,0,0,0-17.58,0,7.55,7.55,0,0,0,.05.83H119.8a7.56,7.56,0,0,0,0-.83,8.79,8.79,0,0,0-17.57,0,5.1,5.1,0,0,0,0,.79H100.1a6.78,6.78,0,0,0,0-.79,8.79,8.79,0,0,0-17.57,0c0,.26,0,.51,0,.76H80.4a6.34,6.34,0,0,0,0-.76,8.79,8.79,0,0,0-17.58,0c0,.24,0,.49,0,.72H60.7c0-.23,0-.48,0-.72a8.79,8.79,0,0,0-17.57,0q0,.34,0,.69H41c0-.23,0-.46,0-.69a8.78,8.78,0,0,0-17.56,0c0,.22,0,.44,0,.66h-.31V14l113.57,0h2.89V102.1" fill="#fff"/><path d="M148.16,133.55v2.9c-.49-.15-1-.32-1.45-.51Z" stroke="#000" stroke-miterlimit="10" stroke-width="3.66"/><path d="M139.35,14.06V183.25h-.11a9,9,0,0,0,0-.91c0-4-1.7-7.35-4.08-8.64l.23-158.76h0a6.36,6.36,0,0,0,1-.87Z" opacity="0.18"/><line x1="37.53" y1="87.86" x2="102.47" y2="87.86" fill="none" stroke="#474747" stroke-miterlimit="10" stroke-width="3.45" opacity="0.81"/><line x1="82.93" y1="36.72" x2="111.08" y2="36.72" fill="none" stroke="#474747" stroke-miterlimit="10" stroke-width="2.3"/><line x1="82.93" y1="45.91" x2="96.72" y2="45.91" fill="none" stroke="#474747" stroke-miterlimit="10" stroke-width="2.3"/><line x1="82.93" y1="53.38" x2="96.72" y2="53.38" fill="none" stroke="#474747" stroke-miterlimit="10" stroke-width="2.3"/><line x1="111.66" y1="87.86" x2="126.6" y2="87.86" fill="none" stroke="#474747" stroke-miterlimit="10" stroke-width="3.45"/><line x1="37.53" y1="100.5" x2="76.03" y2="100.5" fill="none" stroke="#474747" stroke-miterlimit="10" stroke-width="3.45" opacity="0.81"/><line x1="111.66" y1="100.5" x2="126.6" y2="100.5" fill="none" stroke="#474747" stroke-miterlimit="10" stroke-width="3.45"/><line x1="37.53" y1="113.15" x2="92.12" y2="113.15" fill="none" stroke="#474747" stroke-miterlimit="10" stroke-width="3.45" opacity="0.81"/><line x1="111.66" y1="113.15" x2="126.6" y2="113.15" fill="none" stroke="#474747" stroke-miterlimit="10" stroke-width="3.45"/><path d="M38.75,129.71a1.73,1.73,0,0,0,0-3.45,1.73,1.73,0,0,0,0,3.45Z" fill="#262626"/><path d="M47.94,129.71a1.73,1.73,0,0,0,0-3.45,1.73,1.73,0,0,0,0,3.45Z" fill="#262626"/><path d="M57.14,129.71a1.73,1.73,0,0,0,0-3.45,1.73,1.73,0,0,0,0,3.45Z" fill="#262626"/><path d="M66.33,129.71a1.73,1.73,0,0,0,0-3.45,1.73,1.73,0,0,0,0,3.45Z" fill="#262626"/><path d="M75.53,129.71a1.73,1.73,0,0,0,0-3.45,1.73,1.73,0,0,0,0,3.45Z" fill="#262626"/><path d="M84.72,129.71a1.73,1.73,0,0,0,0-3.45,1.73,1.73,0,0,0,0,3.45Z" fill="#262626"/><path d="M93.91,129.71a1.73,1.73,0,0,0,0-3.45,1.73,1.73,0,0,0,0,3.45Z" fill="#262626"/><path d="M103.11,129.71a1.73,1.73,0,0,0,0-3.45,1.73,1.73,0,0,0,0,3.45Z" fill="#262626"/><path d="M112.3,129.71a1.73,1.73,0,0,0,0-3.45,1.73,1.73,0,0,0,0,3.45Z" fill="#262626"/><path d="M121.5,129.71a1.73,1.73,0,0,0,0-3.45,1.73,1.73,0,0,0,0,3.45Z" fill="#262626"/><line x1="38.68" y1="136.13" x2="38.68" y2="155.67" fill="none" stroke="#262626" stroke-miterlimit="10" stroke-width="1.15"/><line x1="50.17" y1="136.13" x2="50.17" y2="155.67" fill="none" stroke="#262626" stroke-miterlimit="10" stroke-width="1.15"/><line x1="61.67" y1="136.13" x2="61.67" y2="155.67" fill="none" stroke="#262626" stroke-miterlimit="10" stroke-width="1.15"/><line x1="73.16" y1="136.13" x2="73.16" y2="155.67" fill="none" stroke="#262626" stroke-miterlimit="10" stroke-width="1.15"/><line x1="59.94" y1="136.13" x2="59.94" y2="155.67" fill="none" stroke="#262626" stroke-miterlimit="10" stroke-width="1.15"/><line x1="97.87" y1="136.13" x2="97.87" y2="155.67" fill="none" stroke="#262626" stroke-miterlimit="10" stroke-width="1.15"/><line x1="122" y1="136.13" x2="122" y2="155.67" fill="none" stroke="#262626" stroke-miterlimit="10" stroke-width="3.19"/><line x1="84.65" y1="136.13" x2="84.65" y2="155.67" fill="none" stroke="#262626" stroke-miterlimit="10" stroke-width="1.15"/><line x1="96.14" y1="136.13" x2="96.14" y2="155.67" fill="none" stroke="#262626" stroke-miterlimit="10" stroke-width="1.15"/><line x1="107.64" y1="136.13" x2="107.64" y2="155.67" fill="none" stroke="#262626" stroke-miterlimit="10" stroke-width="1.15"/><line x1="119.13" y1="136.13" x2="119.13" y2="155.67" fill="none" stroke="#262626" stroke-miterlimit="10" stroke-width="1.15"/><line x1="44.43" y1="136.13" x2="44.43" y2="155.67" fill="none" stroke="#262626" stroke-miterlimit="10" stroke-width="4.4"/><line x1="54.48" y1="136.13" x2="54.48" y2="155.67" fill="none" stroke="#262626" stroke-miterlimit="10" stroke-width="6.13"/><line x1="65.4" y1="136.13" x2="65.4" y2="155.67" fill="none" stroke="#262626" stroke-miterlimit="10" stroke-width="4.15"/><line x1="77.47" y1="136.13" x2="77.47" y2="155.67" fill="none" stroke="#262626" stroke-miterlimit="10" stroke-width="5.05"/><line x1="90.69" y1="136.13" x2="90.69" y2="155.67" fill="none" stroke="#262626" stroke-miterlimit="10" stroke-width="6.13"/><line x1="103.33" y1="136.13" x2="103.33" y2="155.67" fill="none" stroke="#262626" stroke-miterlimit="10" stroke-width="5.05"/><line x1="112.52" y1="136.13" x2="112.52" y2="155.67" fill="none" stroke="#262626" stroke-miterlimit="10" stroke-width="3.54"/><g opacity="0.22"><path d="M143.46,141.35c0,1.78.15,3.55.31,5.32"/><path d="M141,141.35c.05,1.78.16,3.55.32,5.32a2.61,2.61,0,0,0,.71,1.72,2.43,2.43,0,0,0,3.43,0,2.37,2.37,0,0,0,.71-1.72c-.16-1.77-.27-3.54-.32-5.32a2.54,2.54,0,0,0-.71-1.71,2.45,2.45,0,0,0-1.71-.71,2.42,2.42,0,0,0-2.43,2.42Z"/><path d="M143.61,120.71v-5.42" fill="none" stroke="#000" stroke-miterlimit="10" stroke-width="1.62"/><path d="M147,121.21a10,10,0,0,0-4.28-.19,4.27,4.27,0,0,0-2.27,1,5.1,5.1,0,0,0-1.15,3.4,3.25,3.25,0,0,0,.18,1.67,2.8,2.8,0,0,0,1,1c2.44,1.58,5.7,1.6,8,3.4a5.52,5.52,0,0,1,2.15,4.13,4.49,4.49,0,0,1-2.24,4,6.81,6.81,0,0,1-3.25.6,23.54,23.54,0,0,1-8.62-1.65"/><path d="M147.68,118.87c-3.26-.8-7.72-.7-9.72,2.46a9,9,0,0,0-1.08,4.52,4.94,4.94,0,0,0,2.55,4.44c2.29,1.43,5.31,1.54,7.39,3a3.29,3.29,0,0,1,1.42,2.38,2,2,0,0,1-1.05,1.9c-1.34.62-3.42.29-4.83.09a23.57,23.57,0,0,1-5.16-1.39,2.43,2.43,0,0,0-3,1.69,2.49,2.49,0,0,0,1.69,3,25.32,25.32,0,0,0,9.77,1.73,8,8,0,0,0,5-1.7,6.6,6.6,0,0,0,2.23-4,8,8,0,0,0-4.18-8.21,20.92,20.92,0,0,0-4.12-1.56c-.6-.19-1.22-.37-1.8-.61a10,10,0,0,0-1.19-.67c-.39,0,.21,0,.08.24s0-.23,0-.34c0-.31,0-.78.07-1a2.39,2.39,0,0,1,.4-1.15c1-.77,3-.47,4.19-.18,3,.74,4.32-3.93,1.29-4.68Z"/></g><ellipse cx="56.75" cy="39.49" rx="9.99" ry="10.46" fill="none" stroke="#000" stroke-miterlimit="10" stroke-width="1.76"/><path d="M43.19,68.44a22.22,22.22,0,0,1-3.93-3.76,18.86,18.86,0,0,1,7.28-11.92,17.25,17.25,0,0,0,20.67,0,18.82,18.82,0,0,1,7.23,11.67,22.74,22.74,0,0,1-27.37,6.34" fill="none" stroke="#000" stroke-linecap="round" stroke-miterlimit="10" stroke-width="1.76"/><path d="M70,62.43v2.79a.34.34,0,0,1-.33.34H67.3v2.29a.34.34,0,0,1-.34.33H64.17a.34.34,0,0,1-.34-.33V65.56H61.54a.34.34,0,0,1-.33-.34V62.43a.33.33,0,0,1,.33-.33h2.29V59.71a.34.34,0,0,1,.34-.33H67a.34.34,0,0,1,.34.33V62.1h2.38A.33.33,0,0,1,70,62.43Z" fill="none" stroke="#191919" stroke-miterlimit="10" stroke-width="0.6"/><path d="M139.35,160.43v22.82h-.15a8.12,8.12,0,0,0,0-.86,8.79,8.79,0,1,0-17.57,0c0,.28,0,.56,0,.83H119.5a5.5,5.5,0,0,0,0-.82,8.79,8.79,0,1,0-17.57,0,6.85,6.85,0,0,0,0,.79H99.8a6.85,6.85,0,0,0,0-.79,8.79,8.79,0,1,0-17.58,0c0,.26,0,.51,0,.75H80.11q0-.36,0-.75a8.79,8.79,0,1,0-17.57,0c0,.24,0,.49,0,.72H60.4a5.7,5.7,0,0,0,0-.72,8.78,8.78,0,1,0-17.56,0c0,.22,0,.45,0,.69H40.71q0-.36,0-.69a8.79,8.79,0,1,0-17.57,0,4.86,4.86,0,0,0,0,.66h-.32V14l113.57.06h2.9v88.06" fill="none" stroke="#191919" stroke-linecap="round" stroke-miterlimit="10" stroke-width="2.3"/><circle cx="149.84" cy="130.67" r="25" fill="#fff" stroke="#191919" stroke-miterlimit="10" stroke-width="3.66"/><path d="M149.2,141.35c.05,1.78.16,3.55.32,5.32" fill="url(#Dégradé_sans_nom_10-3)"/><path d="M146.78,141.35c.05,1.78.15,3.55.31,5.32a2.61,2.61,0,0,0,.71,1.72,2.45,2.45,0,0,0,1.72.71,2.41,2.41,0,0,0,1.71-.71,2.33,2.33,0,0,0,.71-1.72c-.16-1.77-.26-3.54-.31-5.32a2.54,2.54,0,0,0-.71-1.71,2.45,2.45,0,0,0-1.72-.71,2.37,2.37,0,0,0-1.71.71,2.43,2.43,0,0,0-.71,1.71Z" fill="url(#Dégradé_sans_nom_17)"/><path d="M151.79,120.71v-5.42a2.42,2.42,0,0,0-2.43-2.42,2.46,2.46,0,0,0-2.42,2.42v5.42a2.52,2.52,0,0,0,.71,1.72,2.45,2.45,0,0,0,1.71.71,2.48,2.48,0,0,0,2.43-2.43Z" fill="url(#Dégradé_sans_nom_10-4)"/><path d="M153.43,118.87c-3.27-.8-7.73-.7-9.73,2.46a9,9,0,0,0-1.07,4.52,4.94,4.94,0,0,0,2.55,4.44c2.29,1.43,5.31,1.54,7.39,3a3.32,3.32,0,0,1,1.42,2.38,2,2,0,0,1-1.06,1.9c-1.34.62-3.41.29-4.82.09a23.57,23.57,0,0,1-5.16-1.39,2.43,2.43,0,0,0-3,1.69,2.48,2.48,0,0,0,1.69,3,25.26,25.26,0,0,0,9.77,1.73,8,8,0,0,0,5-1.7,6.62,6.62,0,0,0,2.24-4,8,8,0,0,0-4.18-8.21,20.92,20.92,0,0,0-4.12-1.56c-.61-.19-1.22-.37-1.8-.61a10.14,10.14,0,0,0-1.2-.67c-.39,0,.22,0,.08.24s0-.23,0-.34c0-.31,0-.78.06-1a2.5,2.5,0,0,1,.41-1.15c1-.77,3-.47,4.19-.18,3,.74,4.32-3.93,1.29-4.68Z" fill="url(#Dégradé_sans_nom_10-5)"/></g></g></svg>