<svg xmlns="http://www.w3.org/2000/svg" xmlns:xlink="http://www.w3.org/1999/xlink" viewBox="0 0 161.82 148.1"><defs><linearGradient id="Dégradé_sans_nom_10" x1="135.94" y1="51.8" x2="135.94" y2="151.57" gradientUnits="userSpaceOnUse"><stop offset="0" stop-color="#439cdf"/><stop offset="0.62" stop-color="#435cd1"/><stop offset="1" stop-color="#4338ca"/></linearGradient><linearGradient id="Dégradé_sans_nom_10-2" x1="-1868.03" y1="4795.75" x2="-1879.78" y2="4805.29" gradientTransform="translate(-4565.9 2077.58) rotate(-135)" xlink:href="#Dégradé_sans_nom_10"/></defs><g id="Calque_2" data-name="Calque 2"><g id="Calque_1-2" data-name="Calque 1"><path d="M24.77,28v.92L20.91,33l-4.13-4.8L12.65,33l-4.13-4.8L5.08,32H1.41V28c0-7.37,5.23-13.34,11.68-13.34a11,11,0,0,1,8.26,3.91A14.32,14.32,0,0,1,24.77,28Z" fill="#c4c4c4"/><path d="M29.29,33.16,25,28.21l-4,4.52-.19.21-4.14-4.73-4,4.52-.19.21L8.38,28.21l-4,4.52" fill="none" stroke="#191919" stroke-miterlimit="10" stroke-width="2.82"/><path d="M1.41,33.16V28c0-7.37,5.23-13.34,11.68-13.34" fill="none" stroke="#191919" stroke-miterlimit="10" stroke-width="2.82"/><path d="M48.12,133.36a14.26,14.26,0,0,1-3.42,9.43,11,11,0,0,1-8.26,3.9,11.46,11.46,0,0,1-10-6.37,14.75,14.75,0,0,1-1.71-7V28a14.32,14.32,0,0,0-3.42-9.43,11,11,0,0,0-8.26-3.91H119.41c8.28,0,15,7.67,15,17.12V146.69" fill="#fff"/><line x1="134.4" y1="123.69" x2="134.4" y2="146.69" fill="#fff" stroke="#191919" stroke-linecap="round" stroke-miterlimit="10" stroke-width="2.82"/><path d="M47.37,138.08a13.65,13.65,0,0,1-2.67,4.71,11,11,0,0,1-8.26,3.9,11.46,11.46,0,0,1-10-6.37,14.75,14.75,0,0,1-1.71-7V28a14.32,14.32,0,0,0-3.42-9.43,11,11,0,0,0-8.26-3.91H119.41c8.28,0,15,7.67,15,17.12V58.55" fill="#fff" stroke="#191919" stroke-linecap="round" stroke-miterlimit="10" stroke-width="2.82"/><g opacity="0.18"><path d="M132.61,23.91a17.72,17.72,0,0,0-3.06-4.64l-.36-.37L115.19,36v.08l-1.43,11,0,.32.27-.1.7-.26,10.06-3.73.08,0,9.53-11.68-.06-1A18.69,18.69,0,0,0,132.61,23.91Z" stroke="#000" stroke-miterlimit="10" stroke-width="1.26"/><path d="M132.61,23.91,120.09,39.22l-5.41,7.9-.44.64-.33.11.07-.49,1.48-10.81V36.5l14.09-17.23A17.72,17.72,0,0,1,132.61,23.91Z" stroke="#000" stroke-miterlimit="10" stroke-width="0.92" opacity="0.23"/></g><path d="M133.11,132v14.77H41.27c-5.22.63-10.55-.61-13.87-3.26-4.74-3.77-2.8-8.33-2.63-8.71V132Z" opacity="0.17"/><path d="M149.85,131.71c0,8.27-5.88,15-13.13,15H36.45A10.33,10.33,0,0,0,41,145.64a13.41,13.41,0,0,0,3.71-2.85c2.58-2.83,3.75-7,4.27-9.93a3.69,3.69,0,0,1,3.57-3.12l95.36-.27A2.12,2.12,0,0,1,149.85,131.71Z" fill="#fff" stroke="#191919" stroke-miterlimit="10" stroke-width="2.82"/><g opacity="0.21"><circle cx="129.78" cy="91.42" r="25.49"/><path d="M129.12,102.31q.07,2.72.33,5.43"/><path d="M129.28,81.27V75.74"/><path d="M132.77,81.77a10.23,10.23,0,0,0-4.37-.19,4.34,4.34,0,0,0-2.31,1,5.23,5.23,0,0,0-1.18,3.46,3.4,3.4,0,0,0,.19,1.71,2.76,2.76,0,0,0,1,1c2.49,1.61,5.81,1.63,8.14,3.46a5.64,5.64,0,0,1,2.2,4.22,4.55,4.55,0,0,1-2.29,4.06,7,7,0,0,1-3.31.62,24.06,24.06,0,0,1-8.79-1.69"/></g><circle cx="135.94" cy="91.42" r="25.49" fill="url(#Dégradé_sans_nom_10)"/><path d="M132.86,102.31q.07,2.72.33,5.43a2.61,2.61,0,0,0,.71,1.71,2.43,2.43,0,0,0,3.43,0,2.37,2.37,0,0,0,.71-1.71c-.17-1.81-.27-3.62-.33-5.43a2.44,2.44,0,0,0-2.42-2.43,2.48,2.48,0,0,0-2.43,2.43Z" fill="#fff"/><path d="M137.88,81.27V75.74a2.42,2.42,0,0,0-2.43-2.43A2.47,2.47,0,0,0,133,75.74v5.53a2.49,2.49,0,0,0,.71,1.71,2.43,2.43,0,0,0,4.14-1.71Z" fill="#fff"/><path d="M139.58,79.43c-3.3-.81-7.83-.71-9.85,2.49a9,9,0,0,0-1.1,4.58A5,5,0,0,0,131.21,91c2.33,1.45,5.4,1.55,7.54,3a3.43,3.43,0,0,1,1.47,2.47,2.11,2.11,0,0,1-1.11,2c-1.36.63-3.49.3-4.94.1a24.19,24.19,0,0,1-5.27-1.43,2.44,2.44,0,0,0-3,1.7,2.48,2.48,0,0,0,1.69,3,25.81,25.81,0,0,0,10,1.77c3.5-.11,6.79-2,7.38-5.74a8.12,8.12,0,0,0-4.25-8.32A22.22,22.22,0,0,0,136.51,88a18.88,18.88,0,0,1-1.84-.61,10.9,10.9,0,0,0-1.24-.7c-.36-.06.16,0,.07.22s0-.28,0-.36c0-.31,0-.77.07-1a2.47,2.47,0,0,1,.43-1.2c1.05-.82,3.14-.49,4.31-.2,3,.75,4.33-3.93,1.29-4.68Z" fill="#fff"/><ellipse cx="54.51" cy="39.83" rx="9" ry="9.43" fill="none" stroke="#191919" stroke-linecap="round" stroke-miterlimit="10" stroke-width="2"/><path d="M42.29,65.91a19.9,19.9,0,0,1-3.54-3.38,17,17,0,0,1,6.56-10.75,15.52,15.52,0,0,0,18.61,0A16.94,16.94,0,0,1,70.44,62.3,20.27,20.27,0,0,1,54.51,70,20.49,20.49,0,0,1,45.78,68" fill="none" stroke="#191919" stroke-linecap="round" stroke-miterlimit="10" stroke-width="2"/><line x1="86.42" y1="37.74" x2="112.85" y2="37.74" fill="none" stroke="#474747" stroke-miterlimit="10" stroke-width="3.52"/><line x1="86.42" y1="51.84" x2="101.39" y2="51.84" fill="none" stroke="#474747" stroke-miterlimit="10" stroke-width="3.52"/><line x1="37.97" y1="92.8" x2="52.94" y2="92.8" fill="none" stroke="#474747" stroke-miterlimit="10" stroke-width="3.52"/><line x1="62.63" y1="92.8" x2="77.61" y2="92.8" fill="none" stroke="#474747" stroke-miterlimit="10" stroke-width="3.52"/><line x1="82.89" y1="92.8" x2="97.87" y2="92.8" fill="none" stroke="#474747" stroke-miterlimit="10" stroke-width="3.52"/><line x1="54.71" y1="103.37" x2="39.73" y2="103.37" fill="none" stroke="#474747" stroke-miterlimit="10" stroke-width="1.76"/><line x1="80.25" y1="116.59" x2="53.82" y2="116.59" fill="none" stroke="#474747" stroke-miterlimit="10" stroke-width="1.76"/><line x1="84.66" y1="103.37" x2="59.11" y2="103.37" fill="none" stroke="#474747" stroke-miterlimit="10" stroke-width="1.76"/><path d="M117.22,36.44,152.68,1A.91.91,0,0,1,154,.9l6.94,6.93a.93.93,0,0,1-.08,1.31L125.37,44.61h-.07l-10.75,2.71.08-.31,2.56-10.51Z" fill="#fff" stroke="#191919" stroke-miterlimit="10" stroke-width="1.21"/><path d="M146.08,7.58,152.74.92A.92.92,0,0,1,154,.84L161,7.77a.93.93,0,0,1-.07,1.31l-6.66,6.66Z" stroke="#191919" stroke-linecap="round" stroke-miterlimit="10" stroke-width="1.22" fill="url(#Dégradé_sans_nom_10-2)"/><path d="M115,47.66l6.42-7.59L157.22,4.28l-3-3a.92.92,0,0,0-1.31.07L117.42,36.92V37L114.7,47.74Z" fill="#191919" opacity="0.19"/></g></g></svg>