<svg xmlns="http://www.w3.org/2000/svg" viewBox="0 0 131.33 171.54"><g id="Calque_2" data-name="Calque 2"><g id="Calque_1-2" data-name="Calque 1"><path d="M117.91,147.55v22.82h-.15a6.17,6.17,0,0,0,0-.87,8.79,8.79,0,0,0-17.58,0,7.58,7.58,0,0,0,0,.84H98.07a7.33,7.33,0,0,0,0-.83,8.79,8.79,0,0,0-17.57,0,5.23,5.23,0,0,0,0,.8H78.37c0-.26,0-.52,0-.8a8.79,8.79,0,0,0-17.57,0c0,.27,0,.51,0,.76H58.67a6.23,6.23,0,0,0,0-.76,8.79,8.79,0,0,0-17.58,0c0,.25,0,.5,0,.73H39a5.74,5.74,0,0,0,0-.73,8.79,8.79,0,0,0-17.57,0c0,.23,0,.46,0,.7H19.28c0-.24,0-.47,0-.7a8.78,8.78,0,0,0-17.56,0c0,.22,0,.44,0,.66H1.45V1.12L115,1.18h2.9V89.24" fill="#fff"/><path d="M126.43,120.69v2.91c-.49-.15-1-.33-1.45-.51Z" stroke="#000" stroke-miterlimit="10" stroke-width="3.66"/><path d="M117.62,1.2V170.39h-.11a8.9,8.9,0,0,0,0-.9c0-4-1.7-7.36-4.08-8.65L113.7,2.08h0a5.48,5.48,0,0,0,1-.87Z" opacity="0.18"/><line x1="15.8" y1="75.01" x2="80.73" y2="75.01" fill="none" stroke="#474747" stroke-miterlimit="10" stroke-width="3.45" opacity="0.81"/><line x1="61.2" y1="23.87" x2="89.35" y2="23.87" fill="none" stroke="#474747" stroke-miterlimit="10" stroke-width="2.3"/><line x1="61.2" y1="33.06" x2="74.99" y2="33.06" fill="none" stroke="#474747" stroke-miterlimit="10" stroke-width="2.3"/><line x1="61.2" y1="40.53" x2="74.99" y2="40.53" fill="none" stroke="#474747" stroke-miterlimit="10" stroke-width="2.3"/><line x1="89.93" y1="75.01" x2="104.87" y2="75.01" fill="none" stroke="#474747" stroke-miterlimit="10" stroke-width="3.45"/><line x1="15.8" y1="87.65" x2="54.3" y2="87.65" fill="none" stroke="#474747" stroke-miterlimit="10" stroke-width="3.45" opacity="0.81"/><line x1="89.93" y1="87.65" x2="104.87" y2="87.65" fill="none" stroke="#474747" stroke-miterlimit="10" stroke-width="3.45"/><line x1="15.8" y1="100.29" x2="70.39" y2="100.29" fill="none" stroke="#474747" stroke-miterlimit="10" stroke-width="3.45" opacity="0.81"/><line x1="89.93" y1="100.29" x2="104.87" y2="100.29" fill="none" stroke="#474747" stroke-miterlimit="10" stroke-width="3.45"/><path d="M17,116.85a1.72,1.72,0,0,0,0-3.44,1.72,1.72,0,0,0,0,3.44Z" fill="#262626"/><path d="M26.21,116.85a1.72,1.72,0,0,0,0-3.44,1.72,1.72,0,0,0,0,3.44Z" fill="#262626"/><path d="M35.41,116.85a1.72,1.72,0,0,0,0-3.44,1.72,1.72,0,0,0,0,3.44Z" fill="#262626"/><path d="M44.6,116.85a1.72,1.72,0,0,0,0-3.44,1.72,1.72,0,0,0,0,3.44Z" fill="#262626"/><path d="M53.79,116.85a1.72,1.72,0,0,0,0-3.44,1.72,1.72,0,0,0,0,3.44Z" fill="#262626"/><path d="M63,116.85a1.72,1.72,0,0,0,0-3.44,1.72,1.72,0,0,0,0,3.44Z" fill="#262626"/><path d="M72.18,116.85a1.72,1.72,0,0,0,0-3.44,1.72,1.72,0,0,0,0,3.44Z" fill="#262626"/><path d="M81.38,116.85a1.72,1.72,0,0,0,0-3.44,1.72,1.72,0,0,0,0,3.44Z" fill="#262626"/><path d="M90.57,116.85a1.72,1.72,0,0,0,0-3.44,1.72,1.72,0,0,0,0,3.44Z" fill="#262626"/><path d="M99.76,116.85a1.72,1.72,0,0,0,0-3.44,1.72,1.72,0,0,0,0,3.44Z" fill="#262626"/><line x1="16.95" y1="123.28" x2="16.95" y2="142.81" fill="none" stroke="#262626" stroke-miterlimit="10" stroke-width="1.15"/><line x1="28.44" y1="123.28" x2="28.44" y2="142.81" fill="none" stroke="#262626" stroke-miterlimit="10" stroke-width="1.15"/><line x1="39.94" y1="123.28" x2="39.94" y2="142.81" fill="none" stroke="#262626" stroke-miterlimit="10" stroke-width="1.15"/><line x1="51.43" y1="123.28" x2="51.43" y2="142.81" fill="none" stroke="#262626" stroke-miterlimit="10" stroke-width="1.15"/><line x1="38.21" y1="123.28" x2="38.21" y2="142.81" fill="none" stroke="#262626" stroke-miterlimit="10" stroke-width="1.15"/><line x1="76.14" y1="123.28" x2="76.14" y2="142.81" fill="none" stroke="#262626" stroke-miterlimit="10" stroke-width="1.15"/><line x1="100.27" y1="123.28" x2="100.27" y2="142.81" fill="none" stroke="#262626" stroke-miterlimit="10" stroke-width="3.19"/><line x1="62.92" y1="123.28" x2="62.92" y2="142.81" fill="none" stroke="#262626" stroke-miterlimit="10" stroke-width="1.15"/><line x1="74.41" y1="123.28" x2="74.41" y2="142.81" fill="none" stroke="#262626" stroke-miterlimit="10" stroke-width="1.15"/><line x1="85.91" y1="123.28" x2="85.91" y2="142.81" fill="none" stroke="#262626" stroke-miterlimit="10" stroke-width="1.15"/><line x1="97.4" y1="123.28" x2="97.4" y2="142.81" fill="none" stroke="#262626" stroke-miterlimit="10" stroke-width="1.15"/><line x1="22.7" y1="123.28" x2="22.7" y2="142.81" fill="none" stroke="#262626" stroke-miterlimit="10" stroke-width="4.4"/><line x1="32.75" y1="123.28" x2="32.75" y2="142.81" fill="none" stroke="#262626" stroke-miterlimit="10" stroke-width="6.13"/><line x1="43.67" y1="123.28" x2="43.67" y2="142.81" fill="none" stroke="#262626" stroke-miterlimit="10" stroke-width="4.15"/><line x1="55.74" y1="123.28" x2="55.74" y2="142.81" fill="none" stroke="#262626" stroke-miterlimit="10" stroke-width="5.05"/><line x1="68.95" y1="123.28" x2="68.95" y2="142.81" fill="none" stroke="#262626" stroke-miterlimit="10" stroke-width="6.13"/><line x1="81.6" y1="123.28" x2="81.6" y2="142.81" fill="none" stroke="#262626" stroke-miterlimit="10" stroke-width="5.05"/><line x1="90.79" y1="123.28" x2="90.79" y2="142.81" fill="none" stroke="#262626" stroke-miterlimit="10" stroke-width="3.54"/><g opacity="0.22"><path d="M121.72,128.5c0,1.77.16,3.55.32,5.32"/><path d="M119.3,128.5c0,1.77.15,3.55.32,5.32a2.61,2.61,0,0,0,.71,1.72,2.43,2.43,0,0,0,3.43,0,2.39,2.39,0,0,0,.71-1.72c-.16-1.77-.27-3.55-.32-5.32a2.54,2.54,0,0,0-.71-1.72,2.45,2.45,0,0,0-1.72-.71,2.42,2.42,0,0,0-2.42,2.43Z"/><path d="M121.88,107.86v-5.42" fill="none" stroke="#000" stroke-miterlimit="10" stroke-width="1.62"/><path d="M125.3,108.35a10,10,0,0,0-4.28-.18,4.22,4.22,0,0,0-2.27,1,5.11,5.11,0,0,0-1.15,3.4,3.28,3.28,0,0,0,.18,1.68,2.7,2.7,0,0,0,1,1c2.44,1.58,5.7,1.6,8,3.4a5.54,5.54,0,0,1,2.15,4.14,4.47,4.47,0,0,1-2.24,4,6.81,6.81,0,0,1-3.25.61,23.51,23.51,0,0,1-8.62-1.66"/><path d="M126,106c-3.26-.81-7.72-.7-9.72,2.46a8.93,8.93,0,0,0-1.08,4.51,4.94,4.94,0,0,0,2.55,4.44c2.29,1.43,5.31,1.55,7.39,3a3.29,3.29,0,0,1,1.42,2.38,2,2,0,0,1-1.05,1.9c-1.34.61-3.42.29-4.83.09a23,23,0,0,1-5.16-1.4,2.45,2.45,0,0,0-3,1.7,2.48,2.48,0,0,0,1.69,3,25.33,25.33,0,0,0,9.77,1.74,8,8,0,0,0,5-1.7,6.66,6.66,0,0,0,2.23-4,8,8,0,0,0-4.18-8.21,21.6,21.6,0,0,0-4.12-1.57,16.57,16.57,0,0,1-1.8-.61,10.78,10.78,0,0,0-1.19-.66c-.39,0,.21,0,.08.23s0-.22,0-.34c0-.3,0-.78.07-1a2.35,2.35,0,0,1,.4-1.15c1-.78,3-.47,4.19-.19,3,.75,4.32-3.93,1.29-4.67Z"/></g><ellipse cx="35.02" cy="26.64" rx="9.99" ry="10.46" fill="none" stroke="#000" stroke-miterlimit="10" stroke-width="1.76"/><path d="M21.46,55.59a22.58,22.58,0,0,1-3.93-3.76,18.84,18.84,0,0,1,7.28-11.92,17.25,17.25,0,0,0,20.67,0,18.8,18.8,0,0,1,7.23,11.66A22.48,22.48,0,0,1,35,60.07a22.83,22.83,0,0,1-9.68-2.15" fill="none" stroke="#000" stroke-linecap="round" stroke-miterlimit="10" stroke-width="1.76"/><path d="M48.28,49.58v2.79a.34.34,0,0,1-.33.34H45.56V55a.33.33,0,0,1-.33.33H42.44A.34.34,0,0,1,42.1,55V52.71H39.81a.34.34,0,0,1-.33-.34V49.58a.34.34,0,0,1,.33-.34H42.1V46.86a.33.33,0,0,1,.34-.33h2.79a.32.32,0,0,1,.33.33v2.38H48A.34.34,0,0,1,48.28,49.58Z" fill="none" stroke="#191919" stroke-miterlimit="10" stroke-width="0.6"/><path d="M117.62,147.58v22.81h-.15a8,8,0,0,0,0-.86,8.79,8.79,0,0,0-17.57,0,7.87,7.87,0,0,0,0,.84H97.77a7.56,7.56,0,0,0,0-.83,8.79,8.79,0,0,0-17.57,0,6.74,6.74,0,0,0,0,.79H78.07a6.74,6.74,0,0,0,0-.79,8.79,8.79,0,0,0-17.58,0c0,.26,0,.51,0,.76h-2.2a6.34,6.34,0,0,0,0-.76,8.79,8.79,0,0,0-17.57,0q0,.38,0,.72h-2.2q0-.34,0-.72a8.78,8.78,0,1,0-17.56,0c0,.23,0,.46,0,.7H19c0-.24,0-.47,0-.7a8.79,8.79,0,0,0-17.57,0,4.86,4.86,0,0,0,0,.66H1.15V1.15l113.57.05h2.9V89.27" fill="none" stroke="#191919" stroke-linecap="round" stroke-miterlimit="10" stroke-width="2.3"/></g></g></svg>