<svg xmlns="http://www.w3.org/2000/svg" xmlns:xlink="http://www.w3.org/1999/xlink" viewBox="0 0 145.58 113.52"><defs><linearGradient id="Dégradé_sans_nom_10" x1="56.39" y1="6.92" x2="27.61" y2="30.28" gradientUnits="userSpaceOnUse"><stop offset="0" stop-color="#439cdf"/><stop offset="0.62" stop-color="#435cd1"/><stop offset="1" stop-color="#4338ca"/></linearGradient><linearGradient id="Dégradé_sans_nom_10-2" x1="89.17" y1="36.26" x2="89.31" y2="36.26" xlink:href="#Dégradé_sans_nom_10"/><linearGradient id="Dégradé_sans_nom_17" x1="89.24" y1="37.45" x2="89.24" y2="35.09" gradientUnits="userSpaceOnUse"><stop offset="0.02" stop-color="#4338ca"/><stop offset="1" stop-color="#4338ca"/></linearGradient><linearGradient id="Dégradé_sans_nom_10-3" x1="89.67" y1="24.3" x2="88.09" y2="25.58" xlink:href="#Dégradé_sans_nom_10"/><linearGradient id="Dégradé_sans_nom_10-4" x1="92.13" y1="28.15" x2="85.22" y2="33.75" xlink:href="#Dégradé_sans_nom_10"/></defs><g id="Calque_2" data-name="Calque 2"><g id="Calque_1-2" data-name="Calque 1"><g opacity="0.12"><rect x="46.14" y="16.68" width="10.97" height="10.12" transform="translate(26.88 71.99) rotate(-86.61)" stroke="#000" stroke-miterlimit="10" stroke-width="1.41"/><rect x="34.58" y="2.37" width="35.4" height="16.78" rx="1.26" transform="translate(0.73 -3.07) rotate(3.39)" stroke="#000" stroke-miterlimit="10" stroke-width="2.83"/><path d="M125.37,38.42,124.75,49a1,1,0,0,1-1.06,1L33.55,44.57a1,1,0,0,1-.94-1.08L33.24,33a3.89,3.89,0,0,1,4.07-3.7l84.46,5,.21,0A3.88,3.88,0,0,1,125.37,38.42Z" stroke="#000" stroke-miterlimit="10" stroke-width="1.41"/><path d="M26.7,54.2l5.49-6.86a.73.73,0,0,1,.58-.23l89.48,5.3,1.91.11a.85.85,0,0,1,.33.1.54.54,0,0,1,.22.2l20.12,32.36c.24.38-.1.81-.61.78l-3.48-.21L8.91,78c-.5,0-.79-.5-.51-.85l16-19.95" stroke="#000" stroke-linecap="round" stroke-miterlimit="10" stroke-width="1.27"/><path d="M6.23,82.49,5.18,100.35a4,4,0,0,0,3.73,4.29l130.9,7.75a4,4,0,0,0,4.21-3.82l1.06-17.86" stroke="#000" stroke-miterlimit="10" stroke-width="1"/><polyline points="110.6 40.15 116.23 42.44 77.92 40.17 84.74 38.62" stroke="#000" stroke-miterlimit="10" stroke-width="1" opacity="0.14"/><polygon points="110.37 42.31 84.64 40.79 84.73 38.61 85.99 8.54 86.32 8.56 90.57 14.16 94.74 9.12 98.94 14.65 103.11 9.61 107.32 15.15 110.96 10.77 110.96 10.76 110.98 10.75 111.55 10.05 111.81 10.17 111.81 10.21 110.37 42.31" stroke="#000" stroke-linecap="round" stroke-miterlimit="10" stroke-width="1.22"/><line x1="77.14" y1="40.68" x2="116.27" y2="43" stroke="#000" stroke-linecap="round" stroke-miterlimit="10" stroke-width="1.92"/><path d="M37.27,52.53l-6,8.59a.65.65,0,0,0,.48,1l41.68,2.47a.65.65,0,0,0,.67-.69l-.58-9a.64.64,0,0,0-.59-.61L37.82,52.26A.65.65,0,0,0,37.27,52.53Z" stroke="#000" stroke-miterlimit="10" stroke-width="1.26"/><polygon points="86.56 58.24 87.35 60.67 92.93 61 92.14 58.57 86.56 58.24" stroke="#000" stroke-miterlimit="10" stroke-width="0.96" opacity="0.75"/><polygon points="97.72 58.9 98.51 61.33 104.1 61.66 103.31 59.23 97.72 58.9" stroke="#000" stroke-miterlimit="10" stroke-width="0.96" opacity="0.75"/><polygon points="108.89 59.56 109.68 61.99 115.26 62.32 114.47 59.89 108.89 59.56" stroke="#000" stroke-miterlimit="10" stroke-width="0.96" opacity="0.75"/><polygon points="89.01 64.1 89.8 66.53 95.39 66.86 94.6 64.43 89.01 64.1" stroke="#000" stroke-miterlimit="10" stroke-width="0.96" opacity="0.75"/><polygon points="100.18 64.77 100.97 67.19 106.55 67.53 105.76 65.09 100.18 64.77" stroke="#000" stroke-miterlimit="10" stroke-width="0.96" opacity="0.75"/><polygon points="111.34 65.43 112.13 67.86 117.71 68.19 116.92 65.76 111.34 65.43" stroke="#000" stroke-miterlimit="10" stroke-width="0.96" opacity="0.75"/><polygon points="91.47 69.97 92.26 72.4 97.84 72.73 97.05 70.3 91.47 69.97" stroke="#000" stroke-miterlimit="10" stroke-width="0.96" opacity="0.75"/><polygon points="102.63 70.63 103.42 73.06 109 73.39 108.21 70.96 102.63 70.63" stroke="#000" stroke-miterlimit="10" stroke-width="0.96" opacity="0.75"/><polygon points="113.8 71.29 114.59 73.72 120.17 74.05 119.38 71.62 113.8 71.29" stroke="#000" stroke-miterlimit="10" stroke-width="0.96" opacity="0.75"/><path d="M98.07,30.24c0,.79,0,1.57,0,2.36"/><path d="M97,30.24c0,.79,0,1.57,0,2.36a1.17,1.17,0,0,0,.31.75,1.06,1.06,0,0,0,1.5,0,1.08,1.08,0,0,0,.31-.75c0-.79,0-1.57,0-2.36a1.06,1.06,0,1,0-2.11,0Z"/><path d="M98.33,21.13l.14-2.39"/><path d="M99.39,21.13l.14-2.39A1.06,1.06,0,0,0,97.72,18a1.17,1.17,0,0,0-.31.75l-.14,2.39a1.06,1.06,0,0,0,.31.75,1,1,0,0,0,.75.31,1.08,1.08,0,0,0,.75-.31,1.2,1.2,0,0,0,.31-.75Z"/><path d="M99.72,21.43a4.45,4.45,0,0,0-1.85-.19,1.86,1.86,0,0,0-1,.38,2.31,2.31,0,0,0-.59,1.47,1.42,1.42,0,0,0,0,.74,1.19,1.19,0,0,0,.41.48c1,.76,2.42.85,3.36,1.7a2.45,2.45,0,0,1,.82,1.88,2,2,0,0,1-1.07,1.7,3,3,0,0,1-1.42.18,9.82,9.82,0,0,1-3.68-.95"/><path d="M100,20.41c-1.38-.43-3.29-.45-4.21.86a4,4,0,0,0-.58,1.9,2.18,2.18,0,0,0,1,2.06c.93.67,2.2.81,3,1.45a1.46,1.46,0,0,1,.61,1.14,1,1,0,0,1-.43.8,3.62,3.62,0,0,1-2,0,10,10,0,0,1-2.13-.68,1.09,1.09,0,0,0-1.45.38,1.07,1.07,0,0,0,.38,1.45c2.26,1.05,6.67,2.26,7.64-1.08a3.51,3.51,0,0,0-1.48-3.76,7.91,7.91,0,0,0-1.71-.82c-.22-.08-.49-.18-.67-.26s-.5-.34-.71-.42c0,0,.08.15,0,.08,0,.09,0,.09,0,0a.76.76,0,0,1,0-.15c0-.12,0-.25.05-.38s.09-.48.25-.57a2.73,2.73,0,0,1,1.82.09c1.3.41,1.86-1.64.56-2.05Z"/><path d="M125.37,38.42,124.75,49a1,1,0,0,1-1.06,1l-2.34-.14a.65.65,0,0,1,.4-.1.77.77,0,0,0,.82-.73l.71-12.06a2.86,2.86,0,0,0-1.3-2.59A3.88,3.88,0,0,1,125.37,38.42Z" stroke="#000" stroke-miterlimit="10" stroke-width="1" opacity="0.14"/><path d="M144.22,86l-3.48-.21L122.25,52.41l2.24.21a.54.54,0,0,1,.22.2l20.12,32.36C145.07,85.56,144.73,86,144.22,86Z" stroke="#000" stroke-miterlimit="10" stroke-width="1" opacity="0.14"/><polygon points="110.37 42.31 84.64 40.79 84.73 38.61 109.23 40.06 110.96 10.76 110.98 10.75 111.81 10.21 110.37 42.31" stroke="#000" stroke-miterlimit="10" stroke-width="1" opacity="0.14"/></g><rect x="36.91" y="24.03" width="10.18" height="10.82" fill="none" stroke="#191919" stroke-miterlimit="10" stroke-width="1.41"/><rect x="24.18" y="10.33" width="35.64" height="16.55" rx="1.26" stroke="#191919" stroke-miterlimit="10" stroke-width="2.81" fill="url(#Dégradé_sans_nom_10)"/><path d="M117.09,41.56V52a1,1,0,0,1-1,1H25.19a1,1,0,0,1-1-1V41.56a3.87,3.87,0,0,1,3.87-3.87h85.37A3.86,3.86,0,0,1,117.09,41.56Z" fill="#fff" stroke="#191919" stroke-miterlimit="10" stroke-width="1.41"/><polygon points="2 85.64 2 95.64 140 95.64 140 87.64 129 82.64 105 80.64 8 83.64 2 85.64" fill="#fff"/><path d="M18.89,62.84,24,55.77a.72.72,0,0,1,.57-.26h92.15a.77.77,0,0,1,.34.08.6.6,0,0,1,.23.18l22.14,30.68c.26.36-.06.8-.57.8H2.42c-.51,0-.83-.44-.57-.8L16.69,65.88" fill="#fff" stroke="#191919" stroke-linecap="round" stroke-miterlimit="10" stroke-width="1.26"/><path d="M0,91.88v17.63a4,4,0,0,0,4,4H136a4,4,0,0,0,4-4V91.88" fill="#3d3d3d"/><polyline points="102.34 44.12 108.14 46.05 69.52 46.05 76.28 44.12" fill="#191919" opacity="0.14"/><polygon points="102.25 46.26 76.31 46.26 76.27 44.12 75.73 14.45 76.07 14.45 80.68 19.71 84.57 14.51 89.12 19.71 93.01 14.51 97.57 19.71 100.96 15.18 100.96 15.17 100.98 15.16 101.51 14.45 101.78 14.55 101.78 14.59 102.25 46.26" fill="#fff" stroke="#191919" stroke-linecap="round" stroke-miterlimit="10" stroke-width="1.21"/><line x1="68.76" y1="46.6" x2="108.21" y2="46.6" fill="none" stroke="#191919" stroke-linecap="round" stroke-miterlimit="10" stroke-width="1.91"/><path d="M29.4,60.58l-5.55,8.8a.64.64,0,0,0,.54,1h42a.64.64,0,0,0,.64-.72l-1.12-8.8a.64.64,0,0,0-.63-.56H29.94A.63.63,0,0,0,29.4,60.58Z" fill="none" stroke="#191919" stroke-miterlimit="10" stroke-width="1.25"/><polygon points="79.27 63.33 80.21 65.67 85.83 65.67 84.9 63.33 79.27 63.33" fill="#191919" stroke="#fff" stroke-miterlimit="10" stroke-width="0.96" opacity="0.75"/><polygon points="90.53 63.33 91.46 65.67 97.09 65.67 96.15 63.33 90.53 63.33" fill="#191919" stroke="#fff" stroke-miterlimit="10" stroke-width="0.96" opacity="0.75"/><polygon points="101.78 63.33 102.72 65.67 108.35 65.67 107.41 63.33 101.78 63.33" fill="#191919" stroke="#fff" stroke-miterlimit="10" stroke-width="0.96" opacity="0.75"/><polygon points="82.08 68.96 83.02 71.3 88.65 71.3 87.71 68.96 82.08 68.96" fill="#191919" stroke="#fff" stroke-miterlimit="10" stroke-width="0.96" opacity="0.75"/><polygon points="93.34 68.96 94.28 71.3 99.91 71.3 98.97 68.96 93.34 68.96" fill="#191919" stroke="#fff" stroke-miterlimit="10" stroke-width="0.96" opacity="0.75"/><polygon points="104.6 68.96 105.53 71.3 111.16 71.3 110.22 68.96 104.6 68.96" fill="#191919" stroke="#fff" stroke-miterlimit="10" stroke-width="0.96" opacity="0.75"/><polygon points="84.9 74.59 85.83 76.93 91.46 76.93 90.53 74.59 84.9 74.59" fill="#191919" stroke="#fff" stroke-miterlimit="10" stroke-width="0.96" opacity="0.75"/><polygon points="96.15 74.59 97.09 76.93 102.72 76.93 101.78 74.59 96.15 74.59" fill="#191919" stroke="#fff" stroke-miterlimit="10" stroke-width="0.96" opacity="0.75"/><polygon points="107.41 74.59 108.35 76.93 113.98 76.93 113.04 74.59 107.41 74.59" fill="#191919" stroke="#fff" stroke-miterlimit="10" stroke-width="0.96" opacity="0.75"/><path d="M89.17,35.1c0,.78.07,1.55.14,2.32" fill="url(#Dégradé_sans_nom_10-2)"/><path d="M88.12,35.1c0,.78.07,1.55.14,2.32a1.14,1.14,0,0,0,.3.75,1.12,1.12,0,0,0,.75.31,1.15,1.15,0,0,0,.75-.31,1.06,1.06,0,0,0,.31-.75c-.07-.77-.12-1.54-.14-2.32a1.08,1.08,0,0,0-.31-.74,1.06,1.06,0,0,0-1.8.74Z" fill="url(#Dégradé_sans_nom_17)"/><path d="M89.94,26.12V23.76a1.08,1.08,0,0,0-.31-.74,1,1,0,0,0-.75-.31,1.06,1.06,0,0,0-1,1.05v2.36a1.1,1.1,0,0,0,.31.75,1.05,1.05,0,0,0,1.8-.75Z" fill="url(#Dégradé_sans_nom_10-3)"/><path d="M90.58,25.32c-1.42-.35-3.36-.3-4.23,1.07a3.85,3.85,0,0,0-.47,2A2.16,2.16,0,0,0,87,30.29c1,.62,2.31.67,3.22,1.3a1.45,1.45,0,0,1,.62,1,.92.92,0,0,1-.46.83,4.15,4.15,0,0,1-2.1,0A10.26,10.26,0,0,1,86,32.88a1.07,1.07,0,0,0-1.3.74,1.09,1.09,0,0,0,.74,1.3,10.84,10.84,0,0,0,4.25.75,3.49,3.49,0,0,0,2.2-.73,3,3,0,0,0,1-1.73,3.49,3.49,0,0,0-1.82-3.57A8.8,8.8,0,0,0,89.27,29a7.35,7.35,0,0,1-.79-.27A5.29,5.29,0,0,0,88,28.4c-.17,0,.1,0,0,.11s0-.1,0-.15,0-.34,0-.42a1,1,0,0,1,.17-.5A2.46,2.46,0,0,1,90,27.36a1.06,1.06,0,0,0,.56-2Z" fill="url(#Dégradé_sans_nom_10-4)"/><path d="M117.09,41.56V52a1,1,0,0,1-1,1h-2.36a.69.69,0,0,1,.39-.11.78.78,0,0,0,.79-.77V40.17a2.8,2.8,0,0,0-1.47-2.47A3.86,3.86,0,0,1,117.09,41.56Z" fill="#191919" opacity="0.14"/><path d="M138.85,87.25h-3.5L114.78,55.51l2.27.08a.6.6,0,0,1,.23.18l22.14,30.68C139.68,86.81,139.36,87.25,138.85,87.25Z" fill="#191919" opacity="0.14"/><polygon points="102.25 46.26 76.31 46.26 76.27 44.12 100.96 44.12 100.96 15.17 100.98 15.16 101.78 14.59 102.25 46.26" fill="#191919" opacity="0.14"/></g></g></svg>