<svg xmlns="http://www.w3.org/2000/svg" xmlns:xlink="http://www.w3.org/1999/xlink" viewBox="0 0 158.54 125"><defs><linearGradient id="Dégradé_sans_nom_10" x1="34.17" y1="60.25" x2="16.96" y2="74.22" gradientUnits="userSpaceOnUse"><stop offset="0" stop-color="#439cdf"/><stop offset="0.62" stop-color="#435cd1"/><stop offset="1" stop-color="#4338ca"/></linearGradient><linearGradient id="Dégradé_sans_nom_10-2" x1="71.2" y1="94.57" x2="14.15" y2="140.87" xlink:href="#Dégradé_sans_nom_10"/><linearGradient id="Dégradé_sans_nom_10-3" x1="53.58" y1="42.65" x2="-20.41" y2="-25.33" xlink:href="#Dégradé_sans_nom_10"/><linearGradient id="Dégradé_sans_nom_10-4" x1="92.83" y1="-31.67" x2="93.05" y2="-31.67" gradientTransform="matrix(0.99, -0.15, 0.15, 0.99, -55.72, 76.21)" xlink:href="#Dégradé_sans_nom_10"/></defs><g style="isolation:isolate"><g id="Calque_2" data-name="Calque 2"><g id="Calque_1-2" data-name="Calque 1"><g opacity="0.12"><rect x="28.08" y="66.06" width="6.68" height="6.16" transform="translate(-39.45 96.42) rotate(-86.61)" stroke="#000" stroke-miterlimit="10" stroke-width="0.86"/><polyline points="67.31 80.35 70.74 81.74 47.42 80.36 51.58 79.42" stroke="#000" stroke-miterlimit="10" stroke-width="0.61" opacity="0.14"/><line x1="46.95" y1="80.67" x2="70.76" y2="82.08" stroke="#000" stroke-linecap="round" stroke-miterlimit="10" stroke-width="1.17"/><path d="M22.68,87.88,19,93.11a.39.39,0,0,0,.29.62l25.36,1.5a.38.38,0,0,0,.41-.42l-.35-5.46a.39.39,0,0,0-.36-.37L23,87.72A.39.39,0,0,0,22.68,87.88Z" stroke="#000" stroke-miterlimit="10" stroke-width="0.77"/><polygon points="52.68 91.36 53.16 92.84 56.56 93.04 56.08 91.56 52.68 91.36" stroke="#000" stroke-miterlimit="10" stroke-width="0.59" opacity="0.75"/><polygon points="59.48 91.76 59.95 93.24 63.35 93.44 62.87 91.96 59.48 91.76" stroke="#000" stroke-miterlimit="10" stroke-width="0.59" opacity="0.75"/><polygon points="66.27 92.16 66.75 93.64 70.15 93.84 69.67 92.36 66.27 92.16" stroke="#000" stroke-miterlimit="10" stroke-width="0.59" opacity="0.75"/><polygon points="54.17 94.93 54.65 96.41 58.05 96.61 57.57 95.13 54.17 94.93" stroke="#000" stroke-miterlimit="10" stroke-width="0.59" opacity="0.75"/><polygon points="60.97 95.33 61.45 96.81 64.85 97.01 64.36 95.53 60.97 95.33" stroke="#000" stroke-miterlimit="10" stroke-width="0.59" opacity="0.75"/><polygon points="67.76 95.73 68.24 97.21 71.64 97.41 71.16 95.93 67.76 95.73" stroke="#000" stroke-miterlimit="10" stroke-width="0.59" opacity="0.75"/><polygon points="55.67 98.5 56.15 99.97 59.55 100.18 59.06 98.7 55.67 98.5" stroke="#000" stroke-miterlimit="10" stroke-width="0.59" opacity="0.75"/><polygon points="62.46 98.9 62.94 100.38 66.34 100.58 65.86 99.1 62.46 98.9" stroke="#000" stroke-miterlimit="10" stroke-width="0.59" opacity="0.75"/><polygon points="69.26 99.3 69.74 100.78 73.13 100.98 72.65 99.5 69.26 99.3" stroke="#000" stroke-miterlimit="10" stroke-width="0.59" opacity="0.75"/><path d="M59.69,74.32c0,.48,0,1,0,1.43"/><path d="M59,74.32c0,.48,0,1,0,1.43a.65.65,0,0,0,.65.65.68.68,0,0,0,.45-.19.63.63,0,0,0,.19-.46c0-.48,0-1,0-1.43a.65.65,0,0,0-.64-.65.67.67,0,0,0-.65.65Z"/><path d="M59.84,68.78l.09-1.46"/><path d="M60.49,68.78l.08-1.46a.64.64,0,0,0-.19-.45.6.6,0,0,0-.45-.19.62.62,0,0,0-.46.19.68.68,0,0,0-.19.45l-.08,1.46a.61.61,0,0,0,.19.45.64.64,0,0,0,.45.19.66.66,0,0,0,.46-.19.7.7,0,0,0,.19-.45Z"/><path d="M60.69,69a2.7,2.7,0,0,0-1.13-.12,1.23,1.23,0,0,0-.61.23,1.42,1.42,0,0,0-.35.9.86.86,0,0,0,0,.45.78.78,0,0,0,.25.29c.62.46,1.47.52,2,1a1.46,1.46,0,0,1,.5,1.14,1.19,1.19,0,0,1-.65,1,1.68,1.68,0,0,1-.86.11,6,6,0,0,1-2.24-.57"/><path d="M60.86,68.34a2.27,2.27,0,0,0-2.56.52A2.31,2.31,0,0,0,58,70a1.31,1.31,0,0,0,.59,1.26c.57.41,1.34.49,1.86.88a.9.9,0,0,1,.37.7.6.6,0,0,1-.26.48,2.11,2.11,0,0,1-1.22,0A5.32,5.32,0,0,1,58,72.9a.67.67,0,0,0-.89.23.66.66,0,0,0,.23.88c1.38.64,4.06,1.38,4.65-.65a2.12,2.12,0,0,0-.9-2.29,4.34,4.34,0,0,0-1-.5l-.4-.16c-.15-.07-.31-.21-.43-.26s0,.1,0,0h0a.28.28,0,0,1,0-.09,1,1,0,0,1,0-.24c0-.15.05-.29.15-.34a1.64,1.64,0,0,1,1.11,0c.79.25,1.13-1,.34-1.24Z"/><path d="M76.3,79.3l-.38,6.4a.61.61,0,0,1-.64.59l-1.43-.09a.4.4,0,0,1,.25,0,.49.49,0,0,0,.5-.45L75,78.36a1.72,1.72,0,0,0-.8-1.57A2.34,2.34,0,0,1,76.3,79.3Z" stroke="#000" stroke-miterlimit="10" stroke-width="0.61" opacity="0.14"/></g><rect x="22.46" y="70.54" width="6.2" height="6.58" fill="none" stroke="#191919" stroke-miterlimit="10" stroke-width="0.86"/><rect x="14.72" y="62.2" width="21.69" height="10.07" rx="1.26" stroke="#191919" stroke-miterlimit="10" stroke-width="1.71" fill="url(#Dégradé_sans_nom_10)"/><path d="M71.26,81.21v6.33a.61.61,0,0,1-.61.61H15.33a.61.61,0,0,1-.61-.61V81.21a2.36,2.36,0,0,1,2.36-2.36H69A2.34,2.34,0,0,1,71.26,81.21Z" fill="#fff" stroke="#191919" stroke-miterlimit="10"/><polygon points="1.22 108.03 1.22 114.12 85.2 114.12 85.2 109.25 78.51 106.21 63.9 104.99 4.87 106.82 1.22 108.03" fill="#fff"/><path d="M11.49,94.16l3.11-4.3A.43.43,0,0,1,15,89.7H71a.5.5,0,0,1,.21,0,.36.36,0,0,1,.14.11l13.47,18.67c.16.21,0,.48-.35.48h-83c-.31,0-.5-.27-.34-.48l9-12.52" fill="#fff" stroke="#191919" stroke-linecap="round" stroke-miterlimit="10"/><path d="M0,111.83v10.73A2.44,2.44,0,0,0,2.44,125H82.77a2.43,2.43,0,0,0,2.43-2.44V111.83" fill="url(#Dégradé_sans_nom_10-2)"/><polyline points="62.29 82.77 65.81 83.94 42.31 83.94 46.42 82.77" fill="#191919" opacity="0.14"/><polygon points="62.23 84.07 46.44 84.07 46.41 82.77 46.09 64.71 46.3 64.71 49.1 67.91 51.47 64.74 54.24 67.91 56.6 64.74 59.38 67.91 61.45 65.16 61.45 65.15 61.46 65.14 61.78 64.71 61.95 64.77 61.95 64.79 62.23 84.07" fill="#fff" stroke="#191919" stroke-linecap="round" stroke-miterlimit="10" stroke-width="0.74"/><line x1="41.85" y1="84.27" x2="65.86" y2="84.27" fill="none" stroke="#191919" stroke-linecap="round" stroke-miterlimit="10" stroke-width="1.16"/><path d="M17.89,92.78l-3.38,5.36a.39.39,0,0,0,.33.6H40.42a.39.39,0,0,0,.38-.44l-.67-5.36a.4.4,0,0,0-.39-.34H18.22A.41.41,0,0,0,17.89,92.78Z" fill="none" stroke="#191919" stroke-miterlimit="10" stroke-width="0.76"/><polygon points="48.24 94.46 48.81 95.88 52.24 95.88 51.67 94.46 48.24 94.46" fill="#191919" stroke="#fff" stroke-miterlimit="10" stroke-width="0.58" opacity="0.75"/><polygon points="55.09 94.46 55.66 95.88 59.09 95.88 58.52 94.46 55.09 94.46" fill="#191919" stroke="#fff" stroke-miterlimit="10" stroke-width="0.58" opacity="0.75"/><polygon points="61.95 94.46 62.52 95.88 65.94 95.88 65.37 94.46 61.95 94.46" fill="#191919" stroke="#fff" stroke-miterlimit="10" stroke-width="0.58" opacity="0.75"/><polygon points="49.95 97.88 50.53 99.31 53.95 99.31 53.38 97.88 49.95 97.88" fill="#191919" stroke="#fff" stroke-miterlimit="10" stroke-width="0.58" opacity="0.75"/><polygon points="56.81 97.88 57.38 99.31 60.8 99.31 60.23 97.88 56.81 97.88" fill="#191919" stroke="#fff" stroke-miterlimit="10" stroke-width="0.58" opacity="0.75"/><polygon points="63.66 97.88 64.23 99.31 67.65 99.31 67.08 97.88 63.66 97.88" fill="#191919" stroke="#fff" stroke-miterlimit="10" stroke-width="0.58" opacity="0.75"/><polygon points="51.67 101.31 52.24 102.73 55.66 102.73 55.09 101.31 51.67 101.31" fill="#191919" stroke="#fff" stroke-miterlimit="10" stroke-width="0.58" opacity="0.75"/><polygon points="58.52 101.31 59.09 102.73 62.52 102.73 61.95 101.31 58.52 101.31" fill="#191919" stroke="#fff" stroke-miterlimit="10" stroke-width="0.58" opacity="0.75"/><polygon points="65.37 101.31 65.94 102.73 69.37 102.73 68.8 101.31 65.37 101.31" fill="#191919" stroke="#fff" stroke-miterlimit="10" stroke-width="0.58" opacity="0.75"/><path d="M71.26,81.21v6.33a.61.61,0,0,1-.61.61H69.21a.38.38,0,0,1,.24-.07.48.48,0,0,0,.48-.47V80.36a1.71,1.71,0,0,0-.9-1.5A2.34,2.34,0,0,1,71.26,81.21Z" fill="#191919" opacity="0.14"/><path d="M84.5,109H82.37L69.86,89.7l1.38,0a.36.36,0,0,1,.14.11l13.47,18.67C85,108.74,84.82,109,84.5,109Z" fill="#191919" opacity="0.14"/><polygon points="62.23 84.07 46.44 84.07 46.41 82.77 61.45 82.77 61.45 65.15 61.46 65.14 61.95 64.79 62.23 84.07" fill="#191919" opacity="0.14"/><line x1="49.98" y1="71" x2="51.98" y2="71" fill="none" stroke="#000" stroke-miterlimit="10" stroke-width="0.88"/><line x1="54.98" y1="71" x2="56.98" y2="71" fill="none" stroke="#000" stroke-miterlimit="10" stroke-width="0.88"/><line x1="49.98" y1="74.5" x2="56.98" y2="74.5" fill="none" stroke="#000" stroke-miterlimit="10" stroke-width="0.88"/><line x1="49.98" y1="77.5" x2="56.98" y2="77.5" fill="none" stroke="#000" stroke-miterlimit="10" stroke-width="0.88"/><g opacity="0.25"><path d="M137.9,51.56a19.82,19.82,0,1,1-19.82-19.8,20.35,20.35,0,0,1,2.36.14A19.81,19.81,0,0,1,137.9,51.56Z" fill="#191919" opacity="0.43"/><path d="M88.32,87.7a36.44,36.44,0,0,1,4.59-5.85,1.22,1.22,0,0,1,1.48-.2A33.31,33.31,0,0,0,114.8,85.8a32.93,32.93,0,0,0,14.75-5.58A35.52,35.52,0,0,0,133.62,77a1.2,1.2,0,0,1,1.48-.16c17.8,11.33,15.63,19.68,15.63,19.68-.31,1.2-1.34,4-5.75,6.53" fill="#191919" opacity="0.49"/></g><path d="M102,109,81,89.83l2.62-1.71L91,83l42.31,6.83L149,108.59,106,109Z" fill="#fff"/><path d="M130.9,53.56a19.82,19.82,0,1,1-19.82-19.8,20.35,20.35,0,0,1,2.36.14A19.81,19.81,0,0,1,130.9,53.56Z" fill="#fff" stroke="#191919" stroke-linecap="round" stroke-miterlimit="10" stroke-width="3"/><path d="M84.82,85a36.32,36.32,0,0,1,5.26-5.26,1.2,1.2,0,0,1,1.49,0,33.31,33.31,0,0,0,19.77,6.55,32.83,32.83,0,0,0,15.31-3.79,34.45,34.45,0,0,0,4.43-2.76,1.2,1.2,0,0,1,1.49,0,39,39,0,0,1,13.17,21.41c.11.47.22,1,.31,1.44" fill="#fff" stroke="#191919" stroke-linecap="round" stroke-miterlimit="10" stroke-width="3"/><path d="M144.48,103.53a37.46,37.46,0,0,0-8.89-13.44A33.49,33.49,0,0,0,124,82.82,40.15,40.15,0,0,0,129,79.76a4.11,4.11,0,0,1,1.71,0c1.81.41,8.15,4.28,11.69,14A36.66,36.66,0,0,1,144.48,103.53Z" fill="#191919" opacity="0.21"/><path d="M130.9,53.26a19.28,19.28,0,0,1-.93,6,19.58,19.58,0,0,1-6,8.88c.5-1.66,4.35-15.26-4.17-26.1a26.69,26.69,0,0,0-10.94-8.12,20.36,20.36,0,0,1,13.68,3.38A20,20,0,0,1,130.9,53.26Z" fill="#191919" opacity="0.25"/><line x1="90.98" y1="108.5" x2="156.98" y2="108.5" fill="none" stroke="#191919" stroke-linecap="round" stroke-miterlimit="10" stroke-width="3.12"/><g style="mix-blend-mode:screen"><path d="M36.86,26.12c-.13,1.25-.21,2.49-.26,3.74" fill="#191919"/><path d="M38.82,11.75,39.31,8" fill="#191919"/><path d="M41.16,12.41a6.89,6.89,0,0,0-3-.52,3,3,0,0,0-1.67.49,3.57,3.57,0,0,0-1.11,2.27,2.25,2.25,0,0,0,0,1.18,1.9,1.9,0,0,0,.62.81c1.56,1.32,3.83,1.62,5.26,3.08A3.91,3.91,0,0,1,42.4,22.8a3.15,3.15,0,0,1-1.92,2.58,4.91,4.91,0,0,1-2.32.13,16.66,16.66,0,0,1-5.86-1.93" fill="#191919"/></g><circle cx="30.13" cy="22" r="21.99" fill="#fff"/><path d="M11.71,12.43a22.57,22.57,0,0,0,1.67,22.45c4.81,6.95,12.94,8.79,12.66,8.73a22,22,0,1,1,9.39-43,33.5,33.5,0,0,0-10,.47A21.65,21.65,0,0,0,11.71,12.43Z" fill="#191919"/><path d="M35.93,38.29a16.53,16.53,0,0,1-3.57.59H32.3a.15.15,0,0,1-.09,0h-1l-.34,0a8.25,8.25,0,0,1-1.22-.09h-.12a16.61,16.61,0,0,1-3.94-32c.44-.17.89-.3,1.35-.44a16.69,16.69,0,0,1,4.34-.6h.37a1.12,1.12,0,0,1,.37,0,16.61,16.61,0,0,1,3.93,32.59Z" fill="url(#Dégradé_sans_nom_10-3)"/><path d="M23.84,36.7a16.71,16.71,0,0,0,6.79,2.15c-.3,0-.63,0-1-.06h-.12a16.61,16.61,0,0,1-3.94-32c.44-.17.89-.3,1.35-.44a20.69,20.69,0,0,1,4.71-.61,1.12,1.12,0,0,1,.37,0s-2.1.26-3.57.59c-4,.91-9.95,4.2-12.17,10.69-2.32,6.75.91,12.61,1.51,13.65A16.91,16.91,0,0,0,23.84,36.7Z" fill="#191919"/><path d="M32.3,38.88a.15.15,0,0,1-.09,0h-1l-.34,0-.22,0C31.51,38.9,32.12,38.88,32.3,38.88Z" fill="#191919"/><g style="mix-blend-mode:screen"><path d="M31.22,29.48c.21,1.23.47,2.46.76,3.67" fill="url(#Dégradé_sans_nom_10-4)"/><path d="M29.57,29.94c.22,1.23.48,2.45.77,3.66a1.74,1.74,0,0,0,.78,1,1.7,1.7,0,0,0,1.32.17,1.74,1.74,0,0,0,1.19-2.09c-.3-1.22-.55-2.44-.77-3.67a1.74,1.74,0,0,0-.78-1,1.79,1.79,0,0,0-1.32-.17,1.69,1.69,0,0,0-1,.78l-.18.41a1.76,1.76,0,0,0,0,.91Z" fill="#fff"/><path d="M30.86,14.66l-.56-3.77a1.77,1.77,0,0,0-.78-1A1.79,1.79,0,0,0,28.2,9.7a1.75,1.75,0,0,0-1,.79l-.17.4a1.76,1.76,0,0,0,0,.91l.56,3.77a1.74,1.74,0,0,0,.78,1,1.77,1.77,0,0,0,1.31.17,1.68,1.68,0,0,0,1-.78l.18-.41a1.76,1.76,0,0,0,0-.91Z" fill="#fff"/><path d="M31.64,13.41c-2.13-.21-5.06.32-6.15,2.4S24.77,21,26.87,22a10.45,10.45,0,0,0,3.16.87,8.35,8.35,0,0,1,2.74.67A2.18,2.18,0,0,1,34,25.13c0,.22,0,.08,0,0a2.67,2.67,0,0,1,0,.4c0-.13-.08.27-.11.33a1.24,1.24,0,0,1-.5.58,6.87,6.87,0,0,1-3,.52,15.1,15.1,0,0,1-3.73-.38,1.76,1.76,0,0,0-2.1,1.19,1.73,1.73,0,0,0,1.19,2.1c4,.91,11.4,1.25,11.71-4.44a5.55,5.55,0,0,0-3.59-5.19,13.93,13.93,0,0,0-3.19-.73,13,13,0,0,1-1.41-.29,3.8,3.8,0,0,1-.51-.15c-.08,0-.2-.13-.28-.14s-.12-.07-.06,0l.14.23c-.17-.11-.12-1-.09-1.34s0-.4.22-.54a3.64,3.64,0,0,1,1.26-.43,6.49,6.49,0,0,1,1.76,0,1.71,1.71,0,0,0,1.71-1.7,1.73,1.73,0,0,0-1.71-1.7Z" fill="#fff"/></g></g></g></g></svg>