<svg xmlns="http://www.w3.org/2000/svg" xmlns:xlink="http://www.w3.org/1999/xlink" viewBox="0 0 212 199"><defs><linearGradient id="Dégradé_sans_nom_10" x1="-972.53" y1="-517.29" x2="-968.19" y2="-478.87" gradientTransform="matrix(0.85, 0.7, -0.6, 0.73, 663.97, 1180.11)" gradientUnits="userSpaceOnUse"><stop offset="0" stop-color="#439cdf"/><stop offset="0.62" stop-color="#435cd1"/><stop offset="1" stop-color="#4338ca"/></linearGradient><linearGradient id="Dégradé_sans_nom_21" x1="-970.41" y1="356.44" x2="-970.27" y2="357.7" gradientTransform="matrix(0.85, 0.7, -1.16, 1.41, 1351.85, 343.88)" gradientUnits="userSpaceOnUse"><stop offset="0" stop-color="#435fdf"/><stop offset="0.09" stop-color="#435bdd"/><stop offset="1" stop-color="#4338ca"/></linearGradient><linearGradient id="Dégradé_sans_nom_21-2" x1="-970.63" y1="348.16" x2="-970.05" y2="353.27" xlink:href="#Dégradé_sans_nom_21"/><linearGradient id="Dégradé_sans_nom_21-3" x1="-970.45" y1="343.42" x2="-970.23" y2="345.31" xlink:href="#Dégradé_sans_nom_21"/><linearGradient id="Dégradé_sans_nom_21-4" x1="-971.02" y1="298.32" x2="-969.66" y2="310.4" xlink:href="#Dégradé_sans_nom_21"/><linearGradient id="Dégradé_sans_nom_21-5" x1="-967.25" y1="334.72" x2="-967.2" y2="335.18" xlink:href="#Dégradé_sans_nom_21"/><linearGradient id="Dégradé_sans_nom_21-6" x1="-967.25" y1="329.07" x2="-967.2" y2="329.54" xlink:href="#Dégradé_sans_nom_21"/><linearGradient id="Dégradé_sans_nom_21-7" x1="-967.25" y1="323.42" x2="-967.2" y2="323.89" xlink:href="#Dégradé_sans_nom_21"/><linearGradient id="Dégradé_sans_nom_10-2" x1="79" y1="53.83" x2="35.12" y2="89.44" gradientTransform="matrix(1, 0, 0, 1, 0, 0)" xlink:href="#Dégradé_sans_nom_10"/><linearGradient id="Dégradé_sans_nom_10-3" x1="4.32" y1="93.7" x2="14.48" y2="93.7" gradientTransform="matrix(1, 0, 0, 1, 0, 0)" xlink:href="#Dégradé_sans_nom_10"/><linearGradient id="Dégradé_sans_nom_29" x1="91.03" y1="55.66" x2="95.84" y2="55.66" gradientUnits="userSpaceOnUse"><stop offset="0" stop-color="#439cdf"/><stop offset="0.18" stop-color="#437ed9"/><stop offset="0.39" stop-color="#435fd2"/><stop offset="0.61" stop-color="#434ace"/><stop offset="0.81" stop-color="#433ccb"/><stop offset="1" stop-color="#4338ca"/></linearGradient></defs><g id="Calque_2" data-name="Calque 2"><g id="Calque_1-2" data-name="Calque 1"><path d="M147.5,61.86l2.05,3.75a.64.64,0,0,0,.2.2l3.75,2a.49.49,0,0,1,0,.87l-3.75,2a.64.64,0,0,0-.2.2l-2.05,3.75a.49.49,0,0,1-.87,0l-2-3.75a.64.64,0,0,0-.2-.2l-3.75-2a.49.49,0,0,1,0-.87l3.75-2a.64.64,0,0,0,.2-.2l2-3.75A.49.49,0,0,1,147.5,61.86Z" fill="#191919" opacity="0.31"/><path d="M150.49,73.46l1.07,2a.27.27,0,0,0,.11.1l2,1.07a.26.26,0,0,1,0,.46l-2,1.07a.29.29,0,0,0-.11.11l-1.07,2a.26.26,0,0,1-.46,0l-1.07-2a.27.27,0,0,0-.1-.11l-2-1.07a.26.26,0,0,1,0-.46l2-1.07a.24.24,0,0,0,.1-.1l1.07-2A.26.26,0,0,1,150.49,73.46Z" fill="#191919" opacity="0.31"/><path d="M122.71,146.84l17.56-21.36,14.56.06-23.27,28.58Z" fill="url(#Dégradé_sans_nom_10)"/><line x1="107.6" y1="164.44" x2="117.2" y2="172.34" stroke="#282828" stroke-linecap="round" stroke-miterlimit="10" stroke-width="4" fill="url(#Dégradé_sans_nom_21)"/><line x1="122.77" y1="155.78" x2="116.76" y2="163.08" stroke="#282828" stroke-linecap="round" stroke-miterlimit="10" stroke-width="4" fill="url(#Dégradé_sans_nom_21-2)"/><line x1="119.93" y1="144.55" x2="134.34" y2="156.4" stroke="#282828" stroke-linecap="round" stroke-miterlimit="10" stroke-width="4" fill="url(#Dégradé_sans_nom_21-3)"/><rect x="117.42" y="124.18" width="53.26" height="11.46" stroke-width="2.13" fill="none" stroke="#282828" stroke-linecap="round" stroke-miterlimit="10" transform="translate(-47.79 158.63) rotate(-50.56)"/><line x1="163.34" y1="102.39" x2="167.34" y2="105.68" fill="none" stroke="#282828" stroke-linecap="round" stroke-miterlimit="10" stroke-width="4"/><line x1="166.43" y1="102.71" x2="180.62" y2="85.46" stroke="#282828" stroke-linecap="round" stroke-miterlimit="10" stroke-width="1.33" fill="url(#Dégradé_sans_nom_21-4)"/><line x1="138.92" y1="137.92" x2="142.48" y2="140.85" stroke="#282828" stroke-miterlimit="10" stroke-width="2" fill="url(#Dégradé_sans_nom_21-5)"/><line x1="145.47" y1="129.96" x2="149.02" y2="132.89" stroke="#282828" stroke-miterlimit="10" stroke-width="2" fill="url(#Dégradé_sans_nom_21-6)"/><line x1="152.02" y1="122" x2="155.57" y2="124.93" stroke="#282828" stroke-miterlimit="10" stroke-width="2" fill="url(#Dégradé_sans_nom_21-7)"/><path d="M32.58,83.68S56.76,54.35,72.3,47.45l5.17,5.19S65.39,56.08,60.2,75.07s-19,19-19,19Z" stroke="#191919" stroke-miterlimit="10" stroke-width="2.13" fill="url(#Dégradé_sans_nom_10-2)"/><path d="M29.12,88.86,36,95.77c-2.3,2.8-5.83,3.47-8,2.06a5,5,0,0,1-2.15-4.08A5.4,5.4,0,0,1,29.12,88.86Z" stroke="#191919" stroke-miterlimit="10" stroke-width="2.13" fill="url(#Dégradé_sans_nom_10-3)"/><path d="M85.71,36.31a2.76,2.76,0,0,1,1.21,1.14l3.85,6.74a3.14,3.14,0,0,1-.84,4.08l-2.14,1.6-.56.42a3.14,3.14,0,0,1-3.9-.11l-5.84-4.87a2.82,2.82,0,0,1-.13-4.22l.13-.12,4.64-3.86" fill="#fff" stroke="#191919" stroke-linecap="round" stroke-miterlimit="10" stroke-width="2.13"/><line x1="91.03" y1="52.84" x2="95.84" y2="58.49" stroke="#191919" stroke-linecap="round" stroke-miterlimit="10" stroke-width="2.13" fill="url(#Dégradé_sans_nom_29)"/><path d="M23.94,99.22c-.39.72-2.74,5.28-.71,9.14,2.15,4.07,7.68,4.53,9.33,4.67,10.65.89,15.48-8.64,22.44-6.89,2.62.65,5.88,3,8.63,10.36" fill="none" stroke="#191919" stroke-linecap="round" stroke-miterlimit="10" stroke-width="2.13"/><path d="M87.79,49.87l-.56.42a3.14,3.14,0,0,1-3.9-.11l-5.84-4.87a3.16,3.16,0,0,1-1-2.09,3.27,3.27,0,0,1,1.62-2.94,29.74,29.74,0,0,0,9.69,9.59Z" fill="#191919" opacity="0.18"/><path d="M143.94,89.07c-1.59,5.14-3.78,5.49-5.76,8.18a14.52,14.52,0,0,0-2,4c-3.08,8.44-2.39,15.6-5.52,16.57a2.38,2.38,0,0,1-.88.1,3.84,3.84,0,0,1-1.55,0,.52.52,0,0,1-.2-.09,3.31,3.31,0,0,1-1.31-1c-1.59-1.92-2.33-6-5.24-11.35-.42-.8-.8-1.44-1.14-2-1.3-2-2-2.24-2.54-2.24l-.26,0a2.52,2.52,0,0,0-1.25.85,16.7,16.7,0,0,0-2,3c-.07.11-.12.22-.19.33-.2.37-.39.75-.58,1.11l-.07.15c-.75,1.49-1.34,2.87-1.82,4.11-1.56,3.87-2.25,6.4-4.27,7.07a3.08,3.08,0,0,1-1.56,0,3.4,3.4,0,0,1-2.14-1.71,18.8,18.8,0,0,1-1.7-5,65.25,65.25,0,0,0-3.36-11.11c-2.26-5.25-3.88-5.85-5.27-8a7.43,7.43,0,0,1-.49-.84A14.49,14.49,0,0,1,92,89.07,27,27,0,0,1,91,77.7a15.18,15.18,0,0,1,2.12-6.78A14,14,0,0,1,97,66.58c4.25-3,9.94-2.67,14-1.55a26.17,26.17,0,0,1,6.92,3.45l0,0,.15,0-.11-.07a3.85,3.85,0,0,1,.62-.53.35.35,0,0,0,.08-.06,21,21,0,0,1,6-2.86,17.49,17.49,0,0,1,10.94.49A13.22,13.22,0,0,1,138.41,67a14.33,14.33,0,0,1,4.08,4.83A18.18,18.18,0,0,1,144.22,76,24.3,24.3,0,0,1,143.94,89.07Z" fill="#fff"/><path d="M93.1,70.92A12.62,12.62,0,0,1,97,66.58c3.93-2.67,9.72-2.72,14-1.55a26.17,26.17,0,0,1,6.92,3.45,21.57,21.57,0,0,0,3.79,1.83,19.54,19.54,0,0,0,2.69.74,18.18,18.18,0,0,0,8.47-.77" fill="none" stroke="#282828" stroke-linecap="round" stroke-miterlimit="10" stroke-width="2.13"/><path d="M117.9,68.53l0,0a3.85,3.85,0,0,1,.62-.53.35.35,0,0,0,.08-.06,21,21,0,0,1,6-2.86,17.49,17.49,0,0,1,10.94.49A13.22,13.22,0,0,1,138.41,67a14.33,14.33,0,0,1,4.08,4.83A18.18,18.18,0,0,1,144.22,76a24.3,24.3,0,0,1-.28,13.11c-1.59,5.14-3.78,5.49-5.76,8.18a14.52,14.52,0,0,0-2,4c-3.08,8.44-2.39,15.6-5.52,16.57a2.38,2.38,0,0,1-.88.1,3.84,3.84,0,0,1-1.55,0,.52.52,0,0,1-.2-.09,3.31,3.31,0,0,1-1.31-1c-1.59-1.92-2.33-6-5.24-11.35-.42-.8-.8-1.44-1.14-2-1.3-2-2-2.24-2.54-2.24l-.26,0a2.52,2.52,0,0,0-1.25.85,0,0,0,0,1,0,0,16.24,16.24,0,0,0-2,3c-.07.11-.12.22-.19.33-.2.37-.39.75-.58,1.11l-.07.15c-.75,1.49-1.34,2.87-1.82,4.11a0,0,0,0,1,0,0c-1.55,3.85-2.24,6.38-4.26,7.05a3.08,3.08,0,0,1-1.56,0,3.4,3.4,0,0,1-2.14-1.71,18.8,18.8,0,0,1-1.7-5,65.25,65.25,0,0,0-3.36-11.11c-2.26-5.25-3.88-5.85-5.27-8a7.43,7.43,0,0,1-.49-.84A14.49,14.49,0,0,1,92,89.07,27,27,0,0,1,91,77.7" fill="none" stroke="#282828" stroke-linecap="round" stroke-miterlimit="10" stroke-width="2.13"/><path d="M118.05,68.55l-.15,0,0,0Z" fill="#fff"/><path d="M119.66,68.39a18,18,0,0,0,6.69.64c2.44-.23,5.55-1.45,6.62-.46a1.82,1.82,0,0,1,.53.93,1.92,1.92,0,0,1-.38,1.28c-.65.92-3.65,1.26-9.62-.28a54.67,54.67,0,0,1-8.33-2.9,3.73,3.73,0,0,1,3.31-.23A3.08,3.08,0,0,1,119.66,68.39Z" fill="#282828" opacity="0.17"/><path d="M145.05,85.75a13.59,13.59,0,0,1-1.11,4.42c-1.42,2.91-3.34,3.45-5.53,6.63a20.59,20.59,0,0,0-2.21,4.43c-2.58,6.46-2.41,13.69-4.42,15.47a6.49,6.49,0,0,1-2.21,1.1c-.57.17-.89.18-1.1,0s-.24-.91-.22-1a.72.72,0,0,1-.2-.09,3.87,3.87,0,0,1-.7-.41,5.94,5.94,0,0,1-2.2-4c1,.74,2.25,1.5,3.32,1.1,2.06-.77,1.38-5.14,2.21-9.94,1.52-8.85,6.36-8.69,8.84-18.79,1.74-7.11.34-11.22,0-12.16a17.57,17.57,0,0,0-4.42-6.63h3.31a14.33,14.33,0,0,1,4.08,4.83l.09.15a21.65,21.65,0,0,1,1.64,4A28.83,28.83,0,0,1,145.05,85.75Z" fill="#282828" opacity="0.19"/><path d="M111.65,110.85c-1.55,3.85-2.24,6.38-4.26,7.05a3.08,3.08,0,0,1-1.56,0,3.4,3.4,0,0,1-2.14-1.71,18.8,18.8,0,0,1-1.7-5,65.25,65.25,0,0,0-3.36-11.11c-2.26-5.25-3.88-5.85-5.27-8l-.26-1.92a80.1,80.1,0,0,1,6.63,7.74c3.32,4.42,3.32,14.37,7.74,15.47C109.2,113.81,110.6,112.55,111.65,110.85Z" fill="#282828" opacity="0.19"/><path d="M114.32,105.13c-.07.11-.12.22-.19.33-.2.37-.39.75-.58,1.11l-.07.15c.41-1.25.62-2.18.62-2.18Z" fill="#282828"/><rect width="212" height="199" fill="none"/></g></g></svg>