<svg xmlns="http://www.w3.org/2000/svg" xmlns:xlink="http://www.w3.org/1999/xlink" viewBox="0 0 95.5 120.21"><defs><linearGradient id="Dégradé_sans_nom_10" x1="-2921.4" y1="1040.36" x2="-2917.13" y2="1078.18" gradientTransform="matrix(-0.76, 0.8, 0.69, 0.65, -2901.77, 1721.68)" gradientUnits="userSpaceOnUse"><stop offset="0" stop-color="#439cdf"/><stop offset="0.62" stop-color="#435cd1"/><stop offset="1" stop-color="#4338ca"/></linearGradient><linearGradient id="Dégradé_sans_nom_21" x1="-2919.21" y1="1138.45" x2="-2919.08" y2="1139.59" gradientTransform="matrix(-0.76, 0.8, 1.32, 1.26, -3652.2, 1006.15)" gradientUnits="userSpaceOnUse"><stop offset="0" stop-color="#435fdf"/><stop offset="0.09" stop-color="#435bdd"/><stop offset="1" stop-color="#4338ca"/></linearGradient><linearGradient id="Dégradé_sans_nom_21-2" x1="-2919.4" y1="1130.91" x2="-2918.88" y2="1135.56" xlink:href="#Dégradé_sans_nom_21"/><linearGradient id="Dégradé_sans_nom_21-3" x1="-2919.24" y1="1126.59" x2="-2919.04" y2="1128.31" xlink:href="#Dégradé_sans_nom_21"/><linearGradient id="Dégradé_sans_nom_21-4" x1="-2919.76" y1="1085.53" x2="-2918.52" y2="1096.53" xlink:href="#Dégradé_sans_nom_21"/><linearGradient id="Dégradé_sans_nom_21-5" x1="-2916.33" y1="1118.67" x2="-2916.28" y2="1119.09" xlink:href="#Dégradé_sans_nom_21"/><linearGradient id="Dégradé_sans_nom_21-6" x1="-2916.33" y1="1113.53" x2="-2916.28" y2="1113.95" xlink:href="#Dégradé_sans_nom_21"/><linearGradient id="Dégradé_sans_nom_21-7" x1="-2916.33" y1="1108.39" x2="-2916.28" y2="1108.81" xlink:href="#Dégradé_sans_nom_21"/><linearGradient id="Dégradé_sans_nom_10-2" x1="-1260.6" y1="-643.54" x2="-1255.89" y2="-606.18" gradientTransform="translate(-592.18 1355.7) rotate(90)" xlink:href="#Dégradé_sans_nom_10"/></defs><g id="Calque_2" data-name="Calque 2"><g id="Calque_1-2" data-name="Calque 1"><path d="M42.94,10.71l.14-.13a6.06,6.06,0,0,1,.49-.42,14.82,14.82,0,0,1,4.7-2.27,15.87,15.87,0,0,1,4.93-.51h.09A12.82,12.82,0,0,1,56.78,8,8.35,8.35,0,0,1,59.13,9.1c7.25,5,3.71,22.64-1.1,32.7-1.92,4-4,6.82-5.74,7.14a3.06,3.06,0,0,1-1.21,0c-2.21-.74-2.36-4.36-5.24-9.66C44.25,36.33,43.5,36,43,36s-1.26.31-2.86,3.26c-2.86,5.3-3,8.92-5.23,9.66a3,3,0,0,1-1.2,0c-6-1.1-17-32.86-6.85-39.84,2.79-1.92,7.44-2.16,10.87-1.21a20,20,0,0,1,5.37,2.69,14.93,14.93,0,0,0,5,2,17.12,17.12,0,0,0,6.71-.05" fill="#fff"/><path d="M42.94,10.71a9.4,9.4,0,0,1,2.11-1.86,14.37,14.37,0,0,1,2.52-1.32,12.76,12.76,0,0,1,2.78-.78,14.71,14.71,0,0,1,2.89-.23l-.25,0a1.1,1.1,0,0,1,.57,0l-.23,0a14.52,14.52,0,0,1,2.61.26,9.83,9.83,0,0,1,1.27.33,9,9,0,0,1,1.28.48,8.49,8.49,0,0,1,4,3.76,14.89,14.89,0,0,1,1.61,5,28.19,28.19,0,0,1,.27,5.1,50.28,50.28,0,0,1-1.45,10,60.63,60.63,0,0,1-3.17,9.51,37.8,37.8,0,0,1-2.3,4.53,21.76,21.76,0,0,1-1.48,2.16,8.69,8.69,0,0,1-2.08,2,3.61,3.61,0,0,1-.76.39,3.78,3.78,0,0,1-.87.21,3.94,3.94,0,0,1-.84,0,4,4,0,0,1-.46-.05l-.2,0-.11-.05L50.38,50A3.69,3.69,0,0,1,49,48.86a6.67,6.67,0,0,1-.81-1.26c-.8-1.64-1.27-3.15-1.93-4.62a32.59,32.59,0,0,0-2.14-4.21,9.61,9.61,0,0,0-.62-.91,2.63,2.63,0,0,0-.54-.56c-.06,0,0,0,0,0s.13,0,.09,0a2.41,2.41,0,0,0-.51.52,23.24,23.24,0,0,0-2.25,4c-.67,1.44-1.22,2.92-1.85,4.5a10.51,10.51,0,0,1-1.31,2.48A4,4,0,0,1,35.78,50l-.46.2a2.57,2.57,0,0,1-.57.11,4.22,4.22,0,0,1-.87,0,2.7,2.7,0,0,1-.41-.06,3.81,3.81,0,0,1-.45-.13l-.45-.16-.36-.2A7.2,7.2,0,0,1,31,48.79a15.18,15.18,0,0,1-1.74-2.09,41,41,0,0,1-4.45-9.13,61.49,61.49,0,0,1-2.62-9.7,39.47,39.47,0,0,1-.63-10.15,17.77,17.77,0,0,1,1.16-5.14,10,10,0,0,1,3.36-4.44,11.77,11.77,0,0,1,5.13-1.85,17.89,17.89,0,0,1,5.27.11,14.68,14.68,0,0,1,5,1.82,40.62,40.62,0,0,0,4.16,2.38,15.14,15.14,0,0,0,9,.88A1.06,1.06,0,0,1,55,13.56a17.36,17.36,0,0,1-10.33-.85,40.81,40.81,0,0,1-4.4-2.46,12.4,12.4,0,0,0-4.22-1.5,15.7,15.7,0,0,0-4.54-.05,9.5,9.5,0,0,0-4,1.47c-2.22,1.6-3.15,4.72-3.39,7.78a36.45,36.45,0,0,0,.6,9.46,58.67,58.67,0,0,0,2.52,9.28,38.22,38.22,0,0,0,4.14,8.52,12.08,12.08,0,0,0,1.4,1.7,5.3,5.3,0,0,0,.73.56l.17.1.14,0,.13,0,.2,0a2.16,2.16,0,0,0,.36,0s.16,0,0,0l.09,0a1.32,1.32,0,0,0,.48-.43,8.3,8.3,0,0,0,1-1.87c.58-1.48,1.17-3.08,1.88-4.61a24.34,24.34,0,0,1,2.61-4.53A4.5,4.5,0,0,1,41.83,35a2.35,2.35,0,0,1,2.47.1,5.09,5.09,0,0,1,1.19,1.17,12.42,12.42,0,0,1,.76,1.13A33.56,33.56,0,0,1,48.53,42c.66,1.53,1.19,3.17,1.82,4.48a2.48,2.48,0,0,0,1,1.23c-.05.05.34.08.57.05a1.48,1.48,0,0,0,.32-.08,2.14,2.14,0,0,0,.34-.17,10.8,10.8,0,0,0,2.8-3.3A35.16,35.16,0,0,0,57.57,40a58,58,0,0,0,3.12-9.12,47.3,47.3,0,0,0,1.46-9.48,25.54,25.54,0,0,0-.2-4.72,12.89,12.89,0,0,0-1.33-4.32,6.71,6.71,0,0,0-1.28-1.72,6.1,6.1,0,0,0-1.72-1.24,6.49,6.49,0,0,0-1-.42c-.39-.14-.72-.24-1.1-.34a13,13,0,0,0-2.26-.38L53,8.2a.55.55,0,0,0,.4,0l-.26,0a19.19,19.19,0,0,0-2.63,0,15.5,15.5,0,0,0-2.61.38,16.29,16.29,0,0,0-2.56.84A11.42,11.42,0,0,0,42.94,10.71Z" fill="#282828"/><path d="M59,34.87c1.8-10.18.43-16.36,0-18.12C57.34,10,54.58,8.08,53.2,7.38l-.06,0,.15,0L56.78,8A6.92,6.92,0,0,1,59.13,9.1c9,6.64-2.21,34.75-3.33,37.49A66,66,0,0,0,59,34.87Z" opacity="0.13"/><line x1="18.77" y1="0.77" x2="18.77" y2="5.36" fill="none" stroke="#282828" stroke-linecap="round" stroke-miterlimit="10" stroke-width="1.53"/><line x1="18.77" y1="8.43" x2="18.77" y2="13.02" fill="none" stroke="#282828" stroke-linecap="round" stroke-miterlimit="10" stroke-width="1.53"/><line x1="12.64" y1="6.89" x2="17.24" y2="6.89" fill="none" stroke="#282828" stroke-linecap="round" stroke-miterlimit="10" stroke-width="1.53"/><line x1="20.3" y1="6.89" x2="24.9" y2="6.89" fill="none" stroke="#282828" stroke-linecap="round" stroke-miterlimit="10" stroke-width="1.53"/><line x1="17.44" y1="16.75" x2="17.44" y2="18.75" fill="none" stroke="#282828" stroke-linecap="round" stroke-miterlimit="10" stroke-width="0.67"/><line x1="17.44" y1="20.08" x2="17.44" y2="22.08" fill="none" stroke="#282828" stroke-linecap="round" stroke-miterlimit="10" stroke-width="0.67"/><line x1="14.77" y1="19.42" x2="16.77" y2="19.42" fill="none" stroke="#282828" stroke-linecap="round" stroke-miterlimit="10" stroke-width="0.67"/><line x1="18.1" y1="19.42" x2="20.1" y2="19.42" fill="none" stroke="#282828" stroke-linecap="round" stroke-miterlimit="10" stroke-width="0.67"/><path d="M59.69,95.94,41.47,78.57l-15-.38,26,25.3Z" fill="url(#Dégradé_sans_nom_10)"/><line x1="75.28" y1="110.19" x2="67.47" y2="118.39" stroke="#282828" stroke-linecap="round" stroke-miterlimit="10" stroke-width="3.65" fill="url(#Dégradé_sans_nom_21)"/><line x1="60.62" y1="104.04" x2="66.85" y2="109.97" stroke="#282828" stroke-linecap="round" stroke-miterlimit="10" stroke-width="3.65" fill="url(#Dégradé_sans_nom_21-2)"/><line x1="61.95" y1="93.57" x2="50.23" y2="105.87" stroke="#282828" stroke-linecap="round" stroke-miterlimit="10" stroke-width="3.65" fill="url(#Dégradé_sans_nom_21-3)"/><rect x="33.32" y="58.73" width="10.44" height="48.5" stroke-width="1.94" fill="none" stroke="#282828" stroke-linecap="round" stroke-miterlimit="10" transform="translate(-48.11 53.61) rotate(-46.36)"/><line x1="18.09" y1="60.22" x2="14.83" y2="63.64" fill="none" stroke="#282828" stroke-linecap="round" stroke-miterlimit="10" stroke-width="3.65"/><line x1="15.33" y1="60.85" x2="0.61" y2="46.82" stroke="#282828" stroke-linecap="round" stroke-miterlimit="10" stroke-width="1.22" fill="url(#Dégradé_sans_nom_21-4)"/><line x1="44.06" y1="89.66" x2="41.17" y2="92.7" stroke="#282828" stroke-miterlimit="10" stroke-width="1.82" fill="url(#Dégradé_sans_nom_21-5)"/><line x1="37.26" y1="83.19" x2="34.37" y2="86.22" stroke="#282828" stroke-miterlimit="10" stroke-width="1.82" fill="url(#Dégradé_sans_nom_21-6)"/><line x1="30.47" y1="76.71" x2="27.58" y2="79.74" stroke="#282828" stroke-miterlimit="10" stroke-width="1.82" fill="url(#Dégradé_sans_nom_21-7)"/><path d="M53.76,72.15c3.29-3.55,6.55-7.12,9.88-10.64l5-5.3,2.49-2.64,1.24-1.33c.17-.18.13-.12.19-.34l.14-.9.58-3.59.29-1.79.15-.89.08-.47A1.61,1.61,0,0,1,74,43.6a1.89,1.89,0,0,1,1.1-.84,2,2,0,0,1,.68-.07,3,3,0,0,1,.58.11l1.74.5,3.49,1q7,2,13.89,4.26-7.11-1.52-14.17-3.22l-3.53-.85L76,44.08a1.31,1.31,0,0,0-.31,0,.78.78,0,0,0-.22,0,.58.58,0,0,0-.3.25.6.6,0,0,0-.06.19l-.05.43-.12.9-.23,1.8-.45,3.6-.12.9a2.14,2.14,0,0,1-.58,1.26l-1.19,1.37L70,57.49,65.23,63c-3.17,3.66-6.41,7.25-9.62,10.88a1.25,1.25,0,0,1-1.87-1.66Z" fill="#191919"/><rect x="47.72" y="75.42" width="4.26" height="6.39" rx="1.19" stroke-width="2.59" fill="none" stroke="#191919" stroke-linecap="round" stroke-miterlimit="10" transform="translate(-41.88 62.75) rotate(-47.81)"/><rect x="14.45" y="112.02" width="4.26" height="6.39" rx="1.19" stroke-width="2.59" fill="none" stroke="#191919" stroke-linecap="round" stroke-miterlimit="10" transform="translate(-79.92 50.12) rotate(-47.81)"/><rect x="14.03" y="92.65" width="37.3" height="9.59" rx="2.35" fill="url(#Dégradé_sans_nom_10-2)" stroke="#282828" stroke-linecap="round" stroke-miterlimit="10" stroke-width="2.88" transform="translate(-61.47 56.21) rotate(-47.81)"/></g></g></svg>