<svg xmlns="http://www.w3.org/2000/svg" xmlns:xlink="http://www.w3.org/1999/xlink" viewBox="0 0 227.86 179.62"><defs><linearGradient id="Dégradé_sans_nom_6" x1="140.74" y1="-23.97" x2="161.81" y2="88.66" gradientUnits="userSpaceOnUse"><stop offset="0" stop-color="#439cdf"/><stop offset="0.82" stop-color="#434ace"/><stop offset="1" stop-color="#4338ca"/></linearGradient></defs><g id="Calque_2" data-name="Calque 2"><g id="Calque_1-2" data-name="Calque 1"><path d="M194.67,65.32a1.73,1.73,0,0,1,1.74-.15,19.79,19.79,0,0,0,2.14.84,1.74,1.74,0,0,1,1.18,1.28l.24,1.19a1.69,1.69,0,0,0,1.71,1.35l6.63-.19a1.7,1.7,0,0,0,1.63-1.46l.1-.76a1.73,1.73,0,0,1,1.2-1.4,21.09,21.09,0,0,0,2.14-.83,1.73,1.73,0,0,1,1.65.09l1.29.82a1.7,1.7,0,0,0,2.1-.24l4.44-4.41a1.69,1.69,0,0,0,.11-2.28l-.44-.53a1.66,1.66,0,0,1-.21-1.82,16.12,16.12,0,0,0,.84-1.9,1.74,1.74,0,0,1,1.3-1.11l1.41-.26a1.69,1.69,0,0,0,1.39-1.72l-.2-5.94a1.7,1.7,0,0,0-1.49-1.63l-1-.13a1.66,1.66,0,0,1-1.36-1.1,16,16,0,0,0-.84-1.89,1.66,1.66,0,0,1,.11-1.74l.67-.93a1.69,1.69,0,0,0-.25-2.27L218.14,32a1.7,1.7,0,0,0-2.11-.1l-.88.63a1.7,1.7,0,0,1-1.73.15,19.17,19.17,0,0,0-2.15-.84,1.71,1.71,0,0,1-1.17-1.28l-.25-1.19a1.71,1.71,0,0,0-1.71-1.36l-6.62.2a1.68,1.68,0,0,0-1.63,1.46l-.11.76a1.73,1.73,0,0,1-1.2,1.4,22,22,0,0,0-2.14.83,1.73,1.73,0,0,1-1.64-.09l-1.29-.82a1.71,1.71,0,0,0-2.11.24L187,36.44a1.7,1.7,0,0,0-.12,2.28l.44.53a1.68,1.68,0,0,1,.22,1.82,18.81,18.81,0,0,0-.85,1.89,1.71,1.71,0,0,1-1.3,1.12l-1.4.26a1.69,1.69,0,0,0-1.4,1.72l.2,5.94a1.7,1.7,0,0,0,1.49,1.63l1,.12a1.69,1.69,0,0,1,1.36,1.11,17.73,17.73,0,0,0,.83,1.89,1.65,1.65,0,0,1-.1,1.74l-.68.93a1.7,1.7,0,0,0,.26,2.27l4.73,4.16m2.12.1.87-.63m10.24-3.68c-7.5,0-13.59-5.68-13.59-12.7s6.09-12.69,13.59-12.69,13.59,5.68,13.59,12.69S212.42,61.64,204.91,61.64Z" fill="none" stroke="#191919" stroke-linecap="round" stroke-miterlimit="10" stroke-width="1.19"/><path d="M203.4,16.05l.84-.15a1,1,0,0,0,.84-1L205,11.3a1,1,0,0,0-.9-1l-.61-.07a1,1,0,0,1-.82-.67,8.81,8.81,0,0,0-.5-1.13,1,1,0,0,1,.07-1l.4-.56a1,1,0,0,0-.15-1.37L199.61,3a1,1,0,0,0-1.27-.06l-.53.38a1,1,0,0,1-1,.08,13.07,13.07,0,0,0-1.28-.5,1,1,0,0,1-.71-.77l-.15-.71a1,1,0,0,0-1-.81l-4,.11a1,1,0,0,0-1,.88l-.06.46a1,1,0,0,1-.72.84,11,11,0,0,0-1.28.5,1.05,1.05,0,0,1-1-.06l-.77-.49a1,1,0,0,0-1.27.14L180.9,5.63A1,1,0,0,0,180.83,7l.27.32a1,1,0,0,1,.13,1.09,10.51,10.51,0,0,0-.51,1.13,1,1,0,0,1-.78.67l-.84.16a1,1,0,0,0-.84,1l.12,3.57a1,1,0,0,0,.89,1l.62.08a1,1,0,0,1,.82.66,10.41,10.41,0,0,0,.49,1.13,1,1,0,0,1-.06,1.05l-.4.56a1,1,0,0,0,.15,1.36l2.84,2.49a1,1,0,0,0,1.27.06l.52-.37a1,1,0,0,1,1-.09,11.86,11.86,0,0,0,1.29.5,1,1,0,0,1,.71.77l.15.71a1,1,0,0,0,1,.82l4-.12a1,1,0,0,0,1-.88l.07-.46a1,1,0,0,1,.72-.83,13.07,13.07,0,0,0,1.28-.5,1,1,0,0,1,1,.05l.77.49a1,1,0,0,0,1.26-.14l2.67-2.65a1,1,0,0,0,.06-1.37l-.26-.31a1,1,0,0,1-.13-1.09,11.64,11.64,0,0,0,.51-1.14A1,1,0,0,1,203.4,16.05Zm-3.58-2.92a8.17,8.17,0,0,1-16.3,0,7.9,7.9,0,0,1,8.15-7.62,8.21,8.21,0,0,1,7.44,4.5" fill="none" stroke="#191919" stroke-linecap="round" stroke-miterlimit="10" stroke-width="1.19"/><path d="M154.19,54.56a20.44,20.44,0,0,1-2.09.11c-9.74,0-17.77-6.76-19-15.52l-11.63-8.49a2.36,2.36,0,0,0-.94,2l.28,8.4a2.4,2.4,0,0,0,2.11,2.3l1.45.17a2.37,2.37,0,0,1,1.92,1.57,24.57,24.57,0,0,0,1.18,2.67,2.35,2.35,0,0,1-.15,2.46l-1,1.32a2.4,2.4,0,0,0,.36,3.21l6.7,5.88a2.39,2.39,0,0,0,3,.14l1.24-.89a2.44,2.44,0,0,1,2.46-.21,28.44,28.44,0,0,0,3,1.19,2.42,2.42,0,0,1,1.66,1.81l.35,1.68a2.42,2.42,0,0,0,2.42,1.92L156.9,66a2.39,2.39,0,0,0,2.3-2.07l.15-1.08a2.44,2.44,0,0,1,1.7-2q.62-.2,1.2-.42Zm29.23-22.17a2.4,2.4,0,0,0-2.11-2.31l-1.45-.17a2.37,2.37,0,0,1-1.92-1.57,24.34,24.34,0,0,0-1.18-2.67,2.33,2.33,0,0,1,.15-2.45l1-1.33a2.41,2.41,0,0,0-.36-3.21l-6.71-5.87a2.39,2.39,0,0,0-3-.15l-1.24.89a2.42,2.42,0,0,1-2.45.21,28.55,28.55,0,0,0-3-1.18,2.47,2.47,0,0,1-1.66-1.81l-.35-1.69a2.38,2.38,0,0,0-2.42-1.91l-9.36.27A2.41,2.41,0,0,0,145,9.51l-.15,1.08a2.44,2.44,0,0,1-1.7,2,28.38,28.38,0,0,0-3,1.18,2.45,2.45,0,0,1-2.32-.13L136,12.45a2.42,2.42,0,0,0-3,.33L126.72,19a2.4,2.4,0,0,0-.16,3.23l.61.74a2.37,2.37,0,0,1,.31,2.58c-.2.38-.39.77-.57,1.16l.09.09,6.71,4.62c2.41-7.35,9.73-12.7,18.39-12.7,10.61,0,19.21,8,19.21,18a17.63,17.63,0,0,1-8.41,14.85l10.3,7.09,4.28-4.26a2.4,2.4,0,0,0,.16-3.22l-.62-.75a2.35,2.35,0,0,1-.31-2.57,25.75,25.75,0,0,0,1.2-2.68,2.43,2.43,0,0,1,1.84-1.58l2-.36a2.4,2.4,0,0,0,2-2.44Z" fill="url(#Dégradé_sans_nom_6)"/><path d="M152.81,7.28l-5.51.16A2.4,2.4,0,0,0,145,9.51l-.15,1.08a2.44,2.44,0,0,1-1.7,2,26.41,26.41,0,0,0-3,1.18,2.45,2.45,0,0,1-2.32-.13L136,12.45a2.39,2.39,0,0,0-3,.33L126.71,19a2.4,2.4,0,0,0-.15,3.22l.61.75a2.35,2.35,0,0,1,.31,2.57c-.25.48-.48,1-.69,1.45M173.25,58.6l4.23-4.21a2.41,2.41,0,0,0,.15-3.23l-.61-.74a2.35,2.35,0,0,1-.31-2.57,24.57,24.57,0,0,0,1.19-2.68,2.47,2.47,0,0,1,1.84-1.59l2-.36a2.39,2.39,0,0,0,2-2.44l-.28-8.4a2.39,2.39,0,0,0-2.11-2.3l-1.45-.17a2.37,2.37,0,0,1-1.92-1.57,25.46,25.46,0,0,0-1.18-2.67,2.35,2.35,0,0,1,.15-2.46l1-1.32a2.4,2.4,0,0,0-.37-3.21l-6.7-5.88a2.39,2.39,0,0,0-3-.14l-1.24.89a2.42,2.42,0,0,1-2.45.21,28.6,28.6,0,0,0-3-1.19,2.42,2.42,0,0,1-1.66-1.81l-.35-1.68a2.41,2.41,0,0,0-2.42-1.92M133.72,31.43c2.41-7.34,9.73-12.68,18.38-12.68,10.61,0,19.21,8,19.21,18a17.58,17.58,0,0,1-8,14.57" fill="none" stroke="#191919" stroke-linecap="round" stroke-miterlimit="10" stroke-width="1.19"/><path d="M148.6,178.24l25.48.1A2.31,2.31,0,0,0,176.4,176V70.16A5.06,5.06,0,0,0,174.27,66l-4.49-3.19L144.57,45,96.34,10.73a5,5,0,0,0-5.85,0L42.26,45,17.05,62.84,12.55,66a5.06,5.06,0,0,0-2.13,4.13V176l3.81,2.3,24-.09a2.42,2.42,0,0,0,.47-.05" fill="#fff" stroke="#000" stroke-linecap="round" stroke-miterlimit="10" stroke-width="2.06"/><path d="M1.06,176.2v-108A5.1,5.1,0,0,1,3.27,64L8,60.7l26.2-18.26L84.29,7.52a5.33,5.33,0,0,1,6.08,0l50.14,34.92L166.72,60.7,171.39,64a5.11,5.11,0,0,1,2.22,4.2v108a2.38,2.38,0,0,1-2.41,2.36l-26.5-.11a2.37,2.37,0,0,1-2.39-2.35V83.61a3.59,3.59,0,0,0-3.62-3.56H36a3.59,3.59,0,0,0-3.62,3.56V176.1A2.37,2.37,0,0,1,30,178.45L5,178.55" stroke="#000" stroke-linecap="round" stroke-miterlimit="10" stroke-width="2.12" opacity="0.31"/><path d="M10.42,176V70.16A5.06,5.06,0,0,1,12.55,66l4.5-3.19L42.26,45,90.49,10.73a5,5,0,0,1,5.85,0L144.57,45l25.21,17.89L174.27,66a5.06,5.06,0,0,1,2.13,4.13V176a2.31,2.31,0,0,1-2.32,2.31l-25.48-.1a2.32,2.32,0,0,1-2.3-2.31V85.29a3.48,3.48,0,0,0-3.48-3.48H44a3.48,3.48,0,0,0-3.49,3.48v90.64a2.32,2.32,0,0,1-2.3,2.31l-24,.09" fill="#fff" stroke="#000" stroke-linecap="round" stroke-miterlimit="10" stroke-width="2.06"/><path d="M100.14,146.68V177a1.61,1.61,0,0,0,1.57,1.64h37.81a1.6,1.6,0,0,0,1.57-1.64V146.68a1.61,1.61,0,0,0-1.57-1.64H101.71A1.61,1.61,0,0,0,100.14,146.68Z" fill="none" stroke="#191919" stroke-miterlimit="10" stroke-width="1.48"/><path d="M65.7,178.6H91.77A1.6,1.6,0,0,0,93.34,177V146.68A1.61,1.61,0,0,0,91.77,145H54a1.61,1.61,0,0,0-1.57,1.64V177A1.6,1.6,0,0,0,54,178.6h6" fill="none" stroke="#191919" stroke-linecap="round" stroke-miterlimit="10" stroke-width="1.48"/><path d="M100.14,116.81v20.76a1.61,1.61,0,0,0,1.57,1.63h37.81a1.6,1.6,0,0,0,1.57-1.63V107.28a1.6,1.6,0,0,0-1.57-1.63H101.71a1.61,1.61,0,0,0-1.57,1.63v4.06" fill="none" stroke="#191919" stroke-linecap="round" stroke-miterlimit="10" stroke-width="1.48"/><g opacity="0.74"><rect x="117.19" y="112.19" width="8.28" height="2.72" rx="1.11"/><path d="M127.06,118.76v12.29a1.25,1.25,0,0,1-1.24,1.24H117a1.25,1.25,0,0,1-1.24-1.24V118.76a2.25,2.25,0,0,1,1.59-2.15.76.76,0,0,1,.75-.66h6.67a.76.76,0,0,1,.75.66A2.25,2.25,0,0,1,127.06,118.76Z"/><rect x="115.65" y="120.91" width="11.35" height="8.06"/><rect x="120.4" y="122.96" width="1.92" height="4.88" fill="#fff"/><rect x="120.42" y="122.98" width="1.92" height="4.88" transform="translate(246.81 4.04) rotate(90)" fill="#fff"/><path d="M127.06,118.76v12.29a1.25,1.25,0,0,1-1.24,1.24h-1.13a1.24,1.24,0,0,0,1.23-1.24V118.76a2.25,2.25,0,0,0-1.59-2.15.75.75,0,0,0-.75-.66h1.14a.76.76,0,0,1,.75.66A2.25,2.25,0,0,1,127.06,118.76Z" opacity="0.31"/></g><g opacity="0.74"><path d="M70.78,170A6.07,6.07,0,0,0,72,173.73a3.51,3.51,0,0,1-2.63,1.18H69a3.52,3.52,0,0,1-3.52-3.51v-5.13h6.59A6.07,6.07,0,0,0,70.78,170Z"/><path d="M72.91,158.68v5.12H65.5v-5.12A3.53,3.53,0,0,1,69,155.16h.37A3.53,3.53,0,0,1,72.91,158.68Z"/><path d="M81.05,174.08a5.07,5.07,0,0,1-6.18,0,4.57,4.57,0,0,1-.47-.42,5.08,5.08,0,0,1-.46-6.66Z"/><path d="M82,173.11l-6.48-6.48-.63-.63a5.8,5.8,0,0,1,.52-.34A5.07,5.07,0,0,1,82,173.11Z"/></g><g opacity="0.74"><line x1="107.77" y1="173.17" x2="110.92" y2="175.76" stroke="#000" stroke-linecap="round" stroke-miterlimit="10" stroke-width="1.31"/><line x1="112.74" y1="170.33" x2="110.77" y2="172.72" stroke="#000" stroke-linecap="round" stroke-miterlimit="10" stroke-width="1.31"/><line x1="111.81" y1="166.65" x2="116.53" y2="170.54" stroke="#000" stroke-linecap="round" stroke-miterlimit="10" stroke-width="1.31"/><rect x="110.99" y="159.98" width="17.45" height="3.76" stroke-width="1.31" stroke="#000" stroke-linecap="round" stroke-miterlimit="10" transform="translate(-81.34 151.48) rotate(-50.56)"/><polygon points="112.72 167.4 118.47 160.41 123.42 160.6 115.62 169.79 112.72 167.4" stroke="#000" stroke-linecap="round" stroke-miterlimit="10" stroke-width="0.94"/><line x1="126.03" y1="152.84" x2="127.34" y2="153.92" stroke="#000" stroke-linecap="round" stroke-miterlimit="10" stroke-width="1.31"/><line x1="127.04" y1="152.95" x2="131.69" y2="147.29" stroke="#000" stroke-linecap="round" stroke-miterlimit="10" stroke-width="0.44"/><line x1="118.03" y1="164.48" x2="119.2" y2="165.44" stroke="#000" stroke-miterlimit="10" stroke-width="0.66"/><line x1="120.18" y1="161.87" x2="121.34" y2="162.83" stroke="#000" stroke-miterlimit="10" stroke-width="0.66"/><line x1="122.32" y1="159.27" x2="123.49" y2="160.22" stroke="#000" stroke-miterlimit="10" stroke-width="0.66"/></g></g></g></svg>