<svg xmlns="http://www.w3.org/2000/svg" xmlns:xlink="http://www.w3.org/1999/xlink" viewBox="0 0 201.66 221.67"><defs><linearGradient id="Dégradé_sans_nom_6" x1="146.33" y1="3.94" x2="147.08" y2="81.93" gradientUnits="userSpaceOnUse"><stop offset="0" stop-color="#439cdf"/><stop offset="0.82" stop-color="#434ace"/><stop offset="1" stop-color="#4338ca"/></linearGradient></defs><g id="Calque_2" data-name="Calque 2"><g id="Calque_1-2" data-name="Calque 1"><path d="M177.21,39.11l3.71-.65a1.44,1.44,0,0,0,1.2-1.44l-.37-10.58a1.44,1.44,0,0,0-1.28-1.36l-3.13-.36a1.46,1.46,0,0,1-1.21-.94,24.64,24.64,0,0,0-1.79-4,1.37,1.37,0,0,1,.1-1.5l2-2.66a1.37,1.37,0,0,0-.22-1.89l-8.6-7.32a1.49,1.49,0,0,0-1.81-.08l-2.58,1.79a1.46,1.46,0,0,1-1.48.13,31,31,0,0,0-4.52-1.71,1.4,1.4,0,0,1-1-1.06l-.7-3.26a1.43,1.43,0,0,0-1.47-1.12l-11.9.33a1.46,1.46,0,0,0-1.41,1.22l-.38,2.7a1.42,1.42,0,0,1-1,1.16,29.83,29.83,0,0,0-4.52,1.7,1.51,1.51,0,0,1-1.4-.08l-3.22-2a1.49,1.49,0,0,0-1.81.2l-8.07,7.78a1.39,1.39,0,0,0-.09,1.91L122,18.17a1.39,1.39,0,0,1,.16,1.58,24.93,24.93,0,0,0-1.81,3.93,1.47,1.47,0,0,1-1.11.93l-3.7.64a1.42,1.42,0,0,0-1.2,1.44l.36,10.58A1.44,1.44,0,0,0,116,38.63l3.13.36a1.45,1.45,0,0,1,1.2.95,24.94,24.94,0,0,0,1.79,3.94,1.37,1.37,0,0,1-.1,1.5L120,48a1.38,1.38,0,0,0,.22,1.89l8.6,7.32a1.5,1.5,0,0,0,1.82.08l2.57-1.79a1.46,1.46,0,0,1,1.48-.13,31,31,0,0,0,4.52,1.71,1.43,1.43,0,0,1,1,1.06l.69,3.26a1.47,1.47,0,0,0,1.48,1.13l11.9-.34a1.45,1.45,0,0,0,1.4-1.22l.39-2.7a1.4,1.4,0,0,1,1-1.16,29.83,29.83,0,0,0,4.52-1.7,1.48,1.48,0,0,1,1.4.09l3.21,2a1.51,1.51,0,0,0,1.82-.2l8.06-7.78a1.4,1.4,0,0,0,.1-1.91l-1.78-2.08A1.37,1.37,0,0,1,174.3,44,25.82,25.82,0,0,0,176.1,40,1.44,1.44,0,0,1,177.21,39.11Zm-29,11.4c-11.37,0-20.59-8.35-20.59-18.65s9.22-18.66,20.59-18.66,20.58,8.35,20.58,18.66S159.6,50.51,148.23,50.51Z" opacity="0.42"/><path d="M174.33,37.85l3.54-.64A1.38,1.38,0,0,0,179,35.79l-.35-10.44A1.39,1.39,0,0,0,177.44,24l-3-.36a1.41,1.41,0,0,1-1.15-.93,24.59,24.59,0,0,0-1.72-3.89,1.39,1.39,0,0,1,.1-1.49l1.89-2.62a1.38,1.38,0,0,0-.21-1.87l-8.23-7.22a1.4,1.4,0,0,0-1.74-.08l-2.46,1.77a1.4,1.4,0,0,1-1.42.13,28.48,28.48,0,0,0-4.32-1.69,1.4,1.4,0,0,1-1-1l-.66-3.21A1.4,1.4,0,0,0,152.16.38L140.77.72a1.39,1.39,0,0,0-1.34,1.2l-.37,2.67a1.39,1.39,0,0,1-1,1.14,29.94,29.94,0,0,0-4.32,1.67,1.36,1.36,0,0,1-1.34-.08l-3.08-1.94a1.39,1.39,0,0,0-1.73.19l-7.72,7.68a1.41,1.41,0,0,0-.1,1.88l1.7,2.06a1.38,1.38,0,0,1,.15,1.56,24.89,24.89,0,0,0-1.72,3.88,1.42,1.42,0,0,1-1.07.91l-3.54.64a1.38,1.38,0,0,0-1.15,1.42L114.51,36a1.39,1.39,0,0,0,1.23,1.34l3,.36a1.37,1.37,0,0,1,1.15.93,24.59,24.59,0,0,0,1.72,3.89,1.37,1.37,0,0,1-.1,1.48l-1.89,2.63a1.38,1.38,0,0,0,.21,1.87l8.23,7.22a1.4,1.4,0,0,0,1.74.08l2.46-1.77a1.4,1.4,0,0,1,1.42-.13A28.48,28.48,0,0,0,138,55.63a1.37,1.37,0,0,1,.95,1l.67,3.21A1.4,1.4,0,0,0,141,61l11.39-.34a1.39,1.39,0,0,0,1.34-1.2l.37-2.67a1.38,1.38,0,0,1,1-1.14A29.94,29.94,0,0,0,159.42,54a1.36,1.36,0,0,1,1.34.08L163.84,56a1.39,1.39,0,0,0,1.73-.19l7.72-7.68a1.41,1.41,0,0,0,.1-1.88l-1.7-2.06a1.38,1.38,0,0,1-.15-1.56,24.89,24.89,0,0,0,1.72-3.88A1.42,1.42,0,0,1,174.33,37.85ZM146.59,49.1c-10.88,0-19.7-8.24-19.7-18.41s8.82-18.4,19.7-18.4,19.7,8.24,19.7,18.4S157.47,49.1,146.59,49.1Z" stroke="#000" stroke-miterlimit="10" stroke-width="0.76" fill="url(#Dégradé_sans_nom_6)"/><path d="M196.09,86.63l2.87-.52a1.12,1.12,0,0,0,.92-1.15l-.28-8.44a1.12,1.12,0,0,0-1-1.08l-2.42-.3a1.13,1.13,0,0,1-.94-.75,19.55,19.55,0,0,0-1.38-3.14,1.11,1.11,0,0,1,.08-1.2l1.53-2.12a1.13,1.13,0,0,0-.17-1.51l-6.66-5.84a1.11,1.11,0,0,0-1.4-.07l-2,1.44a1.13,1.13,0,0,1-1.15.1,24.09,24.09,0,0,0-3.49-1.37,1.1,1.1,0,0,1-.77-.85l-.54-2.59a1.12,1.12,0,0,0-1.14-.9l-9.21.27a1.11,1.11,0,0,0-1.08,1l-.3,2.15a1.13,1.13,0,0,1-.79.93,23,23,0,0,0-3.5,1.35,1.12,1.12,0,0,1-1.08-.06l-2.49-1.58a1.13,1.13,0,0,0-1.4.16l-6.24,6.21a1.12,1.12,0,0,0-.08,1.52l1.38,1.66a1.14,1.14,0,0,1,.12,1.26,20.46,20.46,0,0,0-1.4,3.14,1.14,1.14,0,0,1-.86.74l-2.87.51a1.12,1.12,0,0,0-.92,1.15l.28,8.44a1.14,1.14,0,0,0,1,1.09l2.43.29a1.13,1.13,0,0,1,.93.75,20.05,20.05,0,0,0,1.38,3.15,1.1,1.1,0,0,1-.08,1.19l-1.53,2.12a1.14,1.14,0,0,0,.17,1.52l6.66,5.83a1.11,1.11,0,0,0,1.4.07l2-1.43a1.11,1.11,0,0,1,1.15-.1,24.05,24.05,0,0,0,3.49,1.36,1.11,1.11,0,0,1,.77.85l.54,2.6a1.14,1.14,0,0,0,1.14.9l9.21-.27a1.13,1.13,0,0,0,1.08-1l.3-2.15a1.13,1.13,0,0,1,.79-.93,23,23,0,0,0,3.5-1.35,1.1,1.1,0,0,1,1.08.07l2.49,1.57a1.12,1.12,0,0,0,1.4-.16l6.24-6.21a1.12,1.12,0,0,0,.08-1.52L194,91.76a1.12,1.12,0,0,1-.11-1.26,20.52,20.52,0,0,0,1.39-3.14A1.11,1.11,0,0,1,196.09,86.63Zm-22.42,9.09c-8.8,0-15.93-6.66-15.93-14.88S164.87,66,173.67,66s15.92,6.66,15.92,14.88S182.46,95.72,173.67,95.72Z" fill="#fff" stroke="#000" stroke-miterlimit="10" stroke-width="0.62"/><path d="M197.67,86.64l3-.52a1.16,1.16,0,0,0,1-1.17l-.3-8.55a1.15,1.15,0,0,0-1-1.09l-2.55-.3a1.16,1.16,0,0,1-1-.76,19.56,19.56,0,0,0-1.46-3.19,1.11,1.11,0,0,1,.08-1.21L197,67.7a1.11,1.11,0,0,0-.18-1.53l-7-5.92a1.23,1.23,0,0,0-1.48-.07l-2.09,1.46a1.22,1.22,0,0,1-1.2.1,25.2,25.2,0,0,0-3.67-1.38,1.17,1.17,0,0,1-.82-.86l-.56-2.63a1.19,1.19,0,0,0-1.2-.92l-9.66.28a1.15,1.15,0,0,0-1.14,1l-.32,2.19a1.14,1.14,0,0,1-.83.93,26.37,26.37,0,0,0-3.67,1.37,1.21,1.21,0,0,1-1.14-.06L159.48,60a1.22,1.22,0,0,0-1.47.16l-6.55,6.29a1.11,1.11,0,0,0-.08,1.54l1.44,1.69a1.1,1.1,0,0,1,.12,1.28,20.22,20.22,0,0,0-1.46,3.17,1.17,1.17,0,0,1-.91.75l-3,.52a1.16,1.16,0,0,0-1,1.17l.3,8.55a1.15,1.15,0,0,0,1,1.09l2.55.3a1.16,1.16,0,0,1,1,.76,19.56,19.56,0,0,0,1.46,3.19,1.11,1.11,0,0,1-.08,1.21l-1.61,2.15a1.11,1.11,0,0,0,.18,1.53l7,5.92a1.23,1.23,0,0,0,1.48.07L162,99.92a1.22,1.22,0,0,1,1.2-.1,25.2,25.2,0,0,0,3.67,1.38,1.14,1.14,0,0,1,.81.86l.57,2.63a1.19,1.19,0,0,0,1.2.92l9.66-.28a1.16,1.16,0,0,0,1.14-1l.32-2.19a1.12,1.12,0,0,1,.83-.93A26.37,26.37,0,0,0,185,99.86a1.21,1.21,0,0,1,1.14.06l2.61,1.6a1.22,1.22,0,0,0,1.47-.16l6.55-6.29a1.11,1.11,0,0,0,.08-1.54l-1.44-1.69a1.1,1.1,0,0,1-.12-1.28,21.18,21.18,0,0,0,1.46-3.17A1.17,1.17,0,0,1,197.67,86.64Zm-23.55,9.22c-9.23,0-16.72-6.75-16.72-15.08s7.49-15.08,16.72-15.08,16.73,6.75,16.73,15.08S183.36,95.86,174.12,95.86Z" opacity="0.42"/><path d="M196.09,86.63l2.87-.52a1.12,1.12,0,0,0,.92-1.15l-.28-8.44a1.12,1.12,0,0,0-1-1.08l-2.42-.3a1.13,1.13,0,0,1-.94-.75,19.55,19.55,0,0,0-1.38-3.14,1.11,1.11,0,0,1,.08-1.2l1.53-2.12a1.13,1.13,0,0,0-.17-1.51l-6.66-5.84a1.11,1.11,0,0,0-1.4-.07l-2,1.44a1.13,1.13,0,0,1-1.15.1,24.09,24.09,0,0,0-3.49-1.37,1.1,1.1,0,0,1-.77-.85l-.54-2.59a1.12,1.12,0,0,0-1.14-.9l-9.21.27a1.11,1.11,0,0,0-1.08,1l-.3,2.15a1.13,1.13,0,0,1-.79.93,23,23,0,0,0-3.5,1.35,1.12,1.12,0,0,1-1.08-.06l-2.49-1.58a1.13,1.13,0,0,0-1.4.16l-6.24,6.21a1.12,1.12,0,0,0-.08,1.52l1.38,1.66a1.14,1.14,0,0,1,.12,1.26,20.46,20.46,0,0,0-1.4,3.14,1.14,1.14,0,0,1-.86.74l-2.87.51a1.12,1.12,0,0,0-.92,1.15l.28,8.44a1.14,1.14,0,0,0,1,1.09l2.43.29a1.13,1.13,0,0,1,.93.75,20.05,20.05,0,0,0,1.38,3.15,1.1,1.1,0,0,1-.08,1.19l-1.53,2.12a1.14,1.14,0,0,0,.17,1.52l6.66,5.83a1.11,1.11,0,0,0,1.4.07l2-1.43a1.11,1.11,0,0,1,1.15-.1,24.05,24.05,0,0,0,3.49,1.36,1.11,1.11,0,0,1,.77.85l.54,2.6a1.14,1.14,0,0,0,1.14.9l9.21-.27a1.13,1.13,0,0,0,1.08-1l.3-2.15a1.13,1.13,0,0,1,.79-.93,23,23,0,0,0,3.5-1.35,1.1,1.1,0,0,1,1.08.07l2.49,1.57a1.12,1.12,0,0,0,1.4-.16l6.24-6.21a1.12,1.12,0,0,0,.08-1.52L194,91.76a1.12,1.12,0,0,1-.11-1.26,20.52,20.52,0,0,0,1.39-3.14A1.11,1.11,0,0,1,196.09,86.63Zm-22.42,9.09c-8.8,0-15.93-6.66-15.93-14.88S164.87,66,173.67,66s15.92,6.66,15.92,14.88S182.46,95.72,173.67,95.72Z" fill="none" stroke="#000" stroke-miterlimit="10" stroke-width="0.62"/><g opacity="0.17"><polygon points="130.28 74.18 130.15 121.78 89.75 145.7 49.08 121.78 49.22 74.18 89.61 50.26 130.28 74.18" stroke="#000" stroke-miterlimit="10" stroke-width="0.99"/><line x1="89.85" y1="109.94" x2="89.88" y2="98.1" stroke="#000" stroke-linecap="round" stroke-miterlimit="10" stroke-width="1.4"/><line x1="89.75" y1="145.7" x2="89.83" y2="116.42" stroke="#000" stroke-linecap="round" stroke-miterlimit="10" stroke-width="1.4"/><polyline points="130.28 74.18 130.15 121.79 89.75 145.71" stroke="#000" stroke-linecap="round" stroke-miterlimit="10" stroke-width="1.4"/><polyline points="89.75 145.71 49.09 121.78 49.22 74.18 89.62 50.26 130.28 74.18" stroke="#000" stroke-miterlimit="10" stroke-width="1.4"/><line x1="49.22" y1="74.18" x2="89.88" y2="98.1" stroke="#000" stroke-miterlimit="10" stroke-width="1.4"/><line x1="130.28" y1="74.18" x2="89.88" y2="98.1" stroke="#000" stroke-miterlimit="10" stroke-width="1.4"/><polygon points="89.91 145.78 89.77 193.39 49.37 217.31 8.71 193.39 8.84 145.78 49.24 121.87 89.91 145.78" stroke="#000" stroke-miterlimit="10" stroke-width="0.99"/><line x1="49.38" y1="217.31" x2="49.51" y2="169.7" stroke="#000" stroke-linecap="round" stroke-miterlimit="10" stroke-width="1.4"/><polyline points="89.91 145.78 89.77 193.39 49.38 217.31" stroke="#000" stroke-linecap="round" stroke-miterlimit="10" stroke-width="1.4"/><polyline points="49.38 217.31 8.71 193.39 8.84 145.78 49.24 121.86 89.91 145.78" stroke="#000" stroke-miterlimit="10" stroke-width="1.4"/><line x1="18.53" y1="151.48" x2="49.51" y2="169.7" stroke="#000" stroke-linecap="round" stroke-miterlimit="10" stroke-width="1.4"/><line x1="8.84" y1="145.78" x2="15.11" y2="149.47" stroke="#000" stroke-linecap="round" stroke-miterlimit="10" stroke-width="1.4"/><line x1="89.91" y1="145.78" x2="49.51" y2="169.7" stroke="#000" stroke-miterlimit="10" stroke-width="1.4"/><polygon points="170.66 145.78 170.52 193.39 130.12 217.31 89.46 193.39 89.59 145.78 129.99 121.87 170.66 145.78" stroke="#000" stroke-miterlimit="10" stroke-width="0.99"/><line x1="130.13" y1="217.31" x2="130.26" y2="169.7" stroke="#000" stroke-linecap="round" stroke-miterlimit="10" stroke-width="1.4"/><line x1="151.85" y1="204.45" x2="130.13" y2="217.31" stroke="#000" stroke-linecap="round" stroke-miterlimit="10" stroke-width="1.4"/><polyline points="170.66 145.78 170.53 193.39 154.79 202.71" stroke="#000" stroke-linecap="round" stroke-miterlimit="10" stroke-width="1.4"/><polyline points="130.13 217.31 89.46 193.39 89.59 145.78 129.99 121.86 170.66 145.78" stroke="#000" stroke-miterlimit="10" stroke-width="1.4"/><line x1="89.59" y1="145.78" x2="130.26" y2="169.7" stroke="#000" stroke-miterlimit="10" stroke-width="1.4"/><line x1="170.66" y1="145.78" x2="130.26" y2="169.7" stroke="#000" stroke-miterlimit="10" stroke-width="1.4"/><g opacity="0.58"><line x1="114.44" y1="153.7" x2="118.94" y2="156.67" stroke="#000" stroke-linecap="round" stroke-miterlimit="10" stroke-width="1.53"/><line x1="121.54" y1="151.76" x2="118.75" y2="153.72" stroke="#000" stroke-linecap="round" stroke-miterlimit="10" stroke-width="1.53"/><line x1="120.22" y1="148.22" x2="126.87" y2="152.52" stroke="#000" stroke-linecap="round" stroke-miterlimit="10" stroke-width="1.53"/><polygon points="121.5 149.04 136.01 138.98 139.93 141.41 125.58 151.68 121.5 149.04" stroke="#000" stroke-linecap="round" stroke-miterlimit="10" stroke-width="1.53"/><polygon points="121.5 149.04 129.24 143.67 135.87 144.58 125.58 151.68 121.5 149.04" stroke="#000" stroke-linecap="round" stroke-miterlimit="10" stroke-width="1.1"/><line x1="138.83" y1="138.42" x2="140.59" y2="139.51" stroke="#000" stroke-linecap="round" stroke-miterlimit="10" stroke-width="1.53"/><line x1="140.14" y1="138.66" x2="145.61" y2="134.8" stroke="#000" stroke-linecap="round" stroke-miterlimit="10" stroke-width="0.51"/><line x1="128.77" y1="147.2" x2="130.4" y2="148.23" stroke="#000" stroke-miterlimit="10" stroke-width="0.76"/><line x1="131.59" y1="145.21" x2="133.2" y2="146.23" stroke="#000" stroke-miterlimit="10" stroke-width="0.76"/><line x1="134.34" y1="143.27" x2="135.94" y2="144.27" stroke="#000" stroke-miterlimit="10" stroke-width="0.76"/></g><g opacity="0.58"><path d="M41.13,145.27a3.56,3.56,0,0,0-1.63,2.42,5.3,5.3,0,0,1-2.93-.64l-.3-.18c-1.55-.91-1.67-2.43-.28-3.39L39.63,141,44.79,144A7.72,7.72,0,0,0,41.13,145.27Z" stroke="#000" stroke-miterlimit="10" stroke-width="0.99"/><path d="M50.62,140.73l-3.49,2.47-5.76-3.43,3.54-2.44a5.12,5.12,0,0,1,5.1-.05l.28.17C51.78,138.34,51.93,139.81,50.62,140.73Z" stroke="#000" stroke-miterlimit="10" stroke-width="0.99"/><path d="M46.39,152.06c-2.41-.13-4.42-1.33-4.86-2.88a3.25,3.25,0,0,1-.08-.43c-.15-1.76,1.73-3.25,4.3-3.53Z" stroke="#000" stroke-miterlimit="10" stroke-width="0.99"/><path d="M47.83,152l-.59-6.23-.06-.59c.22,0,.43,0,.64.06,2.28.34,4.06,1.64,4.22,3.22C52.21,150.22,50.38,151.72,47.83,152Z" stroke="#000" stroke-miterlimit="10" stroke-width="0.99"/></g><g opacity="0.58"><path d="M97.36,69.57l-4.51-2.64c-.45-.26-.47-.69,0-1l.37-.22a1.76,1.76,0,0,1,1.61,0l4.48,2.63c.45.27.47.69,0,1l-.36.22A1.74,1.74,0,0,1,97.36,69.57Z" stroke="#000" stroke-miterlimit="10" stroke-width="0.99"/><path d="M96.62,72.38,87.79,77.7a2,2,0,0,1-1.84,0l-6.76-3.87c-.53-.3-.54-.79,0-1.09l9-5.31a3.66,3.66,0,0,1,2.75-.22,1.2,1.2,0,0,1,1,0l5,2.89c.28.17.31.43.08.61C97.45,71.29,97.34,71.94,96.62,72.38Z" stroke="#000" stroke-miterlimit="10" stroke-width="0.99"/><polygon points="89.25 76.77 80.65 71.82 86.55 68.34 95.05 73.28 89.25 76.77" stroke="#000" stroke-miterlimit="10" stroke-width="0.99"/><polygon points="86.55 74.24 85.09 73.4 88.64 71.29 90.08 72.13 86.55 74.24" stroke="#000" stroke-miterlimit="10" stroke-width="0.99"/><polygon points="85.05 72.14 86.45 71.31 90.13 73.43 88.74 74.26 85.05 72.14" stroke="#000" stroke-miterlimit="10" stroke-width="0.99"/><path d="M96.62,72.38,87.79,77.7a2,2,0,0,1-1.84,0l-.86-.49a2,2,0,0,0,1.84,0l8.85-5.32c.72-.44.83-1.09.35-1.61.23-.18.2-.44-.08-.61l.84.49c.28.17.31.43.08.61C97.45,71.29,97.34,71.94,96.62,72.38Z" stroke="#000" stroke-miterlimit="10" stroke-width="0.99" opacity="0.31"/></g></g><polygon points="124.57 77.18 124.43 124.78 83.27 148.7 41.84 124.78 41.98 77.18 83.14 53.26 124.57 77.18" fill="#fff"/><line x1="83.38" y1="112.94" x2="83.41" y2="101.1" fill="none" stroke="#191919" stroke-linecap="round" stroke-miterlimit="10" stroke-width="1.42"/><line x1="83.27" y1="148.7" x2="83.36" y2="119.42" fill="none" stroke="#191919" stroke-linecap="round" stroke-miterlimit="10" stroke-width="1.42"/><polyline points="124.57 77.18 124.43 124.79 83.27 148.71" fill="none" stroke="#191919" stroke-linecap="round" stroke-miterlimit="10" stroke-width="1.42"/><polyline points="83.27 148.71 41.84 124.78 41.98 77.18 83.14 53.26 124.57 77.18" fill="none" stroke="#191919" stroke-miterlimit="10" stroke-width="1.42"/><line x1="41.98" y1="77.18" x2="83.41" y2="101.1" fill="none" stroke="#191919" stroke-miterlimit="10" stroke-width="1.42"/><line x1="124.57" y1="77.18" x2="83.41" y2="101.1" fill="none" stroke="#191919" stroke-miterlimit="10" stroke-width="1.42"/><polygon points="83.44 148.78 83.3 196.39 42.14 220.31 0.71 196.39 0.85 148.78 42 124.87 83.44 148.78" fill="#fff"/><line x1="42.14" y1="220.31" x2="42.27" y2="172.7" fill="none" stroke="#191919" stroke-linecap="round" stroke-miterlimit="10" stroke-width="1.42"/><polyline points="83.43 148.78 83.3 196.39 42.14 220.31" fill="none" stroke="#191919" stroke-linecap="round" stroke-miterlimit="10" stroke-width="1.42"/><polyline points="42.14 220.31 0.71 196.39 0.84 148.78 42 124.86 83.43 148.78" fill="none" stroke="#191919" stroke-miterlimit="10" stroke-width="1.42"/><line x1="10.72" y1="154.48" x2="42.27" y2="172.7" fill="none" stroke="#191919" stroke-linecap="round" stroke-miterlimit="10" stroke-width="1.42"/><line x1="0.84" y1="148.78" x2="7.23" y2="152.47" fill="none" stroke="#191919" stroke-linecap="round" stroke-miterlimit="10" stroke-width="1.42"/><polyline points="42.27 172.7 42.27 220.43 83.16 196.43 83.43 148.78" stroke="#191919" stroke-miterlimit="10" stroke-width="1.42" opacity="0.16"/><line x1="83.43" y1="148.78" x2="42.27" y2="172.7" stroke="#191919" stroke-miterlimit="10" stroke-width="1.42"/><polygon points="165.7 148.78 165.57 196.39 124.41 220.31 82.98 196.39 83.11 148.78 124.27 124.87 165.7 148.78" fill="#fff"/><polyline points="124.43 171.7 124.43 219.43 83.55 195.43 83.28 147.78" stroke="#191919" stroke-miterlimit="10" stroke-width="1.42" opacity="0.16"/><line x1="124.41" y1="220.31" x2="124.54" y2="172.7" fill="none" stroke="#191919" stroke-linecap="round" stroke-miterlimit="10" stroke-width="1.42"/><line x1="146.54" y1="207.45" x2="124.41" y2="220.31" fill="none" stroke="#191919" stroke-linecap="round" stroke-miterlimit="10" stroke-width="1.42"/><polyline points="165.7 148.78 165.57 196.39 149.54 205.71" fill="none" stroke="#191919" stroke-linecap="round" stroke-miterlimit="10" stroke-width="1.42"/><polyline points="124.41 220.31 82.98 196.39 83.11 148.78 124.27 124.86 165.7 148.78" fill="none" stroke="#191919" stroke-miterlimit="10" stroke-width="1.42"/><line x1="83.11" y1="148.78" x2="124.54" y2="172.7" fill="none" stroke="#191919" stroke-miterlimit="10" stroke-width="1.42"/><line x1="165.7" y1="148.78" x2="124.54" y2="172.7" fill="none" stroke="#191919" stroke-miterlimit="10" stroke-width="1.42"/><g opacity="0.58"><line x1="108.42" y1="156.7" x2="113.02" y2="159.67" stroke="#000" stroke-linecap="round" stroke-miterlimit="10" stroke-width="1.54"/><line x1="115.66" y1="154.76" x2="112.82" y2="156.72" stroke="#000" stroke-linecap="round" stroke-miterlimit="10" stroke-width="1.54"/><line x1="114.32" y1="151.22" x2="121.09" y2="155.52" stroke="#000" stroke-linecap="round" stroke-miterlimit="10" stroke-width="1.54"/><polygon points="115.61 152.04 130.4 141.98 134.4 144.41 119.78 154.68 115.61 152.04" stroke="#000" stroke-linecap="round" stroke-miterlimit="10" stroke-width="1.54"/><polygon points="115.61 152.04 123.51 146.67 130.26 147.58 119.78 154.68 115.61 152.04" stroke="#000" stroke-linecap="round" stroke-miterlimit="10" stroke-width="1.11"/><line x1="133.27" y1="141.42" x2="135.07" y2="142.51" stroke="#000" stroke-linecap="round" stroke-miterlimit="10" stroke-width="1.54"/><line x1="134.61" y1="141.66" x2="140.19" y2="137.8" stroke="#000" stroke-linecap="round" stroke-miterlimit="10" stroke-width="0.51"/><line x1="123.03" y1="150.2" x2="124.68" y2="151.23" stroke="#000" stroke-miterlimit="10" stroke-width="0.77"/><line x1="125.9" y1="148.21" x2="127.54" y2="149.23" stroke="#000" stroke-miterlimit="10" stroke-width="0.77"/><line x1="128.7" y1="146.27" x2="130.33" y2="147.27" stroke="#000" stroke-miterlimit="10" stroke-width="0.77"/></g><g opacity="0.58"><path d="M33.74,148.27a3.55,3.55,0,0,0-1.66,2.42,5.5,5.5,0,0,1-3-.64l-.3-.18c-1.58-.91-1.7-2.43-.28-3.39L32.22,144,37.47,147A8,8,0,0,0,33.74,148.27Z"/><path d="M43.41,143.73l-3.55,2.47L34,142.77l3.61-2.44a5.3,5.3,0,0,1,5.19-.05l.29.17C44.59,141.34,44.74,142.81,43.41,143.73Z"/><path d="M39.1,155.06c-2.46-.13-4.5-1.33-5-2.88a2.17,2.17,0,0,1-.08-.43c-.16-1.76,1.76-3.25,4.38-3.53Z"/><path d="M40.56,155l-.6-6.23-.06-.59c.22,0,.44,0,.65.06,2.33.34,4.14,1.64,4.3,3.22C45,153.22,43.17,154.72,40.56,155Z"/></g><g opacity="0.58"><path d="M91,72.57l-4.58-2.64c-.47-.26-.48-.69,0-1l.37-.22a1.84,1.84,0,0,1,1.65,0L93,71.41c.45.27.47.69,0,1l-.37.22A1.8,1.8,0,0,1,91,72.57Z"/><path d="M90.27,75.38l-9,5.32a2.05,2.05,0,0,1-1.87,0l-6.89-3.87c-.53-.3-.54-.79,0-1.09l9.17-5.31a3.76,3.76,0,0,1,2.79-.22,1.27,1.27,0,0,1,1.06,0l5,2.89c.29.17.32.43.08.61C91.12,74.29,91,74.94,90.27,75.38Z"/><polygon points="82.77 79.77 74 74.82 80.01 71.34 88.67 76.28 82.77 79.77"/><polygon points="80.01 77.24 78.53 76.4 82.14 74.29 83.61 75.13 80.01 77.24" fill="#fff"/><polygon points="78.49 75.14 79.92 74.31 83.66 76.43 82.24 77.26 78.49 75.14" fill="#fff"/><path d="M90.27,75.38l-9,5.32a2.05,2.05,0,0,1-1.87,0l-.88-.49a2.11,2.11,0,0,0,1.88,0l9-5.32c.73-.44.84-1.09.35-1.61.24-.18.21-.44-.08-.61l.86.49c.29.17.32.43.08.61C91.12,74.29,91,74.94,90.27,75.38Z" opacity="0.31"/></g></g></g></svg>