<svg xmlns="http://www.w3.org/2000/svg" xmlns:xlink="http://www.w3.org/1999/xlink" viewBox="0 0 169.32 103.96"><defs><linearGradient id="Dégradé_sans_nom_10" x1="39.95" y1="40.75" x2="24.04" y2="53.67" gradientUnits="userSpaceOnUse"><stop offset="0" stop-color="#439cdf"/><stop offset="0.62" stop-color="#435cd1"/><stop offset="1" stop-color="#4338ca"/></linearGradient><linearGradient id="Dégradé_sans_nom_10-2" x1="43.44" y1="60" x2="19.9" y2="79.11" xlink:href="#Dégradé_sans_nom_10"/></defs><g id="Calque_2" data-name="Calque 2"><g id="Calque_1-2" data-name="Calque 1"><path d="M167.64,22.87A3.53,3.53,0,0,0,169.31,20a3.6,3.6,0,0,0-3.2-3.77,3.62,3.62,0,0,1-3.21-3.72,5,5,0,0,1,.08-.66,3.62,3.62,0,0,0-3.43-4.41,3.54,3.54,0,0,0-2.35.79,3.6,3.6,0,0,1-5.3-.89A3.53,3.53,0,0,0,149,5.64a3.61,3.61,0,0,0-3.77,3.21,3.63,3.63,0,0,1-3.72,3.21,5,5,0,0,1-.66-.08,3.62,3.62,0,0,0-4.41,3.43,3.54,3.54,0,0,0,.79,2.35,3.63,3.63,0,0,1,.79,2.38,3.56,3.56,0,0,1-1.68,2.92A3.54,3.54,0,0,0,134.68,26a3.6,3.6,0,0,0,3.2,3.77,3.62,3.62,0,0,1,3.21,3.72,3.72,3.72,0,0,1-.08.66,3.62,3.62,0,0,0,3.43,4.41,3.54,3.54,0,0,0,2.35-.79,3.63,3.63,0,0,1,2.38-.79,3.56,3.56,0,0,1,2.92,1.68A3.54,3.54,0,0,0,155,40.28a3.6,3.6,0,0,0,3.77-3.2A3.63,3.63,0,0,1,163.13,34a3.62,3.62,0,0,0,4.41-3.43,3.54,3.54,0,0,0-.79-2.35,3.63,3.63,0,0,1-.79-2.38A3.56,3.56,0,0,1,167.64,22.87ZM151.64,33A10,10,0,1,1,162,23.32,10,10,0,0,1,151.64,33Z" fill="#191919" opacity="0.44"/><path d="M167.64,21.87A3.53,3.53,0,0,0,169.31,19a3.6,3.6,0,0,0-3.2-3.77,3.62,3.62,0,0,1-3.21-3.72,5,5,0,0,1,.08-.66,3.62,3.62,0,0,0-3.43-4.41,3.54,3.54,0,0,0-2.35.79,3.6,3.6,0,0,1-5.3-.89A3.53,3.53,0,0,0,149,4.64a3.61,3.61,0,0,0-3.77,3.21,3.63,3.63,0,0,1-3.72,3.21,5,5,0,0,1-.66-.08,3.62,3.62,0,0,0-4.41,3.43,3.54,3.54,0,0,0,.79,2.35,3.63,3.63,0,0,1,.79,2.38,3.56,3.56,0,0,1-1.68,2.92A3.54,3.54,0,0,0,134.68,25a3.6,3.6,0,0,0,3.2,3.77,3.62,3.62,0,0,1,3.21,3.72,3.72,3.72,0,0,1-.08.66,3.62,3.62,0,0,0,3.43,4.41,3.54,3.54,0,0,0,2.35-.79,3.63,3.63,0,0,1,2.38-.79,3.56,3.56,0,0,1,2.92,1.68A3.54,3.54,0,0,0,155,39.28a3.6,3.6,0,0,0,3.77-3.2A3.63,3.63,0,0,1,163.13,33a3.62,3.62,0,0,0,4.41-3.43,3.54,3.54,0,0,0-.79-2.35,3.63,3.63,0,0,1-.79-2.38A3.56,3.56,0,0,1,167.64,21.87ZM151.64,32A10,10,0,1,1,162,22.32,10,10,0,0,1,151.64,32Z" fill="#666"/><path d="M135,43.28a6.55,6.55,0,0,0,3.92-4.79,6.67,6.67,0,0,0-4.75-7.84,6.71,6.71,0,0,1-4.76-7.75,6.36,6.36,0,0,1,.35-1.18,6.74,6.74,0,0,0-5-9.09,6.55,6.55,0,0,0-4.54.76,6.77,6.77,0,0,1-4.58.73,6.66,6.66,0,0,1-4.85-3.93A6.53,6.53,0,0,0,106,6.27,6.68,6.68,0,0,0,98.18,11a6.71,6.71,0,0,1-7.75,4.76,6.84,6.84,0,0,1-1.17-.35,6.74,6.74,0,0,0-9.1,5,6.57,6.57,0,0,0,.76,4.53,6.75,6.75,0,0,1,.73,4.59,6.58,6.58,0,0,1-3.93,4.84,6.58,6.58,0,0,0-3.92,4.8A6.68,6.68,0,0,0,78.55,47a6.7,6.7,0,0,1,4.76,7.74A6.92,6.92,0,0,1,83,55.92a6.74,6.74,0,0,0,5,9.1,6.58,6.58,0,0,0,4.53-.76,6.72,6.72,0,0,1,4.58-.73,6.62,6.62,0,0,1,4.85,3.93,6.55,6.55,0,0,0,4.79,3.92,6.69,6.69,0,0,0,7.84-4.75,6.71,6.71,0,0,1,8.93-4.42,6.73,6.73,0,0,0,9.09-5,6.58,6.58,0,0,0-.76-4.53,6.77,6.77,0,0,1-.73-4.58A6.66,6.66,0,0,1,135,43.28ZM102.74,57a18.52,18.52,0,1,1,21.78-14.55A18.53,18.53,0,0,1,102.74,57Z" fill="#191919" opacity="0.19"/><path d="M135,41.28a6.55,6.55,0,0,0,3.92-4.79,6.67,6.67,0,0,0-4.75-7.84,6.71,6.71,0,0,1-4.76-7.75,6.36,6.36,0,0,1,.35-1.18,6.74,6.74,0,0,0-5-9.09,6.55,6.55,0,0,0-4.54.76,6.77,6.77,0,0,1-4.58.73,6.66,6.66,0,0,1-4.85-3.93A6.53,6.53,0,0,0,106,4.27,6.68,6.68,0,0,0,98.18,9a6.71,6.71,0,0,1-7.75,4.76,6.84,6.84,0,0,1-1.17-.35,6.74,6.74,0,0,0-9.1,5,6.57,6.57,0,0,0,.76,4.53,6.75,6.75,0,0,1,.73,4.59,6.58,6.58,0,0,1-3.93,4.84,6.58,6.58,0,0,0-3.92,4.8A6.68,6.68,0,0,0,78.55,45a6.7,6.7,0,0,1,4.76,7.74A6.92,6.92,0,0,1,83,53.92a6.74,6.74,0,0,0,5,9.1,6.58,6.58,0,0,0,4.53-.76,6.72,6.72,0,0,1,4.58-.73,6.62,6.62,0,0,1,4.85,3.93,6.55,6.55,0,0,0,4.79,3.92,6.69,6.69,0,0,0,7.84-4.75,6.71,6.71,0,0,1,8.93-4.42,6.73,6.73,0,0,0,9.09-5,6.58,6.58,0,0,0-.76-4.53,6.77,6.77,0,0,1-.73-4.58A6.66,6.66,0,0,1,135,41.28ZM102.74,55a18.52,18.52,0,1,1,21.78-14.55A18.53,18.53,0,0,1,102.74,55Z" fill="#666"/><path d="M135,41.28a6.55,6.55,0,0,0,3.92-4.79,6.67,6.67,0,0,0-4.75-7.84,6.71,6.71,0,0,1-4.76-7.75,6.36,6.36,0,0,1,.35-1.18,6.74,6.74,0,0,0-5-9.09,6.55,6.55,0,0,0-4.54.76,6.77,6.77,0,0,1-4.58.73,6.66,6.66,0,0,1-4.85-3.93A6.53,6.53,0,0,0,106,4.27,6.68,6.68,0,0,0,98.18,9a6.71,6.71,0,0,1-7.75,4.76,6.84,6.84,0,0,1-1.17-.35,6.74,6.74,0,0,0-9.1,5,6.57,6.57,0,0,0,.76,4.53,6.75,6.75,0,0,1,.73,4.59,6.58,6.58,0,0,1-3.93,4.84,6.58,6.58,0,0,0-3.92,4.8A6.68,6.68,0,0,0,78.55,45a6.7,6.7,0,0,1,4.76,7.74A6.92,6.92,0,0,1,83,53.92a6.74,6.74,0,0,0,5,9.1,6.58,6.58,0,0,0,4.53-.76,6.72,6.72,0,0,1,4.58-.73,6.62,6.62,0,0,1,4.85,3.93,6.55,6.55,0,0,0,4.79,3.92,6.69,6.69,0,0,0,7.84-4.75,6.71,6.71,0,0,1,8.93-4.42,6.73,6.73,0,0,0,9.09-5,6.58,6.58,0,0,0-.76-4.53,6.77,6.77,0,0,1-.73-4.58A6.66,6.66,0,0,1,135,41.28ZM102.74,55a18.52,18.52,0,1,1,21.78-14.55A18.53,18.53,0,0,1,102.74,55Z" fill="#fff" opacity="0"/><path d="M50.15,71.64A23.49,23.49,0,0,1,32,80a23.56,23.56,0,0,1-17.95-8.07,18.35,18.35,0,0,1,7.47-11.68,18.37,18.37,0,0,0,21.21,0A18.31,18.31,0,0,1,50.15,71.64Z" fill="none" stroke="#000" stroke-miterlimit="10" stroke-width="1.84"/><path d="M83.82,11h18.24A4.94,4.94,0,0,1,107,15.9V98a4.94,4.94,0,0,1-4.94,4.94H5.94A4.94,4.94,0,0,1,1,98V15.9A4.94,4.94,0,0,1,5.94,11H32" fill="#fff" stroke="#191919" stroke-linecap="round" stroke-miterlimit="10" stroke-width="1.99"/><path d="M78,8.15v9.62A1.19,1.19,0,0,1,76.8,19H37.19A1.19,1.19,0,0,1,36,17.77V8.15A1.19,1.19,0,0,1,37.19,7h11a.48.48,0,0,0,.45-.31,9,9,0,0,1,16.73,0,.48.48,0,0,0,.45.31h11A1.2,1.2,0,0,1,78,8.15Z" fill="#fff" stroke="#191919" stroke-linecap="round" stroke-miterlimit="10" stroke-width="1.93"/><circle cx="32" cy="47.21" r="10.25" stroke="#191919" stroke-miterlimit="10" stroke-width="2" fill="url(#Dégradé_sans_nom_10)"/><path d="M18.08,75.58a22.13,22.13,0,0,1-4-3.69,18.35,18.35,0,0,1,7.47-11.68,18.37,18.37,0,0,0,21.21,0,18.31,18.31,0,0,1,7.42,11.43A23.49,23.49,0,0,1,32,80a24.24,24.24,0,0,1-9.94-2.1" stroke="#191919" stroke-linecap="round" stroke-miterlimit="10" stroke-width="2" fill="url(#Dégradé_sans_nom_10-2)"/><line x1="66" y1="45.96" x2="89" y2="45.96" fill="none" stroke="#686868" stroke-linecap="round" stroke-miterlimit="10" stroke-width="4"/><line x1="66" y1="65.96" x2="89" y2="65.96" fill="none" stroke="#686868" stroke-linecap="round" stroke-miterlimit="10" stroke-width="4"/><path d="M107,15.9V98a4.94,4.94,0,0,1-4.94,4.94H95.23l-.23-.23h3.65a4.89,4.89,0,0,0,4.89-4.89v-82c0-2.61-4.66-4.89-4.66-4.89h3.18A4.94,4.94,0,0,1,107,15.9Z" fill="#191919" opacity="0.19"/><polygon points="81 11.96 79 19.96 78.82 10.96 81 11.96" fill="#191919" opacity="0.19"/><path d="M78,7.66V19H74.24a1.47,1.47,0,0,0,1.47-1.47V8.43A1.47,1.47,0,0,0,74.24,7H77.3A.7.7,0,0,1,78,7.66Z" fill="#191919" opacity="0.19"/></g></g></svg>