<svg xmlns="http://www.w3.org/2000/svg" xmlns:xlink="http://www.w3.org/1999/xlink" viewBox="0 0 137.98 160.16"><defs><linearGradient id="Dégradé_sans_nom_10" x1="33.42" y1="44.05" x2="58.92" y2="42.99" gradientUnits="userSpaceOnUse"><stop offset="0" stop-color="#439cdf"/><stop offset="0.62" stop-color="#435cd1"/><stop offset="1" stop-color="#4338ca"/></linearGradient><linearGradient id="Dégradé_sans_nom_10-2" x1="102.38" y1="87.12" x2="76.83" y2="107.85" xlink:href="#Dégradé_sans_nom_10"/><linearGradient id="Dégradé_sans_nom_10-3" x1="107.97" y1="118.01" x2="70.19" y2="148.66" xlink:href="#Dégradé_sans_nom_10"/><linearGradient id="Dégradé_sans_nom_10-4" x1="-3818.59" y1="5124.26" x2="-3830.75" y2="5134.13" gradientTransform="translate(-6210.87 -727.52) rotate(-119)" xlink:href="#Dégradé_sans_nom_10"/></defs><g id="Calque_2" data-name="Calque 2"><g id="Calque_1-2" data-name="Calque 1"><g opacity="0.14"><path d="M109.36,17.08l-2.52-.52L94.9,14.07l-4-.82h0l-.66-.13-1.81-.38L57,6.17l-3.17-.66L33.15,1.2C31,.75,28.7,3,28,6.12l-2.91,14h7.94v6a1,1,0,0,0,1,1.05H66.75v-7H83.49s3.74,2.67,3.74,5.74V76.17A20.31,20.31,0,0,1,89.58,76a21,21,0,0,1,4.37.45,18.84,18.84,0,0,1,4.14.52,17.5,17.5,0,0,1,2.69.84l11.3-54.22C112.74,20.46,111.53,17.53,109.36,17.08ZM67.51,26l.13-.61a.49.49,0,0,1,.59-.38l.2-.9-1-3Zm-.1-5.91,0,1h1.69l0-.12ZM81.57,122.41l.13.3,1.53.32v-.28ZM75.46,30.63,72,29.91l.72-3.48a.49.49,0,0,0-.39-.59l-3.53-.74L68.24,25h0l.2-.9.69-3,0-.12-1.74-.88,0,1v0L67.51,26l-.59,2.87-3.19-.66-.16,0h0a.47.47,0,0,0-.55.39l-.85,4.07a.5.5,0,0,0,.38.6l3.34.69-.7,3.35a.5.5,0,0,0,.4.58l4.07.85a.5.5,0,0,0,.6-.38L70.92,35l1.26.26,2.22.47a.51.51,0,0,0,.59-.4l.85-4.07A.5.5,0,0,0,75.46,30.63ZM55.92,40.05H52.4V36.53a.49.49,0,0,0-.5-.49H47.78a.49.49,0,0,0-.5.49v3.52H43.9a.49.49,0,0,0-.49.5v4.12a.49.49,0,0,0,.49.5h3.38v3.38a.49.49,0,0,0,.5.49H51.9a.49.49,0,0,0,.5-.49V45.17h3.52a.49.49,0,0,0,.49-.5V40.55A.49.49,0,0,0,55.92,40.05Z" stroke="#000" stroke-linecap="round" stroke-miterlimit="10" stroke-width="1.95"/><path d="M90.79,10.67,89.05,19a1,1,0,0,1-1.16.84L56.48,13.3a1,1,0,0,1-.73-1.23l1.74-8.34a1,1,0,0,1,1.16-.84l8.71,1.82a.41.41,0,0,0,.42-.2A7.07,7.07,0,0,1,81,7.27a.39.39,0,0,0,.3.35l8.72,1.82A1,1,0,0,1,90.79,10.67Z" stroke="#000" stroke-linecap="round" stroke-miterlimit="10" stroke-width="1.63"/><line x1="54" y1="45.48" x2="88.49" y2="52.66" fill="none" stroke="#000" stroke-miterlimit="10" stroke-width="2.02"/><line x1="32.13" y1="40.92" x2="44.98" y2="43.6" fill="none" stroke="#000" stroke-miterlimit="10" stroke-width="2.02"/><line x1="51.53" y1="57.34" x2="70.2" y2="61.23" fill="none" stroke="#000" stroke-miterlimit="10" stroke-width="2.02"/><line x1="29.66" y1="52.78" x2="42.51" y2="55.46" fill="none" stroke="#000" stroke-miterlimit="10" stroke-width="2.02"/><line x1="49.06" y1="69.21" x2="72.67" y2="74.13" fill="none" stroke="#000" stroke-miterlimit="10" stroke-width="2.02"/><line x1="27.18" y1="64.65" x2="40.04" y2="67.33" fill="none" stroke="#000" stroke-miterlimit="10" stroke-width="2.02"/><polygon points="81.56 122.41 83.22 122.75 83.22 123.03 81.69 122.71 81.56 122.41" stroke="#000" stroke-miterlimit="10" opacity="0.19"/><path d="M112.08,23.63l-11.3,54.22A17.5,17.5,0,0,0,98.09,77l11.26-54c.63-3-2.51-6.44-2.51-6.44l2.52.52C111.53,17.53,112.74,20.46,112.08,23.63Z" stroke="#000" stroke-miterlimit="10" opacity="0.19"/><polygon points="92.48 14.47 89.45 21.08 90.93 13.24 92.48 14.47" stroke="#000" stroke-miterlimit="10" opacity="0.19"/><path d="M90.88,10.24l-2,9.8-3-.62a1.24,1.24,0,0,0,1.43-1l1.64-7.86A1.26,1.26,0,0,0,88,9l2.43.51A.59.59,0,0,1,90.88,10.24Z" stroke="#000" stroke-miterlimit="10" opacity="0.19"/><path d="M75.84,31.23,75,35.3a.51.51,0,0,1-.59.4L70.92,35l-.69,3.34a.5.5,0,0,1-.6.38l-4.07-.85a.5.5,0,0,1-.4-.58l.7-3.35-3.34-.69a.5.5,0,0,1-.38-.6L63,28.55a.48.48,0,0,1,.58-.39l3.35.69L67.51,26l.13-.61a.49.49,0,0,1,.59-.38h0l4.07.85a.49.49,0,0,1,.39.59L72,29.91l3.48.72A.5.5,0,0,1,75.84,31.23Z" stroke="#000" stroke-miterlimit="10"/></g><path d="M86,26.87V76.35a18.32,18.32,0,0,0-2.77.66,21.29,21.29,0,0,0,0,40.65l.26.08-.26,0a34.91,34.91,0,0,1-13.67-5.81,34,34,0,0,0-3.32,2.67A35,35,0,0,0,57,128.15l.26.89H5c-2.19,0-4-2.59-4-5.8V26.87c0-3.21,1.77-5.8,4-5.8H82C84.23,21.07,86,23.66,86,26.87Z" fill="#fff"/><polygon points="63.99 75.04 53.99 105.04 46.99 116.04 56.99 129.04 86 129.04 86 76.04 69 82.04 63.99 75.04" fill="#fff"/><polygon points="83.22 122.75 83.22 123.03 81.69 122.71 81.56 122.41 83.22 122.75" fill="#fff"/><path d="M57.24,129H5c-2.19,0-4-2.59-4-5.8V26.87c0-3.21,1.77-5.8,4-5.8h20.9" fill="#fff" stroke="#191919" stroke-linecap="round" stroke-miterlimit="10" stroke-width="1.99"/><path d="M67.42,21.07H82c2.19,0,4,2.59,4,5.8V76.35" fill="#fff" stroke="#191919" stroke-linecap="round" stroke-miterlimit="10" stroke-width="1.99"/><polygon points="83.22 122.75 83.22 123.03 81.69 122.71 81.56 122.41 83.22 122.75" fill="#fff" stroke="#191919" stroke-linecap="round" stroke-miterlimit="10" stroke-width="1.99"/><path d="M62.74,18.6V27a1,1,0,0,1-1,1H30a1,1,0,0,1-1-1V18.6a1,1,0,0,1,1-1h8.81a.39.39,0,0,0,.36-.28,7,7,0,0,1,13.42,0,.4.4,0,0,0,.36.28h8.82A1,1,0,0,1,62.74,18.6Z" fill="#fff" stroke="#191919" stroke-linecap="round" stroke-miterlimit="10" stroke-width="1.99"/><line x1="34.12" y1="59.77" x2="69" y2="59.77" fill="none" stroke="#686868" stroke-miterlimit="10" stroke-width="2"/><line x1="12" y1="59.77" x2="25" y2="59.77" fill="none" stroke="#686868" stroke-miterlimit="10" stroke-width="2"/><line x1="34.12" y1="71.77" x2="53" y2="71.77" fill="none" stroke="#686868" stroke-miterlimit="10" stroke-width="2"/><line x1="12" y1="71.77" x2="25" y2="71.77" fill="none" stroke="#686868" stroke-miterlimit="10" stroke-width="2"/><line x1="34.12" y1="83.77" x2="58" y2="83.77" fill="none" stroke="#686868" stroke-miterlimit="10" stroke-width="2"/><line x1="12" y1="83.77" x2="25" y2="83.77" fill="none" stroke="#686868" stroke-miterlimit="10" stroke-width="2"/><path d="M83.23,117.66l.26.08-.26,0Z" fill="#191919" opacity="0.19"/><path d="M86,26.87V76.35a18.32,18.32,0,0,0-2.77.66V26.81c0-3.07-3.74-5.74-3.74-5.74H82C84.23,21.07,86,23.66,86,26.87Z" fill="#191919" opacity="0.19"/><polygon points="65.15 21.94 63.54 28.96 63.4 21.06 65.15 21.94" fill="#191919" opacity="0.19"/><path d="M62.74,18.17v9.91h-3a1.23,1.23,0,0,0,1.17-1.29V18.84a1.22,1.22,0,0,0-1.17-1.28h2.45A.58.58,0,0,1,62.74,18.17Z" fill="#191919" opacity="0.19"/><path d="M52.4,41.55v4.12a.49.49,0,0,1-.49.5H48.39v3.38a.49.49,0,0,1-.5.49H43.77a.49.49,0,0,1-.5-.49V46.17H39.89a.49.49,0,0,1-.49-.5V41.55a.49.49,0,0,1,.49-.5h3.38V37.53a.49.49,0,0,1,.5-.49h4.12a.49.49,0,0,1,.5.49v3.52h3.52A.49.49,0,0,1,52.4,41.55Z" fill="url(#Dégradé_sans_nom_10)"/><polygon points="81.56 122.41 83.22 122.75 83.22 123.03 81.69 122.71 81.56 122.41" fill="#fff"/><circle cx="89.6" cy="97.48" r="16.45" stroke="#191919" stroke-miterlimit="10" stroke-width="3.21" fill="url(#Dégradé_sans_nom_10-2)"/><path d="M67.27,143a36.4,36.4,0,0,1-6.47-5.91,29.47,29.47,0,0,1,12-18.75,29.46,29.46,0,0,0,34,0,29.41,29.41,0,0,1,11.91,18.35A37.7,37.7,0,0,1,89.6,150a38.78,38.78,0,0,1-15.94-3.39" stroke="#191919" stroke-linecap="round" stroke-miterlimit="10" stroke-width="3.21" fill="url(#Dégradé_sans_nom_10-3)"/><path d="M85.18,148.68l45.39-25.16a1,1,0,0,1,1.32.29l4.92,8.88a1,1,0,0,1-.45,1.28L91,159.13h-.08l-11.46-.37.16-.29,5.55-9.72Z" fill="#fff" stroke="#191919" stroke-miterlimit="10" stroke-width="1.99"/><path d="M122.12,128.21l8.52-4.73a1,1,0,0,1,1.32.29l4.92,8.88a1,1,0,0,1-.45,1.28l-8.52,4.72Z" stroke="#191919" stroke-linecap="round" stroke-miterlimit="10" stroke-width="1.99" fill="url(#Dégradé_sans_nom_10-4)"/><path d="M79.58,158.47,89,154.24l45.8-25.39,2.11,3.8a1,1,0,0,1-.45,1.28L91,159.13h-.08l-11.46-.37Z" fill="#191919" opacity="0.23"/></g></g></svg>