<svg xmlns="http://www.w3.org/2000/svg" xmlns:xlink="http://www.w3.org/1999/xlink" viewBox="0 0 116.44 130.54"><defs><linearGradient id="Dégradé_sans_nom_10" x1="43.51" y1="27.76" x2="24.09" y2="35.77" gradientUnits="userSpaceOnUse"><stop offset="0" stop-color="#439cdf"/><stop offset="0.62" stop-color="#435cd1"/><stop offset="1" stop-color="#4338ca"/></linearGradient><linearGradient id="Dégradé_sans_nom_10-2" x1="48.03" y1="39.58" x2="26.18" y2="51.48" xlink:href="#Dégradé_sans_nom_10"/><linearGradient id="Dégradé_sans_nom_10-3" x1="56.7" y1="92.91" x2="51.06" y2="114.57" xlink:href="#Dégradé_sans_nom_10"/></defs><g id="Calque_2" data-name="Calque 2"><g id="Calque_1-2" data-name="Calque 1"><g opacity="0.17"><path d="M114,52.58l-3.53,25.58L11.6,64.54,15.12,39a3.16,3.16,0,0,1,3.56-2.69L111.3,49A3.18,3.18,0,0,1,114,52.58Z" stroke="#000" stroke-miterlimit="10" stroke-width="0.65"/><rect x="32.31" y="-1.93" width="65.47" height="80.49" rx="1.92" transform="translate(18.21 97.53) rotate(-82.16)" stroke="#000" stroke-miterlimit="10" stroke-width="1.29"/><path d="M115.65,76.31,113.56,84l-67.9-7.22-5.48-8.34-.4-.6L33.12,57.76,22,55.83l-9-1.58-4.7-.82,0-1.78a3.41,3.41,0,0,1,3.86-3.27l1.56.22.44-3.19,7.45,1L23,36.86l1.6.22L23,48.08,42.8,50.82a4.56,4.56,0,0,1,2.48,1l7.77,8.42a1,1,0,0,0,.67.36l45.59,6.28,7.4-53.76a2,2,0,0,0-1.64-2.32l2.4.33a1.92,1.92,0,0,1,1.65,2.17L101.69,67.2l.53.07,2.64-19.13,6.44.88a3.18,3.18,0,0,1,2.7,3.56l-2.65,19.2,1.5.21a3.42,3.42,0,0,1,2.91,2.88Z" stroke="#000" stroke-miterlimit="10" stroke-width="0.65" opacity="0.11"/><path d="M14.12,46.22l1-7.26a3.16,3.16,0,0,1,3.56-2.69l2.62.36" stroke="#000" stroke-linecap="round" stroke-miterlimit="10" stroke-width="1.29"/><path d="M107.49,48.5l3.81.52a3.18,3.18,0,0,1,2.7,3.56l-2,14.67" stroke="#000" stroke-linecap="round" stroke-miterlimit="10" stroke-width="1.29"/><circle cx="47.38" cy="19.79" r="7.67" stroke="#000" stroke-miterlimit="10" stroke-width="1.5"/><path d="M54.8,42.24a16.74,16.74,0,0,0,3.36-2.32,13.71,13.71,0,0,0-4.34-9.42A13.77,13.77,0,0,1,38.1,28.34a13.64,13.64,0,0,0-6.67,7.71,17.6,17.6,0,0,0,12.6,8,18.12,18.12,0,0,0,7.59-.55" stroke="#000" stroke-linecap="round" stroke-miterlimit="10" stroke-width="1.5"/><line x1="79.12" y1="30.51" x2="86.56" y2="31.53" stroke="#000" stroke-miterlimit="10" stroke-width="2.15"/><line x1="77.98" y1="38.75" x2="98.19" y2="41.53" stroke="#000" stroke-miterlimit="10" stroke-width="2.15"/><line x1="63.76" y1="55.48" x2="95.66" y2="59.87" stroke="#000" stroke-miterlimit="10" stroke-width="2.15"/><line x1="66.89" y1="28.82" x2="74.33" y2="29.85" stroke="#000" stroke-miterlimit="10" stroke-width="2.15"/><line x1="65.76" y1="37.06" x2="73.2" y2="38.09" stroke="#000" stroke-miterlimit="10" stroke-width="2.15"/><path d="M115.67,76.23l0,.08L113.56,84l-11.61,43a3.37,3.37,0,0,1-3.74,2.47L9.57,117.35a3.41,3.41,0,0,1-2.94-3.46L8.32,53.43l0-1.78a3.39,3.39,0,0,1,3.86-3.27l28.88,4a3.38,3.38,0,0,1,2.24,1.31l6.93,9.15a1.89,1.89,0,0,0,1.24.72L112.85,72a3.42,3.42,0,0,1,2.91,2.88A3.32,3.32,0,0,1,115.67,76.23Z" stroke="#000" stroke-miterlimit="10" stroke-width="1.29"/><path d="M67.12,95.8l-.82,5.89a.7.7,0,0,1-.8.62l-5-.69-.67,4.84a.72.72,0,0,1-.81.6l-5.9-.81a.72.72,0,0,1-.62-.8l.67-4.84-4.84-.67a.7.7,0,0,1-.6-.81l.81-5.9a.7.7,0,0,1,.8-.61l4.84.66.69-5a.72.72,0,0,1,.81-.6l5.9.81a.72.72,0,0,1,.62.8l-.69,5,5,.69A.73.73,0,0,1,67.12,95.8Z" stroke="#000" stroke-miterlimit="10" stroke-width="0.65"/><line x1="68.04" y1="21.08" x2="75.48" y2="22.1" stroke="#000" stroke-miterlimit="10" stroke-width="2.15"/><line x1="80.27" y1="22.76" x2="100.47" y2="25.54" stroke="#000" stroke-miterlimit="10" stroke-width="2.15"/></g><path d="M101.73,54.17V79H5.78V54.17a3,3,0,0,1,3-3H98.69A3,3,0,0,1,101.73,54.17Z" fill="#fff"/><rect x="14.55" y="15.55" width="77.38" height="62.93" rx="1.85" fill="#fff" stroke="#191919" stroke-miterlimit="10" stroke-width="1.99"/><path d="M106.41,76.56l-1,7.64-65.61,2L33.51,79l-.45-.52-7.68-8.77-10.83-.38L5.78,69,1.2,68.85,1,67.15a3.28,3.28,0,0,1,3.25-3.63H5.78V60.43H13V51.14h1.55l-.11,10.69H33.7a4.35,4.35,0,0,1,2.48.62l8.51,7a1,1,0,0,0,.69.26H89.61V17.54a1.89,1.89,0,0,0-1.86-2h2.33a1.85,1.85,0,0,1,1.85,1.85V69.71h.51V51.14h6.25a3,3,0,0,1,3,3V72.81h1.45a3.28,3.28,0,0,1,3.15,2.36Z" fill="#191919" opacity="0.11"/><path d="M5.78,61.21v-7a3,3,0,0,1,3-3h2.55" fill="none" stroke="#191919" stroke-linecap="round" stroke-miterlimit="10" stroke-width="1.99"/><path d="M95,51.14h3.7a3,3,0,0,1,3,3V68.41" fill="none" stroke="#191919" stroke-linecap="round" stroke-miterlimit="10" stroke-width="1.99"/><circle cx="33.98" cy="31.69" r="7.37" stroke="#191919" stroke-miterlimit="10" stroke-width="1.44" fill="url(#Dégradé_sans_nom_10)"/><path d="M44,52.09a15.92,15.92,0,0,0,2.9-2.65A13.19,13.19,0,0,0,41.52,41a13.22,13.22,0,0,1-15.25,0,13.15,13.15,0,0,0-5.34,8.22,16.89,16.89,0,0,0,13,6,17.45,17.45,0,0,0,7.15-1.52" stroke="#191919" stroke-linecap="round" stroke-miterlimit="10" stroke-width="1.44" fill="url(#Dégradé_sans_nom_10-2)"/><line x1="65.62" y1="37.73" x2="72.84" y2="37.73" fill="none" stroke="#686868" stroke-miterlimit="10" stroke-width="2.06"/><line x1="65.62" y1="45.73" x2="85.22" y2="45.73" fill="none" stroke="#686868" stroke-miterlimit="10" stroke-width="2.06"/><line x1="54.27" y1="63.52" x2="85.22" y2="63.52" fill="none" stroke="#686868" stroke-miterlimit="10" stroke-width="2.06"/><line x1="53.75" y1="37.73" x2="60.98" y2="37.73" fill="none" stroke="#686868" stroke-miterlimit="10" stroke-width="2.06"/><line x1="53.75" y1="45.73" x2="60.98" y2="45.73" fill="none" stroke="#686868" stroke-miterlimit="10" stroke-width="2.06"/><path d="M106.42,76.48v.08l-1,7.64L100,126.7a3.25,3.25,0,0,1-3.24,2.85h-86a3.27,3.27,0,0,1-3.25-2.91L1.2,68.85,1,67.14a3.27,3.27,0,0,1,3.25-3.62h28a3.27,3.27,0,0,1,2.32,1l7.79,7.8a1.82,1.82,0,0,0,1.27.53h59.52a3.28,3.28,0,0,1,3.15,2.36A3.37,3.37,0,0,1,106.42,76.48Z" fill="#fff" stroke="#191919" stroke-miterlimit="10" stroke-width="1.99"/><path d="M62.75,101.48v5.72a.69.69,0,0,1-.68.7H57.18v4.69a.69.69,0,0,1-.7.68H50.76a.68.68,0,0,1-.69-.68V107.9h-4.7a.69.69,0,0,1-.68-.7v-5.72a.69.69,0,0,1,.68-.7h4.7V95.9a.68.68,0,0,1,.69-.68h5.72a.69.69,0,0,1,.7.68v4.88h4.89A.69.69,0,0,1,62.75,101.48Z" fill="url(#Dégradé_sans_nom_10-3)"/><line x1="53.83" y1="30.2" x2="61.05" y2="30.2" fill="none" stroke="#686868" stroke-miterlimit="10" stroke-width="2.06"/><line x1="65.69" y1="30.2" x2="85.3" y2="30.2" fill="none" stroke="#686868" stroke-miterlimit="10" stroke-width="2.06"/></g></g></svg>