<svg xmlns="http://www.w3.org/2000/svg" xmlns:xlink="http://www.w3.org/1999/xlink" viewBox="0 0 143.28 107.94"><defs><linearGradient id="Dégradé_sans_nom_10" x1="39.95" y1="44.73" x2="24.04" y2="57.65" gradientUnits="userSpaceOnUse"><stop offset="0" stop-color="#439cdf"/><stop offset="0.62" stop-color="#435cd1"/><stop offset="1" stop-color="#4338ca"/></linearGradient><linearGradient id="Dégradé_sans_nom_10-2" x1="43.44" y1="63.98" x2="19.9" y2="83.08" xlink:href="#Dégradé_sans_nom_10"/><linearGradient id="Dégradé_sans_nom_10-3" x1="-3551.35" y1="4503.52" x2="-3564.69" y2="4514.34" gradientTransform="translate(-5534.52 -867.31) rotate(-119)" xlink:href="#Dégradé_sans_nom_10"/></defs><g id="Calque_2" data-name="Calque 2"><g id="Calque_1-2" data-name="Calque 1"><g opacity="0.18"><path d="M58.38,72.85a23.73,23.73,0,0,1-36.15-1,18.75,18.75,0,0,1,7.91-11.64,18.11,18.11,0,0,0,21.23.76A18.76,18.76,0,0,1,58.38,72.85Z" stroke="#000" stroke-miterlimit="10" stroke-width="1.86"/><path d="M94.31,12.15l18.25.65A5,5,0,0,1,117.33,18l-3,83.78a5,5,0,0,1-5.13,4.87L13,103.21A5,5,0,0,1,8.21,98l3-83.79a5,5,0,0,1,5.12-4.86l26.09.93" stroke="#000" stroke-linecap="round" stroke-miterlimit="10" stroke-width="2.01"/><path d="M88.58,9.07l-.35,9.81A1.21,1.21,0,0,1,87,20.06L47.33,18.63a1.19,1.19,0,0,1-1.14-1.25l.35-9.82a1.2,1.2,0,0,1,1.23-1.17l11,.4a.5.5,0,0,0,.46-.31A9,9,0,0,1,76,7.08a.47.47,0,0,0,.44.34l11,.39A1.21,1.21,0,0,1,88.58,9.07Z" stroke="#000" stroke-linecap="round" stroke-miterlimit="10" stroke-width="1.95"/><ellipse cx="41.1" cy="47.27" rx="10.46" ry="10.27" transform="translate(-7.61 86.65) rotate(-87.94)" stroke="#000" stroke-miterlimit="10" stroke-width="2.02"/><path d="M26.13,75.71a22.9,22.9,0,0,1-3.9-3.91,18.75,18.75,0,0,1,7.91-11.64,18.11,18.11,0,0,0,21.23.76,18.76,18.76,0,0,1,7,11.93A23.35,23.35,0,0,1,39.9,80.68,23.7,23.7,0,0,1,30,78.17" stroke="#000" stroke-linecap="round" stroke-miterlimit="10" stroke-width="2.02"/><line x1="75.18" y1="47.22" x2="98.21" y2="48.04" stroke="#000" stroke-linecap="round" stroke-miterlimit="10" stroke-width="4.04"/><line x1="74.45" y1="67.62" x2="97.47" y2="68.45" stroke="#000" stroke-linecap="round" stroke-miterlimit="10" stroke-width="4.04"/><path d="M117.33,18l-3,83.78a5,5,0,0,1-5.13,4.87l-6.83-.25-.23-.24,3.66.13a4.94,4.94,0,0,0,5.07-4.81l3-83.66c.1-2.66-4.48-5.15-4.48-5.15l3.18.11A5,5,0,0,1,117.33,18Z" stroke="#000" stroke-miterlimit="10" opacity="0.19"/><polygon points="91.44 13.07 89.15 21.16 89.3 11.97 91.44 13.07" stroke="#000" stroke-miterlimit="10" opacity="0.19"/><path d="M88.6,8.57,88.18,20.1,84.42,20A1.49,1.49,0,0,0,86,18.52l.33-9.25a1.49,1.49,0,0,0-1.42-1.55l3.06.11A.71.71,0,0,1,88.6,8.57Z" stroke="#000" stroke-miterlimit="10" opacity="0.19"/></g><path d="M50.15,75.62A23.49,23.49,0,0,1,32,83.94a23.56,23.56,0,0,1-17.95-8.07,18.35,18.35,0,0,1,7.47-11.68,18.37,18.37,0,0,0,21.21,0A18.31,18.31,0,0,1,50.15,75.62Z" fill="none" stroke="#000" stroke-miterlimit="10" stroke-width="1.84"/><path d="M83.82,14.94h18.24A4.94,4.94,0,0,1,107,19.88V102a4.94,4.94,0,0,1-4.94,4.94H5.94A4.94,4.94,0,0,1,1,102V19.88a4.94,4.94,0,0,1,4.94-4.94H32" fill="#fff" stroke="#191919" stroke-linecap="round" stroke-miterlimit="10" stroke-width="1.99"/><path d="M78,12.13v9.62a1.19,1.19,0,0,1-1.2,1.19H37.19A1.19,1.19,0,0,1,36,21.75V12.13a1.19,1.19,0,0,1,1.19-1.19h11a.49.49,0,0,0,.45-.31,9,9,0,0,1,16.73,0,.49.49,0,0,0,.45.31h11A1.19,1.19,0,0,1,78,12.13Z" fill="#fff" stroke="#191919" stroke-linecap="round" stroke-miterlimit="10" stroke-width="1.93"/><circle cx="32" cy="51.19" r="10.25" stroke="#191919" stroke-miterlimit="10" stroke-width="2" fill="url(#Dégradé_sans_nom_10)"/><path d="M18.08,79.55a22.08,22.08,0,0,1-4-3.68,18.35,18.35,0,0,1,7.47-11.68,18.37,18.37,0,0,0,21.21,0,18.31,18.31,0,0,1,7.42,11.43A23.49,23.49,0,0,1,32,83.94a24.25,24.25,0,0,1-9.94-2.11" stroke="#191919" stroke-linecap="round" stroke-miterlimit="10" stroke-width="2" fill="url(#Dégradé_sans_nom_10-2)"/><line x1="66" y1="49.94" x2="89" y2="49.94" fill="none" stroke="#686868" stroke-linecap="round" stroke-miterlimit="10" stroke-width="4"/><line x1="66" y1="69.94" x2="89" y2="69.94" fill="none" stroke="#686868" stroke-linecap="round" stroke-miterlimit="10" stroke-width="4"/><path d="M107,19.88V102a4.94,4.94,0,0,1-4.94,4.94H95.23l-.23-.23h3.65a4.89,4.89,0,0,0,4.89-4.89v-82c0-2.61-4.66-4.89-4.66-4.89h3.18A4.94,4.94,0,0,1,107,19.88Z" fill="#191919" opacity="0.19"/><polygon points="81 15.94 79 23.94 78.82 14.94 81 15.94" fill="#191919" opacity="0.19"/><path d="M78,11.64v11.3H74.24a1.47,1.47,0,0,0,1.47-1.47V12.41a1.47,1.47,0,0,0-1.47-1.47H77.3A.7.7,0,0,1,78,11.64Z" fill="#191919" opacity="0.19"/><path d="M85.46,78.11l49.79-27.6a1,1,0,0,1,1.44.32l5.4,9.73A1.05,1.05,0,0,1,141.6,62L91.8,89.57h-.09l-12.57-.4.18-.32,6.09-10.66Z" fill="#fff" stroke="#191919" stroke-miterlimit="10" stroke-width="1.99"/><path d="M126,55.65l9.35-5.18a1,1,0,0,1,1.44.31l5.4,9.74a1,1,0,0,1-.49,1.4l-9.35,5.19Z" stroke="#191919" stroke-linecap="round" stroke-miterlimit="10" stroke-width="1.99" fill="url(#Dégradé_sans_nom_10-3)"/><path d="M79.32,88.84l10.29-4.63,50.25-27.85,2.31,4.16a1,1,0,0,1-.49,1.4L91.8,89.57h-.09l-12.57-.4Z" fill="#191919" opacity="0.23"/></g></g></svg>