<svg xmlns="http://www.w3.org/2000/svg" xmlns:xlink="http://www.w3.org/1999/xlink" viewBox="0 0 110.01 111.42"><defs><linearGradient id="Dégradé_sans_nom_10" x1="64.53" y1="5.26" x2="42.44" y2="23.18" gradientUnits="userSpaceOnUse"><stop offset="0" stop-color="#439cdf"/><stop offset="0.62" stop-color="#435cd1"/><stop offset="1" stop-color="#4338ca"/></linearGradient><linearGradient id="Dégradé_sans_nom_10-2" x1="69.37" y1="31.97" x2="36.7" y2="58.47" xlink:href="#Dégradé_sans_nom_10"/><linearGradient id="Dégradé_sans_nom_10-3" x1="31.95" y1="10.87" x2="15.6" y2="24.13" xlink:href="#Dégradé_sans_nom_10"/><linearGradient id="Dégradé_sans_nom_10-4" x1="33.63" y1="26.61" x2="9.68" y2="46.04" xlink:href="#Dégradé_sans_nom_10"/><linearGradient id="Dégradé_sans_nom_10-5" x1="-6329.79" y1="9.8" x2="-6346.13" y2="23.06" gradientTransform="matrix(-1, 0, 0, 1, -6254.92, 0)" xlink:href="#Dégradé_sans_nom_10"/><linearGradient id="Dégradé_sans_nom_10-6" x1="-6328.1" y1="25.55" x2="-6352.05" y2="44.98" gradientTransform="matrix(-1, 0, 0, 1, -6254.92, 0)" xlink:href="#Dégradé_sans_nom_10"/><linearGradient id="Dégradé_sans_nom_10-7" x1="38.42" y1="32.46" x2="21.33" y2="46.33" xlink:href="#Dégradé_sans_nom_10"/></defs><g id="Calque_2" data-name="Calque 2"><g id="Calque_1-2" data-name="Calque 1"><circle cx="53.49" cy="14.22" r="14.22" fill="url(#Dégradé_sans_nom_10)"/><path d="M34.18,53.58a31.68,31.68,0,0,1-5.6-5.11A25.45,25.45,0,0,1,39,32.26a25.47,25.47,0,0,0,29.43,0A25.36,25.36,0,0,1,78.67,48.12,32.59,32.59,0,0,1,53.49,59.66,33.66,33.66,0,0,1,39.7,56.74" fill="url(#Dégradé_sans_nom_10-2)"/><circle cx="23.77" cy="17.5" r="10.52" fill="url(#Dégradé_sans_nom_10-3)"/><path d="M24.14,48.91s0,0,0,.06h-.4a24.84,24.84,0,0,1-10.21-2.17L9.49,44.48A23.7,23.7,0,0,1,5.34,40.7a18.81,18.81,0,0,1,7.68-12,18.85,18.85,0,0,0,21.77,0,16.65,16.65,0,0,1,1.49,1.17A29.92,29.92,0,0,0,24.14,48.91Z" fill="url(#Dégradé_sans_nom_10-4)"/><circle cx="83.04" cy="16.43" r="10.52" fill="url(#Dégradé_sans_nom_10-5)"/><path d="M82.67,47.85l0,0H83a24.84,24.84,0,0,0,10.21-2.17l4.08-2.33a23.7,23.7,0,0,0,4.15-3.78,18.84,18.84,0,0,0-7.68-12,18.84,18.84,0,0,1-21.76,0,17.2,17.2,0,0,0-1.5,1.17A29.94,29.94,0,0,1,82.67,47.85Z" fill="url(#Dégradé_sans_nom_10-6)"/><path d="M36.28,29.88a29.92,29.92,0,0,0-12.14,19s0,0,0,.06" fill="none" stroke-miterlimit="10" stroke-width="1.11" stroke="url(#Dégradé_sans_nom_10-7)"/><path d="M110,67.22V52a1.19,1.19,0,0,0-1.9-.94h0l-.12.08-1.19.68-4.07,2.35-.13.07a32.42,32.42,0,0,1-13.4,2.87h-.25c0,.1,0,.2,0,.31A32,32,0,0,1,57.1,89.61a31.14,31.14,0,0,1-11.68-2.25A32.11,32.11,0,0,1,25.29,58.22H25c-1,0-2,0-2.92-.13A32.32,32.32,0,0,1,13,56l-.08,0a31.14,31.14,0,0,1-4.55-1.65l-.12-.06L6,52.88a1.19,1.19,0,0,0-1.78,1V67.22A1.18,1.18,0,0,0,5,68.35l6,2,2.64.85a1.16,1.16,0,0,1,.75.76,46.12,46.12,0,0,0,2.39,5.86,1.14,1.14,0,0,1,0,1L12.63,87a1.19,1.19,0,0,0,.22,1.37l6.68,6.75,5.81,5.87,1.19,1.2a1.19,1.19,0,0,0,1.39.22L36,98.16l.44-.23a45.78,45.78,0,0,0,6.32,2.69,1.18,1.18,0,0,1,.74.75l2.7,8.43.35,1.09h20.2a1.18,1.18,0,0,0,1.12-.83l2.78-8.69a1.19,1.19,0,0,1,.75-.75,44.59,44.59,0,0,0,5.74-2.41h1.11l6,3.07,2.06,1.08a1.19,1.19,0,0,0,1.39-.22l7-7.07,6.67-6.75a1.18,1.18,0,0,0,.21-1.37l-4.12-8.13a1.18,1.18,0,0,1,0-1,45.31,45.31,0,0,0,2.4-5.86,1.2,1.2,0,0,1,.76-.76l8.59-2.8A1.18,1.18,0,0,0,110,67.22Z" opacity="0.28"/><path d="M104.29,49.49l-5.36,3.17a31.67,31.67,0,0,1-13.4,3h-.24c0,.11,0,.21,0,.32,0,18.12-14.18,32.8-31.68,32.8a30.53,30.53,0,0,1-8.42-1.18C32.33,83.88,22.74,72,22,57.69c0-.32,0-.65-.05-1h-.25A31.71,31.71,0,0,1,13,55.49a29.05,29.05,0,0,1-4.62-1.73L4.2,51.33,3,50.6c-.68-.51-1.33-1-2-1.61V66.77l3.2,1.07,6.73,2.25v0a47.51,47.51,0,0,0,2.81,7.05L9,86.79l7.24,7.5,7.58,7.84,1.41-.75,7.87-4.17c.91.48,1.82.93,2.76,1.34A39.76,39.76,0,0,0,40,100.14l3.2,10.28h21l3.2-10.28a43.6,43.6,0,0,0,6.84-2.93l2.63,1.39,6.65,3.53.38-.39L91,94.29l7.23-7.5L93.5,77.18a47.41,47.41,0,0,0,2.83-7.09l9.92-3.32V47.91C105.62,48.46,105,49,104.29,49.49Z" fill="#fff"/><path d="M85.29,57.48c0,.11,0,.21,0,.31A31.67,31.67,0,0,1,22,58.55M1,51.1V67.4a1.18,1.18,0,0,0,.82,1.13l8.55,2.76a1.17,1.17,0,0,1,.75.75,43.15,43.15,0,0,0,2.37,5.75,1.2,1.2,0,0,1,0,1.06l-4.09,8a1.2,1.2,0,0,0,.22,1.38l6.63,6.63,7,7a1.2,1.2,0,0,0,1.38.22l8-4.1a1.17,1.17,0,0,1,1.06,0,44.58,44.58,0,0,0,5.75,2.38,1.19,1.19,0,0,1,.75.75l2.76,8.54a1.18,1.18,0,0,0,1.13.82H63.25a1.17,1.17,0,0,0,1.12-.82l2.76-8.54a1.17,1.17,0,0,1,.75-.75,44.44,44.44,0,0,0,5.74-2.38,1.2,1.2,0,0,1,1.06,0l8,4.1a1.2,1.2,0,0,0,1.38-.22l7-7,6.62-6.63a1.2,1.2,0,0,0,.22-1.38l-4.09-8a1.2,1.2,0,0,1,0-1.06A43.2,43.2,0,0,0,96.14,72a1.16,1.16,0,0,1,.76-.75l8.53-2.76a1.18,1.18,0,0,0,.82-1.13V50.06" fill="none" stroke="#191919" stroke-linecap="round" stroke-miterlimit="10" stroke-width="1.99"/></g></g></svg>