<svg xmlns="http://www.w3.org/2000/svg" xmlns:xlink="http://www.w3.org/1999/xlink" viewBox="0 0 140.96 151.64"><defs><linearGradient id="Dégradé_sans_nom_10" x1="33.42" y1="44.05" x2="58.92" y2="42.99" gradientUnits="userSpaceOnUse"><stop offset="0" stop-color="#439cdf"/><stop offset="0.62" stop-color="#435cd1"/><stop offset="1" stop-color="#4338ca"/></linearGradient><linearGradient id="Dégradé_sans_nom_10-2" x1="102.38" y1="87.12" x2="76.83" y2="107.85" xlink:href="#Dégradé_sans_nom_10"/><linearGradient id="Dégradé_sans_nom_10-3" x1="107.97" y1="118" x2="70.19" y2="148.66" xlink:href="#Dégradé_sans_nom_10"/><linearGradient id="Dégradé_sans_nom_10-4" x1="-4279.06" y1="4976.9" x2="-4291.22" y2="4986.77" gradientTransform="translate(-6323.22 -1317.7) rotate(-119)" xlink:href="#Dégradé_sans_nom_10"/></defs><g id="Calque_2" data-name="Calque 2"><g id="Calque_1-2" data-name="Calque 1"><g opacity="0.14"><path d="M107.32,32.73,98.09,77a17.5,17.5,0,0,1,2.69.84l9.78-46.91ZM67.41,20.07l0,1L67.51,26l.13-.61a.49.49,0,0,1,.59-.38l.89-3.92,0-.12Zm0,0,0,1L67.51,26l.13-.61a.49.49,0,0,1,.59-.38l.89-3.92,0-.12Zm42-3-.14,0-2.38-.49-.35-.07L99.17,15l-4.27-.89-4-.82h0l-.66-.13-1.81-.38L57,6.17l-3.17-.66L33.15,1.2C31,.75,28.7,3,28,6.12l-2.91,14h7.94v6a1,1,0,0,0,1,1.05H66.75v-7H83.49a12.86,12.86,0,0,1,2.34,2.28,5.86,5.86,0,0,1,1.4,3.46v5.54l.91-1.59,0-.07,19.6-10.87.5-.27,2-1.11A2.89,2.89,0,0,0,109.36,17.08ZM67.51,26l.13-.61a.49.49,0,0,1,.59-.38l.89-3.92,0-.12-1.74-.88,0,1Zm-.1-5.91,0,1L67.51,26l.13-.61a.49.49,0,0,1,.59-.38l.89-3.92,0-.12ZM86.88,122.45l-.26.17-.36.18-.26.1a2.61,2.61,0,0,1-.6.14,2.31,2.31,0,0,1-.37,0,2.76,2.76,0,0,1-.57-.06l-1.23-.26-1.66-.34.09.2,0,.1,1.53.32.8.16,2,.41,1,.22c0-.06,0-.12,0-.19a1.18,1.18,0,0,0,0-.2c0-.11,0-.22,0-.34a6.29,6.29,0,0,0,.06-.88A2.62,2.62,0,0,1,86.88,122.45ZM75.46,30.63l-3.32-.69-.16,0,.72-3.48a.49.49,0,0,0-.39-.59L68.24,25h0l.89-3.92,0-.12-1.74-.88,0,1L67.51,26l-.16.78h0l-.43,2.08-3.19-.66-.16,0h0a.43.43,0,0,0-.38.1.69.69,0,0,0-.11.13.44.44,0,0,0-.06.16l-.85,4.07a.5.5,0,0,0,.38.6l3.34.69-.36,1.72-.34,1.63a.5.5,0,0,0,.4.58l1.64.34,2.43.51a.5.5,0,0,0,.6-.38L70.92,35l3.48.73a.51.51,0,0,0,.59-.4l.85-4.07A.5.5,0,0,0,75.46,30.63ZM55.92,40.05H52.4V36.53a.49.49,0,0,0-.5-.49H47.78a.49.49,0,0,0-.5.49v3.52H43.9a.49.49,0,0,0-.49.5v4.12a.49.49,0,0,0,.49.5h3.38v3.38a.49.49,0,0,0,.5.49H51.9a.49.49,0,0,0,.5-.49V45.17h3.52a.49.49,0,0,0,.49-.5V40.55A.49.49,0,0,0,55.92,40.05Z" stroke="#000" stroke-linecap="round" stroke-miterlimit="10" stroke-width="1.95"/><path d="M139.44,14.93l-.08,0-8.45,4.69L110.56,30.94l-3.24,1.79L98.09,77A18.84,18.84,0,0,0,94,76.49,21,21,0,0,0,89.58,76a20.31,20.31,0,0,0-2.35.13V39.92l-1.23,0-2.77-.09-.81,0,.17-.29.64-1.12L84,37l2-3.53,1.23-2.15.91-1.59,0-.07,19.6-10.87.5-.27,2-1.11,6.85-3.8.07,0,7.93-4.39,8.48-4.69.05,0a.94.94,0,0,1,1.31.29l2.82,5.08,2.1,3.79A1,1,0,0,1,139.44,14.93Z" stroke="#000" stroke-linecap="round" stroke-miterlimit="10" stroke-width="1.95"/><path d="M90.79,10.67,89.05,19a1,1,0,0,1-1.16.84L56.48,13.3a1,1,0,0,1-.73-1.23l1.74-8.34a1,1,0,0,1,1.16-.84l8.71,1.82a.41.41,0,0,0,.42-.2A7.07,7.07,0,0,1,81,7.27a.39.39,0,0,0,.3.35l8.72,1.82A1,1,0,0,1,90.79,10.67Z" stroke="#000" stroke-linecap="round" stroke-miterlimit="10" stroke-width="1.63"/><line x1="54" y1="45.48" x2="88.49" y2="52.66" fill="none" stroke="#000" stroke-miterlimit="10" stroke-width="2.02"/><line x1="32.13" y1="40.92" x2="44.98" y2="43.6" fill="none" stroke="#000" stroke-miterlimit="10" stroke-width="2.02"/><line x1="51.53" y1="57.34" x2="70.2" y2="61.23" fill="none" stroke="#000" stroke-miterlimit="10" stroke-width="2.02"/><line x1="29.66" y1="52.78" x2="42.51" y2="55.46" fill="none" stroke="#000" stroke-miterlimit="10" stroke-width="2.02"/><line x1="49.06" y1="69.21" x2="72.67" y2="74.13" fill="none" stroke="#000" stroke-miterlimit="10" stroke-width="2.02"/><line x1="27.18" y1="64.65" x2="40.04" y2="67.33" fill="none" stroke="#000" stroke-miterlimit="10" stroke-width="2.02"/><path d="M87.22,122.21a6.29,6.29,0,0,1-.06.88c0,.12,0,.23,0,.34a1.18,1.18,0,0,1,0,.2c0,.07,0,.13,0,.19l-1-.22-2-.41-.8-.16-1.53-.32,0-.1-.09-.2,1.66.34,1.23.26a2.76,2.76,0,0,0,.57.06,2.31,2.31,0,0,0,.37,0,2.61,2.61,0,0,0,.6-.14l.26-.1.36-.18a1.92,1.92,0,0,0,.26-.17A2.62,2.62,0,0,0,87.22,122.21Z" stroke="#000" stroke-miterlimit="10" opacity="0.19"/><path d="M108.28,18.55a13.36,13.36,0,0,0-1.44-2l2.52.52a2.89,2.89,0,0,1,.91.36Z" stroke="#000" stroke-miterlimit="10" opacity="0.19"/><path d="M110.56,30.94l-9.78,46.91A17.5,17.5,0,0,0,98.09,77l9.23-44.28Z" stroke="#000" stroke-miterlimit="10" opacity="0.19"/><polygon points="92.48 14.47 89.45 21.08 90.93 13.24 92.48 14.47" stroke="#000" stroke-miterlimit="10" opacity="0.19"/><path d="M90.88,10.24l-2,9.8-3-.62a1.24,1.24,0,0,0,1.43-1l1.64-7.86A1.26,1.26,0,0,0,88,9l2.43.51A.59.59,0,0,1,90.88,10.24Z" stroke="#000" stroke-miterlimit="10" opacity="0.19"/><path d="M75.84,31.23,75,35.3a.51.51,0,0,1-.59.4L70.92,35l-.69,3.34a.5.5,0,0,1-.6.38l-4.07-.85a.5.5,0,0,1-.4-.58l.7-3.35-3.34-.69a.5.5,0,0,1-.38-.6L63,28.55a.48.48,0,0,1,.58-.39l3.35.69L67.51,26l.13-.61a.49.49,0,0,1,.59-.38h0l4.07.85a.49.49,0,0,1,.39.59L72,29.91l3.48.72A.5.5,0,0,1,75.84,31.23Z" stroke="#000" stroke-miterlimit="10"/></g><path d="M83.23,82.32A16.24,16.24,0,0,1,86,81.44v32.1a16.24,16.24,0,0,1-2.77-.88,16.46,16.46,0,0,1,0-30.34Z" fill="#fff"/><path d="M86,26.87V76.35a18.32,18.32,0,0,0-2.77.66,21.29,21.29,0,0,0,0,40.65l.26.08-.26,0a34.91,34.91,0,0,1-13.67-5.81,34,34,0,0,0-3.32,2.67A35,35,0,0,0,57,128.15l.26.89H5c-2.19,0-4-2.59-4-5.8V26.87c0-3.21,1.77-5.8,4-5.8H82a3.48,3.48,0,0,1,2.86,1.8A7.27,7.27,0,0,1,86,26.87Z" fill="#fff"/><polygon points="61.99 84.04 54.99 99.04 54.99 129.04 86 129.04 86 76.04 61.99 84.04" fill="#fff"/><path d="M86,118.32a17.28,17.28,0,0,1-2.51-.58c.83.16,1.66.28,2.51.37Z" fill="#fff"/><path d="M85.4,123a2.61,2.61,0,0,0,.6-.14v.34a2.44,2.44,0,0,1,0,.27v.09c-.13,3-1.84,5.44-3.95,5.44H63.54a26.72,26.72,0,0,1,2.57-4.14,29.24,29.24,0,0,1,6.68-6.55,29.45,29.45,0,0,0,8.87,4.26l-.09-.2,1.66.34,1.23.26a2.76,2.76,0,0,0,.57.06A2.31,2.31,0,0,0,85.4,123Z" fill="#fff"/><path d="M57.24,129H5c-2.19,0-4-2.59-4-5.8V26.87c0-3.21,1.77-5.8,4-5.8h20.9" fill="#fff" stroke="#191919" stroke-linecap="round" stroke-miterlimit="10" stroke-width="1.99"/><path d="M83.23,82.32A16.24,16.24,0,0,1,86,81.44v32.1a16.24,16.24,0,0,1-2.77-.88,16.46,16.46,0,0,1,0-30.34Z" fill="#fff" stroke="#191919" stroke-linecap="round" stroke-miterlimit="10" stroke-width="1.99"/><path d="M67.42,21.07H82a3.48,3.48,0,0,1,2.86,1.8,7.27,7.27,0,0,1,1.1,4V76.35" fill="#fff" stroke="#191919" stroke-linecap="round" stroke-miterlimit="10" stroke-width="1.99"/><path d="M85.4,123a2.61,2.61,0,0,0,.6-.14v.34a2.44,2.44,0,0,1,0,.27v.09c-.13,3-1.84,5.44-3.95,5.44h-16l0-4.14a29.24,29.24,0,0,1,6.68-6.55,29.45,29.45,0,0,0,8.87,4.26l-.09-.2,1.66.34,1.23.26a2.76,2.76,0,0,0,.57.06A2.31,2.31,0,0,0,85.4,123Z" fill="#fff" stroke="#191919" stroke-linecap="round" stroke-miterlimit="10" stroke-width="1.99"/><path d="M62.74,18.6V27a1,1,0,0,1-1,1H30a1,1,0,0,1-1-1V18.6a1,1,0,0,1,1-1h8.81a.39.39,0,0,0,.36-.28,7,7,0,0,1,13.42,0,.4.4,0,0,0,.36.28h8.82A1,1,0,0,1,62.74,18.6Z" fill="#fff" stroke="#191919" stroke-linecap="round" stroke-miterlimit="10" stroke-width="1.99"/><line x1="34.12" y1="59.77" x2="69" y2="59.77" fill="none" stroke="#686868" stroke-miterlimit="10" stroke-width="2"/><line x1="12" y1="59.77" x2="25" y2="59.77" fill="none" stroke="#686868" stroke-miterlimit="10" stroke-width="2"/><line x1="34.12" y1="71.77" x2="53" y2="71.77" fill="none" stroke="#686868" stroke-miterlimit="10" stroke-width="2"/><line x1="12" y1="71.77" x2="25" y2="71.77" fill="none" stroke="#686868" stroke-miterlimit="10" stroke-width="2"/><line x1="34.12" y1="83.77" x2="58" y2="83.77" fill="none" stroke="#686868" stroke-miterlimit="10" stroke-width="2"/><line x1="12" y1="83.77" x2="25" y2="83.77" fill="none" stroke="#686868" stroke-miterlimit="10" stroke-width="2"/><path d="M86,26.87V76.35a18.32,18.32,0,0,0-2.77.66V26.81a5,5,0,0,0-.8-2.57,11.89,11.89,0,0,0-2.94-3.17H82a3.48,3.48,0,0,1,2.86,1.8A7.27,7.27,0,0,1,86,26.87Z" fill="#191919" opacity="0.19"/><path d="M83.23,117.66l.26.08-.26,0Z" fill="#191919" opacity="0.19"/><path d="M85.4,123a2.61,2.61,0,0,0,.6-.14v.34a2.44,2.44,0,0,1,0,.27v.09c-.13,3-1.84,5.44-3.95,5.44H76.56l-.18-.27H79.3c2.17,0,3.93-2.57,3.93-5.74v-.28l1.23.26a2.76,2.76,0,0,0,.57.06A2.31,2.31,0,0,0,85.4,123Z" fill="#191919" opacity="0.19"/><path d="M86,81.44v32.1a16.24,16.24,0,0,1-2.77-.88V82.32A16.24,16.24,0,0,1,86,81.44Z" fill="#191919" opacity="0.19"/><polygon points="65.15 21.94 63.54 28.96 63.4 21.06 65.15 21.94" fill="#191919" opacity="0.19"/><path d="M62.74,18.17v9.91h-3a1.23,1.23,0,0,0,1.17-1.29V18.84a1.22,1.22,0,0,0-1.17-1.28h2.45A.58.58,0,0,1,62.74,18.17Z" fill="#191919" opacity="0.19"/><path d="M52.4,41.55v4.12a.49.49,0,0,1-.49.5H48.39v3.38a.49.49,0,0,1-.5.49H43.77a.49.49,0,0,1-.5-.49V46.17H39.89a.49.49,0,0,1-.49-.5V41.55a.49.49,0,0,1,.49-.5h3.38V37.53a.49.49,0,0,1,.5-.49h4.12a.49.49,0,0,1,.5.49v3.52h3.52A.49.49,0,0,1,52.4,41.55Z" fill="url(#Dégradé_sans_nom_10)"/><path d="M106.06,97.49A16.45,16.45,0,0,1,86,113.54a16.24,16.24,0,0,1-2.77-.88,16.46,16.46,0,0,1,0-30.34A16.24,16.24,0,0,1,86,81.44a16.45,16.45,0,0,1,20.06,16Z" fill="#fff"/><path d="M118.73,136.69a36.68,36.68,0,0,1-14.92,10.7h0a47.11,47.11,0,0,1-27.94.18l-.07,0c-.72-.28-1.43-.57-2.13-.88L67.28,143a36.06,36.06,0,0,1-6.47-5.91A29.1,29.1,0,0,1,63.54,129a26.72,26.72,0,0,1,2.57-4.14,29.24,29.24,0,0,1,6.68-6.55,29.45,29.45,0,0,0,8.87,4.26l-.09-.2,1.66.34,1.23.26a2.76,2.76,0,0,0,.57.06,2.31,2.31,0,0,0,.37,0,2.61,2.61,0,0,0,.6-.14l.26-.1.36-.18.26-.17a2.62,2.62,0,0,0,.34-.24,6.29,6.29,0,0,1-.06.88c0,.12,0,.23,0,.34a1.18,1.18,0,0,1,0,.2c.9.09,1.82.13,2.75.13a29.38,29.38,0,0,0,17-5.41A29.34,29.34,0,0,1,118.73,136.69Z" fill="#fff"/><path d="M106.06,97.49A16.45,16.45,0,0,1,86,113.54a16.24,16.24,0,0,1-2.77-.88,16.46,16.46,0,0,1,0-30.34A16.24,16.24,0,0,1,86,81.44a16.45,16.45,0,0,1,20.06,16Z" stroke="#191919" stroke-miterlimit="10" stroke-width="3.21" fill="url(#Dégradé_sans_nom_10-2)"/><path d="M118.73,136.69a36.68,36.68,0,0,1-14.92,10.7h0a39.41,39.41,0,0,1-27.94.18l-.07,0c-.72-.28-1.43-.57-2.13-.88L67.28,143a36.06,36.06,0,0,1-6.47-5.91A29.1,29.1,0,0,1,63.54,129a26.72,26.72,0,0,1,2.57-4.14,29.24,29.24,0,0,1,6.68-6.55,29.45,29.45,0,0,0,8.87,4.26c.52.15,1,.29,1.57.41l.8.17c.65.13,1.3.24,2,.32.36,0,.71.09,1.08.12.9.09,1.82.13,2.75.13a29.38,29.38,0,0,0,17-5.41A29.34,29.34,0,0,1,118.73,136.69Z" stroke="#191919" stroke-linecap="round" stroke-miterlimit="10" stroke-width="3.21" fill="url(#Dégradé_sans_nom_10-3)"/><path d="M67.18,32.68,112.57,7.52a1,1,0,0,1,1.32.29l4.92,8.88a1,1,0,0,1-.45,1.28L73,43.13h-.08l-11.46-.37.16-.29,5.55-9.72Z" fill="#fff" stroke="#191919" stroke-miterlimit="10" stroke-width="1.99"/><path d="M104.12,12.21l8.52-4.73a1,1,0,0,1,1.32.29l4.92,8.88a1,1,0,0,1-.45,1.28l-8.52,4.72Z" stroke="#191919" stroke-linecap="round" stroke-miterlimit="10" stroke-width="1.99" fill="url(#Dégradé_sans_nom_10-4)"/><path d="M61.58,42.47,71,38.24l45.8-25.39,2.11,3.8a1,1,0,0,1-.45,1.28L73,43.13h-.08l-11.46-.37Z" fill="#191919" opacity="0.23"/></g></g></svg>